<?xml version="1.0" encoding="UTF-8"?>
<!-- Created with Inkscape (http://www.inkscape.org/) -->
<svg width="874" height="1498" version="1.1" viewBox="0 0 874 1498" xmlns="http://www.w3.org/2000/svg" xmlns:cc="http://creativecommons.org/ns#" xmlns:dc="http://purl.org/dc/elements/1.1/" xmlns:rdf="http://www.w3.org/1999/02/22-rdf-syntax-ns#">
 <metadata>
  <rdf:RDF>
   <cc:Work rdf:about="">
    <dc:format>image/svg+xml</dc:format>
    <dc:type rdf:resource="http://purl.org/dc/dcmitype/StillImage"/>
    <dc:title/>
   </cc:Work>
  </rdf:RDF>
 </metadata>
 <ellipse cx="39.291" cy=".27499" rx="2.3887" ry="1.9906" fill="#fff" opacity=".998" stroke="#fff" stroke-opacity=".57746" stroke-width="3.6627"/>
 <rect x="3.5695" y="8.3075" width="874" height="1498" opacity=".998" stroke="#000" stroke-width="10"/>
 <g fill="#fff">
  <g stroke="#fff" stroke-opacity=".57746">
   <ellipse cx="9.4791" cy="321.49" rx="1.5" ry="1.25" opacity=".998" stroke-width="2.3"/>
   <ellipse cx="370.98" cy="385.75" rx="1.4861" ry="1.2397" opacity=".998" stroke-width="2.2799"/>
   <ellipse cx="311.46" cy="122.29" rx="1.4861" ry="1.2397" opacity=".998" stroke-width="2.2799"/>
  </g>
  <rect x="-1.6851" y="195.33" width="435.25" height="159.32" stroke-width="2.249"/>
  <rect x=".87923" y="130.46" width="432.68" height="53.189" stroke-width="1.2956"/>
  <rect x="2.2118" y="39.103" width="267.87" height="55.794" stroke-width="1.019"/>
  <ellipse cx="24.612" cy="103.72" rx="1.5" ry="1.25" opacity=".998" stroke="#fff" stroke-opacity=".57746" stroke-width="2.3"/>
  <ellipse cx="409.98" cy="337.49" rx="1.5" ry="1.25" opacity=".998" stroke="#fff" stroke-opacity=".57746" stroke-width="2.3"/>
 </g>
 <g fill="#000000" letter-spacing="0px" word-spacing="0px">
  <text x="24.907223" y="87.898468" font-family="sans-serif" font-size="53.333px" style="line-height:1.25" xml:space="preserve"><tspan x="24.907223" y="87.898468" font-family="Impact">VANTAGENS</tspan></text>
  <text x="27.276424" y="170.05899" font-family="sans-serif" font-size="34.667px" style="line-height:1.25" xml:space="preserve"><tspan x="27.276424" y="170.05899" font-family="Impact">Mais Performance</tspan></text>
  <text x="28.176174" y="221.05104" font-family="Calibri" font-size="24px" style="line-height:1.25" xml:space="preserve"><tspan x="28.176174" y="221.05104">Elimina o overhead de troca de dados </tspan><tspan x="28.176174" y="251.94698">entre servidores de banco de dados e </tspan><tspan x="28.176174" y="282.8429">servidor de aplicação para o </tspan><tspan x="28.176174" y="313.73883">processamento de grandes volumes de </tspan><tspan x="28.176174" y="344.63477">dados.</tspan></text>
 </g>
 <g fill="#fff">
  <g stroke="#fff" stroke-opacity=".57746">
   <ellipse cx="269.11" cy="384.38" rx="1.5" ry="1.25" opacity=".998" stroke-width="2.3"/>
   <ellipse cx="-11.196" cy="391.92" rx="1.4861" ry="1.2397" opacity=".998" stroke-width="2.2799"/>
   <ellipse cx="483.33" cy="420.3" rx="1.5" ry="1.25" opacity=".998" stroke-width="2.3"/>
   <ellipse cx="492.24" cy="431.47" rx="1.4861" ry="1.2397" opacity=".998" stroke-width="2.2799"/>
   <ellipse cx="557.28" cy="322.39" rx="1.4861" ry="1.2397" opacity=".998" stroke-width="2.2799"/>
  </g>
  <rect x="438.72" y="358.2" width="473.68" height="62.73" stroke-width=".87547"/>
  <rect x="439.17" y="435.11" width="460.4" height="132.49" stroke-width=".92482"/>
 </g>
 <text x="844.65887" y="404.8389" fill="#000000" font-family="sans-serif" font-size="34.667px" letter-spacing="0px" word-spacing="0px" style="line-height:1.04999995" xml:space="preserve"><tspan x="844.65887" y="404.8389" font-family="Impact" text-align="end" text-anchor="end">Mantém Conhecimento</tspan></text>
 <text x="848.10797" y="462.46829" fill="#000000" font-family="Calibri" font-size="24px" letter-spacing="0px" text-anchor="end" word-spacing="0px" style="line-height:1.25" xml:space="preserve"><tspan x="848.10797" y="462.46829" text-align="end">Menor curva de aprendizado se</tspan><tspan x="853.54547" y="493.36423" text-align="end">comparado a Java. Assim, há um melhor </tspan><tspan x="853.54547" y="524.26013" text-align="end">aproveitamento da equipe de </tspan><tspan x="848.10797" y="555.15607" text-align="end">desenvolvimento atual.</tspan></text>
 <g fill="#fff">
  <g stroke="#fff" stroke-opacity=".57746">
   <g stroke-width="2.3">
    <ellipse cx="452.82" cy="381.78" rx="1.5" ry="1.25" opacity=".998"/>
    <ellipse cx="9.289" cy="759.12" rx="1.5" ry="1.25" opacity=".998"/>
    <ellipse cx="409.79" cy="775.12" rx="1.5" ry="1.25" opacity=".998"/>
    <ellipse cx="216.12" cy="770.12" rx="1.5" ry="1.25" opacity=".998"/>
   </g>
   <ellipse cx="51.258" cy="745.92" rx="1.4861" ry="1.2397" opacity=".998" stroke-width="2.2799"/>
   <ellipse cx="288.26" cy="751.44" rx="1.4861" ry="1.2397" opacity=".998" stroke-width="2.2799"/>
  </g>
  <rect x=".68908" y="568.09" width="432.11" height="54.621" stroke-width="1.3121"/>
  <rect x=".98902" y="638.68" width="433.39" height="109.1" stroke-width="1.8571"/>
 </g>
 <text x="27.086262" y="611.68573" fill="#000000" font-family="sans-serif" font-size="34.667px" letter-spacing="0px" word-spacing="0px" style="line-height:1.25" xml:space="preserve"><tspan x="27.086262" y="611.68573" font-family="Impact">Mais Econômico e Atual</tspan></text>
 <text x="27.986012" y="668.67786" fill="#000000" font-family="Calibri" font-size="24px" letter-spacing="0px" word-spacing="0px" style="line-height:1.25" xml:space="preserve"><tspan x="27.986012" y="668.67786">Um dos objetivos do projeto é migrar os </tspan><tspan x="27.986012" y="699.57379">sistemas para arquiteturas mais atuais </tspan><tspan x="27.986012" y="730.46973">econômicas e sair da plataforma alta</tspan></text>
 <g fill="#fff">
  <g stroke="#fff" stroke-opacity=".57746">
   <ellipse cx="407.32" cy="576.76" rx="1.4861" ry="1.2397" opacity=".998" stroke-width="2.2799"/>
   <ellipse cx="464.28" cy="739.08" rx="1.5" ry="1.25" opacity=".998" stroke-width="2.3"/>
   <ellipse cx="485.38" cy="809.73" rx="1.5" ry="1.25" opacity=".998" stroke-width="2.3"/>
   <ellipse cx="442.15" cy="820.14" rx="1.4861" ry="1.2397" opacity=".998" stroke-width="2.2799"/>
  </g>
  <rect x="438.61" y="747.64" width="436.38" height="58.433" stroke-width=".81101"/>
  <rect x="438.63" y="818.81" width="437.21" height="59.006" stroke-width=".60144"/>
 </g>
 <text x="846.70886" y="794.27252" fill="#000000" font-family="sans-serif" font-size="34.667px" letter-spacing="0px" word-spacing="0px" style="line-height:1.04999995" xml:space="preserve"><tspan x="846.70886" y="794.27252" font-family="Impact" text-align="end" text-anchor="end">Mantém Estabilidade</tspan></text>
 <text x="850.15796" y="855.90192" fill="#000000" font-family="sans-serif" font-size="24px" letter-spacing="0px" word-spacing="0px" style="line-height:1.25" xml:space="preserve"><tspan x="850.15796" y="855.90192" font-family="Calibri" text-align="end" text-anchor="end">Tecnologia estável suportada pela Oracle.</tspan></text>
 <g fill="#fff" stroke="#fff" stroke-opacity=".57746">
  <ellipse cx="334.94" cy="846.82" rx="1.4861" ry="1.2397" opacity=".998" stroke-width="2.2799"/>
  <ellipse cx="262.31" cy="860.43" rx="1.5" ry="1.25" opacity=".998" stroke-width="2.3"/>
  <ellipse cx="23.8" cy="1266.3" rx="1.4861" ry="1.2397" opacity=".998" stroke-width="2.2799"/>
  <ellipse cx="117.42" cy="1275.5" rx="1.4861" ry="1.2397" opacity=".998" stroke-width="2.2799"/>
 </g>
 <g transform="matrix(1.2136 0 0 1.2338 346.26 -314.5)" stroke-width=".64">
  <path d="m253 523.54c-5.4124-1.8627-10.262-6.4625-12.159-11.532-4.6173-12.341 2.9644-25.228 16.091-27.351 2.8991-0.4689 10.969-7.8587 30.941-28.333l13.879-14.229-2.2958-1.3546c-1.2627-0.74503-2.2959-1.5793-2.2959-1.854 0-1.0436 23.763-40.334 24.394-40.334 1.019 0 8.7335 4.6412 13.371 8.0443 4.3994 3.2283 12.795 11.018 12.795 11.872 0 0.84742-33.95 32.564-34.857 32.564-0.46513 0-1.0115-0.432-1.2141-0.96-0.71355-1.8595-2.0313-0.90346-4.2006 3.0476-1.2056 2.1958-6.56 11.336-11.899 20.312-14.722 24.753-14.938 25.184-15.945 31.927-1.0654 7.1319-3.3631 11.571-7.7016 14.88-5.4958 4.1914-12.674 5.4449-18.903 3.3012zm10.855-10.735c4.3234-2.2357 6.0063-6.8522 4.2113-11.552-4.0361-10.568-20.078-5.9988-17.992 5.1249 0.46465 2.4768 3.0803 5.9323 5.1128 6.7546 2.1463 0.86828 6.6872 0.69689 8.6675-0.32715zm-121.56-16.813c0.022-5.4566 1.3875-17.864 2.5182-22.88 1.3066-5.7964 3.2663-11.84 3.8392-11.84 0.30973 0 3.6815 1.1264 7.4929 2.5031 7.9266 2.8632 25.562 9.124 31.25 11.094 2.112 0.73151 4.084 1.5418 4.3822 1.8007 0.29821 0.25885-0.0676 2.8762-0.81285 5.8164-0.74528 2.9402-1.537 8.2978-1.7594 11.906l-0.40441 6.56h-46.525zm189.22-1.92c-0.22018-3.784-0.99928-9.1545-1.7313-11.934-0.73205-2.78-1.0999-5.2482-0.81745-5.4851 0.28245-0.23684 5.2656-2.0966 11.074-4.1329s15.406-5.436 21.328-7.5549c5.9994-2.1465 10.996-3.6046 11.283-3.2926 0.95351 1.0378 3.9321 13.675 4.8519 20.584 0.50191 3.7706 0.91819 9.5196 0.92507 12.776l0.0125 5.92h-46.524zm-158.84-30.592c-11.616-5.0616-21.407-9.3086-21.757-9.4379-0.8672-0.31989 4.2275-11.879 7.6944-17.458 2.7649-4.4491 8.96-12.608 9.7966-12.902 0.30456-0.10702 34.344 28.094 36.439 30.19 0.12969 0.12969-1.1223 2.0638-2.7822 4.298s-4.1255 6.4382-5.4791 9.3422-2.5355 5.2555-2.6264 5.2255c-0.091-0.03-9.6694-4.1958-21.285-9.2574zm151.48 4.0139c-1.3685-2.8941-3.8597-7.1078-5.5359-9.3638-3.0016-4.0396-3.0282-4.1172-1.7528-5.12 0.71221-0.56004 8.9284-7.4262 18.258-15.258s17.113-14.24 17.297-14.24c1.1534 0 10.604 14.024 13.524 20.068 5.4748 11.333 7.2117 9.0922-14.192 18.314-10.139 4.3683-19.936 8.5992-21.772 9.4021l-3.3376 1.4598zm-119.16-18.507c-2.7886-2.4988-21.067-19.714-27.502-25.902l-4.7822-4.5986 1.2622-1.4221c5.272-5.9401 22.44-18.468 25.354-18.501 0.57834-7e-3 1.2349 0.46606 1.4591 1.0502 0.22415 0.58412 5.439 9.5009 11.588 19.815s11.181 19.022 11.181 19.352-2.088 1.905-4.64 3.5016-5.924 4.2184-7.4932 5.8262c-1.5693 1.6078-3.1533 2.9149-3.52 2.9046-0.36671-0.0103-1.6748-0.92201-2.9068-2.026zm21.873-12.246c-1.0355-1.2954-21.233-40.513-21.233-41.228 0-0.72872 7.0696-3.8452 14.4-6.3478 4.2117-1.4379 16.949-4.3314 17.259-3.9207 0.44063 0.58241 9.2654 45.557 8.9926 45.829-0.18073 0.18074-2.8494 0.96929-5.9303 1.7523s-7.2415 2.1528-9.2458 3.0439c-2.7091 1.2045-3.7976 1.4281-4.2427 0.87134zm62.785-0.86475c-1.8377-0.85351-6.0137-2.2342-9.28-3.0682-5.4709-1.397-5.9259-1.6337-5.7765-3.0061 0.33361-3.0647 8.6741-43.748 9.0592-44.189 0.54279-0.6213 11.477 1.6611 17.019 3.5524 7.6683 2.6172 14.4 5.6318 14.4 6.4486 0 1.0053-20.299 40.143-21.315 41.096-0.57047 0.53534-1.6152 0.3232-4.1064-0.83385zm-39.864-5.8773c-3e-3 -0.22375-1.4406-10.474-3.1954-22.779-2.215-15.532-2.9864-22.577-2.5229-23.04 0.75243-0.75214 32.2-0.96396 32.942-0.22188 0.35483 0.35496-4.5684 38.054-5.8438 44.748l-0.3188 1.6732-10.528 0.0136c-5.7905 7e-3 -10.53-0.16951-10.533-0.39325z" fill="#d7d7d7"/>
  <path d="m173.96 463.76c-10.56-4.5785-20.123-8.72-21.251-9.2033l-2.0515-0.87872 2.5848-5.9646c1.4216-3.2805 3.6228-7.6926 4.8916-9.8046 2.9811-4.9625 9.6305-13.76 10.4-13.76 0.85712 0 35.826 29.434 35.826 30.155 0 0.3312-1.1631 2.0736-2.5846 3.8719-1.4215 1.7984-3.7502 5.6779-5.1748 8.6212-1.4246 2.9433-2.7816 5.337-3.0154 5.3193-0.23385-0.0177-9.0652-3.7782-19.625-8.3567zm150.26 3.1243c-1.4058-2.9125-3.7491-6.8717-5.2072-8.7982-1.4581-1.9265-2.6512-3.6833-2.6512-3.9038 0-0.76609 34.736-29.564 35.75-29.639 1.6876-0.12361 9.4642 10.883 13.513 19.125 2.0749 4.224 3.8635 8.231 3.9747 8.9044 0.17208 1.0422-2.8462 2.5431-20.278 10.084-11.264 4.8729-20.945 9.0089-21.513 9.1911-0.7803 0.25024-1.6577-0.96341-3.5888-4.9642zm-134.06-32.04-17.086-16.136 3.9656-4.0337c2.1811-2.2185 5.4056-5.1473 7.1656-6.5083 3.4808-2.6917 14.317-9.618 15.047-9.618 0.5083 0 24.609 40.292 24.234 40.514-3.7387 2.2068-11.675 7.9732-13.326 9.6828-1.213 1.2558-2.365 2.2725-2.56 2.2592-0.19495-0.0133-8.043-7.2853-17.44-16.16zm121.27 14.802-1.3914-1.3914 3.0898-5.813c3.3547-6.3115 5.5518-11.714 4.9916-12.274-0.69965-0.69966-4.1004 1.6253-9.9052 6.7716l-5.9133 5.2426-2.4067-1.4475c-1.3237-0.79611-2.5028-1.5176-2.6203-1.6033-0.18358-0.13389 23.272-39.847 23.92-40.5 0.35832-0.36076 9.7568 5.2704 13.673 8.1923 1.9014 1.4186 5.6104 4.6673 8.2423 7.2193l4.7852 4.64-3.8823 3.5331c-2.1353 1.9432-9.815 9.1491-17.066 16.013s-13.396 12.554-13.654 12.644c-0.25876 0.0905-1.0966-0.46168-1.8619-1.227zm-95.1-33.287c-9.8518-18.925-10.659-20.724-9.6372-21.472 3.3164-2.425 21.859-8.351 28.98-9.2614 1.533-0.196 1.5772-0.0366 5.8978 21.243 2.3943 11.792 4.5076 22.068 4.6962 22.834 0.30828 1.2533-0.0296 1.4715-3.3378 2.1559-2.0244 0.4188-5.9848 1.6071-8.8008 2.6406s-5.5532 2.0224-6.0826 2.1976c-0.71859 0.2377-3.688-4.9171-11.716-20.338zm72.838 18.993c-1.76-0.81908-5.72-2.1233-8.8-2.8984-3.4318-0.86354-5.6-1.73-5.6-2.238 0-0.91135 8.1625-41.546 8.7075-43.348 0.46482-1.5367 2.1063-1.4256 10.584 0.71618 6.8505 1.7306 20.048 6.6962 20.73 7.7996 0.46497 0.75234-20.886 41.573-21.712 41.511-0.39035-0.0293-2.1497-0.72341-3.9097-1.5425zm-39.083-5.7642c-0.10975-0.352-1.5686-10.506-3.2419-22.565-2.4246-17.473-2.8809-22.086-2.2469-22.72 1.002-1.002 29.936-1.1447 31.51-0.15546 0.9164 0.57609 0.69272 2.905-2.24 23.323l-3.2581 22.683-10.162 0.0374c-6.2479 0.023-10.238-0.20912-10.361-0.60263z" fill="#afafaf"/>
  <path d="m173.35 463.19c-11.252-4.8519-20.864-9.078-21.361-9.3915-1.8941-1.1947 6.635-17.684 13.473-26.047 1.4761-1.8053 2.7609-3.3937 2.8552-3.5297 0.12337-0.17789 29.712 24.235 35.624 29.393 0.29343 0.25599-0.82876 2.299-2.4938 4.5399-1.665 2.241-4.0651 6.2756-5.3335 8.9659l-2.3062 4.8914zm150.89 3.2682c-1.4777-3.0302-3.8791-7.0608-5.3363-8.9569-1.4573-1.8961-2.381-3.6241-2.0526-3.84 0.32833-0.21592 8.3034-6.8726 17.722-14.793 9.419-7.92 17.333-14.479 17.586-14.575 0.25316-0.0965 2.5407 2.6029 5.0834 5.9987 4.5341 6.0554 11.413 18.911 11.752 21.963 0.16131 1.4513-1.0845 2.0886-20.308 10.389-11.264 4.8634-20.768 8.9509-21.12 9.0833-0.352 0.13241-1.849-2.2385-3.3268-5.2687zm-131.71-29.566c-8.096-7.7302-15.72-15.052-16.941-16.271l-2.2212-2.2162 2.8612-2.9505c4.0828-4.2103 12.264-10.474 18.171-13.912l5.0699-2.9507 10.827 18.058c5.9548 9.9322 11.382 18.965 12.061 20.072l1.2344 2.0136-5.2911 3.5351c-2.9101 1.9443-6.4296 4.7102-7.821 6.1464-1.3914 1.4362-2.6874 2.593-2.88 2.5706-0.19256-0.0224-6.9741-6.3655-15.07-14.096zm119.03 12.848c-1.1757-1.2991-1.1374-1.4324 2.4428-8.4956 4.0213-7.9335 5.0624-11.336 3.4685-11.336-1.3096 0-7.7186 4.9024-11.604 8.8764l-3.1408 3.2122-1.9792-1.0043c-1.0886-0.55237-2.3143-1.2709-2.7238-1.5967-0.53309-0.42413 2.5366-6.0826 10.807-19.92 6.3532-10.63 11.821-19.67 12.151-20.089 0.67242-0.85376 7.7414 3.0269 13.947 7.6564 4.5788 3.4159 12.181 10.719 12.085 11.61-0.0412 0.38225-2.7052 3.143-5.92 6.135-3.2149 2.992-10.7 10.048-16.634 15.68-5.9336 5.632-10.995 10.319-11.247 10.416-0.2521 0.0966-0.99586-0.41836-1.6528-1.1443zm-95.146-33.441-10.674-20.63 3.3142-1.6873c6.8332-3.4789 26.552-9.2077 27.71-8.0502 0.39192 0.39192 9.2042 42.779 9.2042 44.273 0 0.42972-1.6556 1.148-3.68 1.5967-3.0208 0.66949-9.0594 2.682-14.24 4.7458-0.73331 0.29213-3.4805-4.489-11.634-20.248zm72.434 18.687c-2.288-1.0089-6.3993-2.347-9.1362-2.9735-4.7544-1.0883-4.9616-1.2105-4.6497-2.7413 0.17956-0.8812 2.0632-10.242 4.1859-20.802s4.0265-20.013 4.2307-21.006c0.35463-1.7253 0.49002-1.7864 3.0303-1.3682 7.7001 1.2675 20.216 5.2915 26.367 8.4773l2.1177 1.0969-10.673 20.626c-5.8699 11.344-10.817 20.603-10.993 20.576-0.176-0.0277-2.192-0.87581-4.48-1.8847zm-38.69-6.357c-0.72197-3.5889-6.1458-43.697-5.9373-43.906 0.63784-0.63783 9.9604-1.5091 16.148-1.5091 6.4587 0 15.517 0.87852 16.211 1.5722 0.2662 0.2662-5.4173 42.321-6.0116 44.482-0.22016 0.80065-1.9093 0.96-10.176 0.96h-9.912z" fill="#888"/>
  <path d="m192.84 470.91c0-0.41588-0.2681-0.59045-0.59578-0.38793-0.32767 0.20252-0.77957 0.0708-1.0042-0.29267-0.22465-0.36348-0.67655-0.49519-1.0042-0.29267-0.32768 0.20252-0.59578 0.0462-0.59578-0.34733 0-0.39355-0.288-0.53755-0.64-0.32s-0.64 0.0906-0.64-0.28223c0-0.37277-0.216-0.64366-0.48-0.60198-1.2891 0.20354-2.7124-0.15367-3.4895-0.87579-0.47353-0.44-1.2246-0.87551-1.6691-0.9678-0.4445-0.0923-7.6859-3.0827-16.092-6.6454-12.257-5.1947-15.216-6.6825-14.942-7.5122 0.95155-2.8778 8.0298-16.715 8.5504-16.715 0.33097 0 0.60177-0.384 0.60177-0.85333 0-0.46934 0.856-1.6933 1.9022-2.72 1.0462-1.0267 1.9102-2.2267 1.92-2.6667 0.01-0.44 0.29838-0.8 0.64134-0.8 0.34297 0 1.0652-0.85409 1.605-1.898 1.1543-2.2322 2.3592-2.0631 4.8812 0.68524 0.91843 1.0008 1.8216 1.668 2.007 1.4825s0.96979 0.46999 1.743 1.4565c0.77318 0.98653 1.7862 1.9377 2.2511 2.1137 0.46492 0.176 2.3852 1.6669 4.2672 3.3132 1.882 1.6462 7.6536 6.4998 12.826 10.786l9.4038 7.7925-1.2375 1.3283c-2.4126 2.5896-7.7348 10.964-8.0869 12.725-0.37504 1.8752-2.1231 3.9304-2.1231 2.4962zm133.92-0.21405c-0.34042-0.4326-0.79374-1.5211-1.0074-2.419-0.40046-1.683-7.115-12.131-8.2605-12.854-0.35399-0.22329-0.53653-0.71149-0.40562-1.0849 0.1309-0.3734 4.126-3.8676 8.878-7.7649 4.752-3.8973 9.384-7.8011 10.293-8.6751 0.90934-0.87403 1.8232-1.5892 2.0308-1.5892 0.35194 0 2.3717-1.7801 6.2654-5.5219 0.89619-0.86124 1.8008-1.3946 2.0102-1.1852 0.20941 0.20941 1.0196-0.51643 1.8004-1.613s1.5777-1.8356 1.7709-1.6424c0.19322 0.19321 0.70129 0.0608 1.1291-0.29419 1.0252-0.85083 2.7174-0.16085 3.18 1.2966 0.2028 0.63896 0.78976 1.3233 1.3044 1.5208s0.93564 0.76926 0.93564 1.2706 0.432 1.0774 0.96 1.28 0.96 0.67747 0.96 1.0552c0 0.37777 0.54987 1.2771 1.2219 1.9984 2.0602 2.2114 10.132 18.214 9.5045 18.842-0.55503 0.55504-34.881 15.075-35.846 15.163-0.616 0.0561-1.12 0.34582-1.12 0.64368 0 0.29787-0.288 0.36359-0.64 0.14604s-0.64-0.0906-0.64 0.28223c0 0.37277-0.216 0.61659-0.48 0.5418-0.264-0.0748-1.0978 0.20716-1.8528 0.62655-1.0695 0.59406-1.5096 0.58875-1.9918-0.024zm-131.74-31.662c-6.9801-6.6022-14.717-13.925-17.193-16.273l-4.5024-4.2691 1.5994-1.74c5.1987-5.6558 22.497-18.063 24.332-17.451 0.3465 0.1155 5.9386 9.0565 12.427 19.869l11.797 19.659-3.8724 2.3524c-2.1298 1.2938-5.6775 4.041-7.8838 6.1048l-4.0114 3.7525zm116.66 10.208c-0.96964-1.0714-0.78336-1.6511 2.7808-8.6527 3.6396-7.1498 4.5291-10.165 3.2345-10.965-0.74301-0.4592-5.6234 3.2081-10.719 8.0546-2.1695 2.0635-4.2342 3.7518-4.5881 3.7518-0.95996 0-4.5786-2.1635-4.5832-2.7402-9e-3 -1.131 23.308-39.5 24.004-39.5 1.0144 0 11.427 6.5661 15.032 9.4785 3.952 3.1934 10.24 9.1747 10.24 9.7406 0 0.25538-6.9678 7.0515-15.484 15.103-8.5162 8.051-15.924 15.142-16.462 15.758-1.243 1.423-2.148 1.4156-3.4547-0.0283zm-85.237-14.13c-0.50046-0.92503-5.3456-10.178-10.767-20.562l-9.8569-18.88 4.5508-2.1358c2.503-1.1747 6.5927-2.8223 9.0883-3.6614 5.087-1.7104 16.824-4.4147 17.261-3.9772 0.26378 0.26378 9.2411 43.595 9.2411 44.604 0 0.25046-1.8316 0.81946-4.0703 1.2644-2.2387 0.44497-6.4255 1.7586-9.304 2.9193l-5.2336 2.1102zm63.038-0.13876c-1.584-0.71982-5.472-1.9909-8.64-2.8246s-5.7319-1.7504-5.6975-2.0372c0.0344-0.28676 2.0474-10.385 4.4734-22.442l4.4109-21.92 2.2466 0.40182c8.3396 1.4916 25.858 7.2886 27.77 9.1892 0.67905 0.67515-19.969 40.976-20.984 40.955-0.38463-8e-3 -1.9953-0.603-3.5793-1.3228zm-39.04-4.8978c0-0.12036-1.4368-10.338-3.1929-22.706-1.7561-12.368-3.1172-22.563-3.0248-22.655 0.46944-0.46943 11.637-1.5243 16.138-1.5243 4.7112 0 15.676 1.0627 16.182 1.5684 0.17475 0.17476-4.8505 37.008-5.9459 43.582l-0.32493 1.9498-4.9554-0.4753c-2.7255-0.26142-7.1874-0.26043-9.9154 2e-3 -2.728 0.26263-4.96 0.37904-4.96 0.25868z" fill="#7e7e7e"/>
  <path d="m192.49 436.58c-8.0774-7.5977-15.694-14.819-16.926-16.047l-2.24-2.2331 4.16-3.8699c2.288-2.1284 5.744-5.0834 7.68-6.5665 3.875-2.9685 13.081-8.6695 14-8.6695 0.59907 0 23.775 38.531 23.742 39.473-0.01 0.28972-1.6104 1.4906-3.5566 2.6687-1.9461 1.178-5.3727 3.698-7.6146 5.6-2.2419 1.902-4.1847 3.4581-4.3173 3.4581-0.13262 0-6.8499-6.2163-14.927-13.814zm119.22 12.694c-0.93309-1.033-0.71696-1.7079 2.7808-8.6843 3.4231-6.8274 4.7126-11.316 3.2512-11.316-0.81894 0-6.516 4.3358-11.263 8.5722l-4.2272 3.7722-2.224-1.1977c-1.2232-0.65874-2.224-1.4201-2.224-1.6919 0-0.46203 22.782-38.85 23.456-39.524 0.40092-0.40091 4.3692 1.8497 10.784 6.116 4.9955 3.3225 15.04 12.033 15.04 13.043 0 0.63082-33.209 32.03-33.876 32.03-0.26706 0-0.94083-0.504-1.4973-1.12zm-87.369-18.249c-5.3658-10.029-18.058-34.813-18.058-35.262 0-0.55837 6.0624-3.2242 12.516-5.5039 4.9753-1.7574 17.505-4.7768 17.955-4.3268 0.16978 0.16977 9.2088 44.305 9.2088 44.964 0 0.084-1.2986 0.34747-2.8857 0.58547-3.2622 0.4892-10.587 2.8748-13.582 4.4233l-1.9924 1.0303zm63.542 3.3521c-2.464-0.99232-6.1708-2.1815-8.2373-2.6426-2.0665-0.46109-3.87-1.1321-4.0078-1.4911-0.13775-0.35898 1.7273-10.444 4.1445-22.411l4.3949-21.758 1.8529 0.22231c4.5344 0.54405 16.448 4.0109 21.913 6.3765 3.2892 1.4238 6.117 2.7254 6.284 2.8923 0.16696 0.16696-2.8928 6.4518-6.7996 13.966-3.9067 7.5145-8.6065 16.613-10.444 20.22-1.8375 3.6064-3.6289 6.5284-3.9809 6.4934-0.352-0.035-2.656-0.8756-5.12-1.8679zm-37.45-5.0744c-5e-3 -0.19153-1.4237-10.282-3.1522-22.423-1.7284-12.141-3.0921-22.121-3.0304-22.177 0.41749-0.38078 12.453-1.5051 16.112-1.5051 3.9237 0 15.716 1.1359 16.164 1.557 0.14415 0.13549-5.0574 37.86-5.9217 42.948l-0.33098 1.9482h-9.9157c-5.4536 0-9.92-0.15671-9.9253-0.34823z" fill="#6a6a6a"/>
  <path d="m190.51 434.53-16.733-15.818 3.6125-3.7299c1.9869-2.0514 5.8407-5.4192 8.5641-7.484 4.8258-3.6587 13.132-8.6877 13.576-8.2198 0.61531 0.648 23.389 39.125 23.373 39.489-0.0105 0.23364-1.6762 1.373-3.7016 2.532s-5.447 3.679-7.6036 5.6c-2.1566 1.921-4.0189 3.4829-4.1384 3.4708-0.11957-0.0121-7.747-7.1401-16.95-15.84zm121.23 14.804c-0.99917-0.99916-0.86641-1.4512 2.0222-6.8857 4.1307-7.7714 5.5787-11.735 4.6327-12.681-1.0824-1.0824-3.2741 0.30441-10.164 6.4312l-5.9899 5.3265-2.0587-1.2359c-1.1323-0.67976-1.9736-1.6041-1.8695-2.054 0.15189-0.65682 22.167-38.09 22.918-38.968 0.37002-0.43273 9.4783 5.0345 13.732 8.2425 2.2667 1.7096 5.9111 4.9294 8.0985 7.1553l3.9772 4.047-16.658 15.68c-9.1619 8.624-16.863 15.755-17.114 15.846-0.25098 0.0911-0.93756-0.31551-1.5257-0.90367zm-85.334-14.44c-1.7935-3.8686-19.096-37.378-19.575-37.91-0.98425-1.0935-0.60018-1.4372 3.7728-3.3758 9.1837-4.0713 25.603-8.4742 26.09-6.9964 0.21087 0.63933 8.6114 41.96 8.8587 43.574 0.05 0.32674-1.1277 0.81483-2.6172 1.0846-1.4896 0.2698-5.2336 1.3892-8.32 2.4877-3.0865 1.0984-6.0437 2.1323-6.5717 2.2976-0.56657 0.17731-1.2378-0.2988-1.6379-1.1618zm21.194-26.742c-1.6585-11.792-3.1448-21.907-3.303-22.479-0.48685-1.7579 13.954-2.8422 24.302-1.8248l8.1107 0.79751-0.34904 1.9929c-0.41714 2.3817-6.0763 42.035-6.0763 42.577 0 0.20698-4.4254 0.37633-9.8343 0.37633h-9.8342z" fill="#464646"/>
  <path d="m200.74 443.9c-10.361-9.751-17.262-16.361-22.216-21.281l-4.4426-4.4115 3.8126-3.5885c5.9831-5.6315 8.7802-7.7999 15.123-11.724 4.5505-2.8152 6.0733-3.4771 6.6253-2.88 0.39419 0.42645 5.4133 8.6954 11.154 18.375s10.832 18.219 11.314 18.975c0.82937 1.2998 0.66368 1.5046-3.0331 3.7503-2.1507 1.3065-5.5959 3.9359-7.656 5.8432l-3.7456 3.4677zm111.43 5.4727c-1.2881-0.87222-1.2382-1.036 2.72-8.9361 2.2177-4.4262 4.0321-8.7493 4.0321-9.6068 0-3.3485-3.8985-1.2638-12.093 6.4665l-4.4798 4.226-2.212-1.5031-2.212-1.5031 1.6984-2.5693c0.93412-1.4131 2.2465-3.5654 2.9164-4.7828 0.66988-1.2174 2.0099-3.4105 2.9778-4.8734s1.9512-3.263 2.1852-4c0.23393-0.73704 0.69392-1.3401 1.0222-1.3401 0.32827 0 0.59687-0.432 0.59687-0.96s0.305-0.96 0.67777-0.96c0.37278 0 0.49978-0.288 0.28223-0.64s-0.0906-0.64 0.28223-0.64c0.37277 0 0.67777-0.432 0.67777-0.96s0.305-0.96 0.67777-0.96c0.37278 0 0.49978-0.288 0.28223-0.64s-0.10995-0.64 0.2391-0.64 0.83605-0.63457 1.0822-1.4102 0.84156-1.8042 1.3231-2.2857c0.48156-0.48156 0.87556-1.287 0.87556-1.7898 0-0.50286 0.28252-0.91429 0.62781-0.91429s0.80851-0.72 1.0294-1.6c0.22086-0.88 0.65835-1.6 0.97219-1.6s0.57062-0.41143 0.57062-0.91429c0-0.50285 0.37866-1.2948 0.84145-1.76 0.46281-0.46514 1.174-1.4217 1.5805-2.1257s0.74785-0.903 0.75855-0.44223 0.30746 0.65978 0.65946 0.44223 0.64-0.13677 0.64 0.1795c0 0.61744 3.2041 2.3574 4 2.1722 0.264-0.0614 0.48 0.17631 0.48 0.52831s0.40119 0.64 0.89153 0.64 1.0643 0.45025 1.2755 1.0006c0.21117 0.55031 0.67398 0.82132 1.0285 0.60223 0.35448-0.21908 0.64452-0.0933 0.64452 0.27944 0 0.37277 0.26452 0.67777 0.58783 0.67777s1.7909 1.08 3.2613 2.4c1.4704 1.32 2.8886 2.4 3.1516 2.4 0.57476 0 6.7593 6.7153 6.7593 7.3394 0 0.79817-8.9464 10.258-9.7024 10.259-0.40833 7e-4 -3.0003 2.4449-5.76 5.4316-2.7597 2.9867-5.2967 5.4347-5.6379 5.44-0.34118 5e-3 -2.9332 2.4286-5.76 5.385-4.7885 5.0081-5.2293 5.3146-6.4518 4.4868zm-64.521-41.746c-1.7007-12.08-2.9052-22.151-2.6768-22.379 0.61624-0.61625 10.209-1.6178 15.71-1.6403 4.2739-0.0174 7.1786 0.23967 13.771 1.219l1.9312 0.28688-3.1686 22.239-3.1687 22.239h-19.306z" fill="#3d3d3d"/>
 </g>
 <g fill="#fff" stroke="#fff" stroke-opacity=".57746">
  <ellipse cx="382.56" cy="352.28" rx="1.4861" ry="1.2397" opacity=".998" stroke-width="2.2799"/>
  <g stroke-width="2.3">
   <ellipse cx="55.309" cy="413.38" rx="1.5" ry="1.25" opacity=".998"/>
   <ellipse cx="280.69" cy="350.9" rx="1.5" ry="1.25" opacity=".998"/>
   <ellipse cx="218.37" cy="350.9" rx="1.5" ry="1.25" opacity=".998"/>
   <ellipse cx="187.66" cy="385.95" rx="1.5" ry="1.25" opacity=".998"/>
  </g>
  <g stroke-width="2.2799">
   <ellipse cx=".38157" cy="358.44" rx="1.4861" ry="1.2397" opacity=".998"/>
   <ellipse cx="281.48" cy="548.05" rx="1.4861" ry="1.2397" opacity=".998"/>
   <ellipse cx="-2.9255" cy="503.96" rx="1.4861" ry="1.2397" opacity=".998"/>
   <ellipse cx="166.84" cy="452.15" rx="1.4861" ry="1.2397" opacity=".998"/>
  </g>
 </g>
 <text x="26.178066" y="453.73288" fill="#000000" font-family="sans-serif" font-size="85.333px" letter-spacing="25px" word-spacing="0px" style="line-height:1.25" xml:space="preserve"><tspan x="26.178066" y="453.73288" fill="#ffffff" font-family="Impact" letter-spacing="25px" word-spacing="6px"><tspan letter-spacing="25px">CÓDIGO</tspan></tspan></text>
 <text x="22.639156" y="535.44702" fill="#000000" font-family="sans-serif" font-size="85.333px" letter-spacing="-4px" word-spacing="0px" style="line-height:1.25" xml:space="preserve"><tspan x="22.639156" y="535.44702" fill="#ffffff" font-family="Impact" letter-spacing="-4px" word-spacing="6px"><tspan letter-spacing="-4px">EQUIVALENTE</tspan></tspan></text>
 <g fill="#fff" stroke="#fff" stroke-opacity=".57746">
  <g stroke-width="2.3">
   <ellipse cx="584.43" cy="576.08" rx="1.5" ry="1.25" opacity=".998"/>
   <ellipse cx="452.25" cy="753.43" rx="1.5" ry="1.25" opacity=".998"/>
   <ellipse cx="808.31" cy="584.26" rx="1.5" ry="1.25" opacity=".998"/>
   <ellipse cx="482.29" cy="606.69" rx="1.5" ry="1.25" opacity=".998"/>
   <ellipse cx="614.64" cy="579.27" rx="1.5" ry="1.25" opacity=".998"/>
   <ellipse cx="843.01" cy="573.73" rx="1.5" ry="1.25" opacity=".998"/>
  </g>
  <g stroke-width="2.2799">
   <ellipse cx="558.91" cy="739.16" rx="1.4861" ry="1.2397" opacity=".998"/>
   <ellipse cx="584.27" cy="664.2" rx="1.4861" ry="1.2397" opacity=".998"/>
   <ellipse cx="727.57" cy="688.46" rx="1.4861" ry="1.2397" opacity=".998"/>
   <ellipse cx="859.86" cy="733.65" rx="1.4861" ry="1.2397" opacity=".998"/>
   <ellipse cx="449.78" cy="555.07" rx="1.4861" ry="1.2397" opacity=".998"/>
   <ellipse cx="686.79" cy="560.58" rx="1.4861" ry="1.2397" opacity=".998"/>
  </g>
 </g>
 <text x="453.1557" y="647.04663" fill="#000000" font-family="sans-serif" font-size="85.333px" letter-spacing="0px" word-spacing="0px" style="line-height:1.25" xml:space="preserve"><tspan x="453.1557" y="647.04663" fill="#ffffff" font-family="Impact" letter-spacing="0px" word-spacing="6px"><tspan letter-spacing="0px">+ECONOMIA</tspan></tspan></text>
 <text x="452.44522" y="726.63928" fill="#000000" font-family="sans-serif" font-size="85.333px" letter-spacing="4px" word-spacing="0px" style="line-height:1.25" xml:space="preserve"><tspan x="452.44522" y="726.63928" fill="#ffffff" font-family="Impact" letter-spacing="4px" word-spacing="6px"><tspan letter-spacing="4px">+ A T U A L</tspan></tspan></text>
 <g transform="matrix(1.0859 0 0 1.2112 -51.277 -1134.4)" stroke-width=".68549">
  <path d="m89.89 1632c-7.3-1.069-14.03-6.4516-17.89-14.309-1.749-3.56-1.894-4.4852-1.894-12.081 0-7.4896 0.16443-8.5767 1.8372-12.146 2.4312-5.1871 7.3728-10.359 12.13-12.695l3.8556-1.8934h35.646l3.8525 1.8064c5.1538 2.4165 8.8716 5.9049 11.394 10.691 7.4545 14.143 2.6 32.026-10.528 38.783-1.175 0.6049-4.1055 1.4193-6.5122 1.8098-4.9278 0.7995-26.504 0.8222-31.891 0.034zm34.386-11.66c5.962-2.8861 9.4355-10.937 7.9373-18.397-1.0051-5.0049-3.3866-8.4897-7.4233-10.862-3.2288-1.898-3.4425-1.9261-16.402-2.1565-8.3127-0.1478-14.553 0.062-17.007 0.5713-14.146 2.9368-16.507 24.201-3.4512 31.084 1.697 0.8946 4.8049 1.0889 17.778 1.1116 14.382 0.025 15.964-0.09 18.569-1.3511zm22.063 11.918c-0.26679-0.2668-0.48507-12.464-0.48507-27.105v-26.62h19.755c22.417 0 24.929 0.3867 29.152 4.4876 3.4803 3.38 5.371 7.4147 5.7578 12.287 0.40038 5.0432-0.53017 8.7302-3.216 12.742-2.6259 3.9225-6.0907 6.2171-10.811 7.1597l-3.7734 0.7534 7.9598 7.5655c4.3779 4.1611 7.9598 7.924 7.9598 8.3621 0 0.5477-1.9828 0.7965-6.3472 0.7965h-6.3472l-13.532-13.545c-7.4426-7.4497-13.532-13.696-13.533-13.881-4.4e-4 -0.1851 5.685-0.2463 12.634-0.1362 14.683 0.2328 16.561-0.2054 18.513-4.3192 1.6311-3.4373 1.0365-6.8571-1.6617-9.557l-2.0891-2.0904-15.24-0.2172-15.24-0.2171v43.62l-4.4848 0.1994c-2.4666 0.1097-4.703-0.019-4.9698-0.2856zm53.672-0.4279c1e-3 -0.4713 0.56297-1.7823 1.2479-2.9134 0.68494-1.131 2.4272-4.2158 3.8716-6.8549 13.913-25.42 22.686-40.704 24.101-41.986 2.4844-2.2528 6.3376-2.0991 8.5938 0.3427 0.958 1.0368 7.3043 11.91 14.103 24.164 6.7985 12.253 13.043 23.434 13.876 24.846 1.8617 3.1551 1.4396 3.4103-5.1657 3.122l-4.6994-0.205-2.5145-4.4557-2.5145-4.4557-11.912-0.1953-11.912-0.1953-2.5706-4.7511c-1.4138-2.6131-2.5706-4.9159-2.5706-5.1173s5.1147-0.3662 11.366-0.3662h11.366l-4.9563-9.4255c-2.726-5.1841-5.2992-9.9288-5.7182-10.544-0.62813-0.9219-2.6262 2.3124-11.38 18.42-5.8397 10.746-11.025 19.964-11.523 20.484-1.2124 1.2645-11.092 1.3429-11.088 0.088zm81.907 0.1807c-13.241-1.9472-22.811-16.546-20.33-31.014 1.5423-8.9941 6.9292-16.515 14.51-20.26l3.7702-1.862 18.399-0.2301c15.092-0.1887 18.357-0.065 18.166 0.6855-0.12811 0.5036-1.3071 2.8143-2.62 5.1351l-2.387 4.2195-14.75 0.2532c-15.981 0.2743-16.862 0.4614-20.826 4.4256-2.9274 2.9275-4.0377 5.6064-4.3954 10.606-0.43962 6.1441 1.0981 10.693 4.7214 13.966 1.5053 1.3599 3.5121 2.7673 4.4595 3.1275 0.94738 0.3602 9.5685 0.6549 19.158 0.6549s17.435 0.2017 17.435 0.4483c0 0.8066-5.0042 9.4785-5.7677 9.995-0.94903 0.642-24.985 0.5188-29.542-0.1515zm42.35 0.1942c-0.84079-0.1624-2.1518-1.0875-2.9134-2.0556-1.3315-1.6928-1.3846-2.7163-1.3846-26.688v-24.928h10.282v43.186h20.222c11.122 0 20.222 0.1813 20.222 0.4028 0 0.7574-5.0591 9.5359-5.7864 10.04-0.75417 0.5233-37.952 0.5623-40.642 0.043zm63.813-0.2049c-10.117-1.4814-18.775-11.028-20.113-22.178-1.5004-12.5 4.2069-24.098 14.297-29.053l3.8556-1.8934 18.337-0.2294c11.67-0.146 18.337 0.015 18.337 0.4421 0 0.3693-1.1483 2.6798-2.5518 5.1343l-2.5518 4.4628-14.757 0.2533c-12.105 0.2077-15.136 0.4578-16.865 1.3915-2.2108 1.1938-7.1462 6.2646-7.1462 7.3424 0 0.3451-0.18724 1.1153-0.41609 1.7117-0.37384 0.9742 1.7146 1.0843 20.565 1.0843 11.54 0 20.981 0.2678 20.981 0.5952 0 0.3273-1.137 2.6408-2.5268 5.1412l-2.5268 4.546h-18.381c-10.109 0-18.381 0.1666-18.381 0.3701 0 1.0309 2.8087 5.6385 4.2176 6.9188 3.8932 3.5378 4.796 3.679 23.511 3.679 9.6328 0 17.514 0.2058 17.514 0.4572 0 0.8577-4.95 9.4809-5.7324 9.9861-1.0026 0.6475-25.034 0.5161-29.666-0.1622zm40.54-41.271c-2.2653-1.2992-3.04-2.7881-3.0629-5.8868-0.0424-5.7247 5.3385-8.3176 9.1041-4.3871 2.6075 2.7216 2.5422 6.3941-0.16177 9.098-2.1353 2.1354-3.6709 2.4425-5.8794 1.1759zm2.5978-3.2851c-0.19718-0.754-0.47678-1.371-0.62131-1.371-0.14454 0-0.2628 0.617-0.2628 1.371 0 0.7541 0.27959 1.371 0.62132 1.371 0.34172 0 0.45998-0.6169 0.26279-1.371zm-3.1536-3.9416c-0.17242-0.6597-0.31349-0.1199-0.31349 1.1997 0 1.3195 0.14107 1.8594 0.31349 1.1996s0.17242-1.7395 0-2.3993zm6.3719 1.371c-8e-3 -1.4689-0.15719-1.6581-0.675-0.8568-0.86675 1.3412-0.86675 2.7419 0 2.7419 0.37702 0 0.68077-0.8483 0.675-1.8851z" fill="#fefefe"/>
  <path d="m98.762 1631.5c3.6955-0.1235 9.5565-0.123 13.024 0 3.4679 0.1241 0.44424 0.2251-6.7192 0.2245-7.1634-7e-4 -10.001-0.1023-6.3052-0.2257zm52.395 0.01 3.5888-0.2515 0.19181-20.701 0.1918-20.7 0.16094 21.079 0.16094 21.079-3.9416-0.1268-3.9416-0.1268 3.5888-0.2514zm24.516-9.7772c-5.6459-5.6553-10.111-10.282-9.9225-10.282s4.9621 4.6271 10.608 10.282c5.6459 5.6554 10.111 10.282 9.9225 10.282s-4.9621-4.627-10.608-10.282zm16.379 9.7711 5.4115-0.2354-1.984-2.1972-1.984-2.1973 2.2279 2.0134c1.2253 1.1073 2.2278 2.2641 2.2278 2.5706s-2.5449 0.4952-5.6553 0.4193l-5.6553-0.138zm8.6407 0c-2.4e-4 -0.2828 1.6192-0.426 3.5988-0.3183 6.4812 0.3527 7.1212 0.6252 1.7142 0.7297-2.9219 0.056-5.3128-0.1286-5.313-0.4114zm55.007-0.3428c-1.0255-1.28-3.675-6.6835-3.2771-6.6835 0.18982 0 1.1201 1.5293 2.0673 3.3986l1.7222 3.3985 5.3157 0.2337 5.3157 0.2337-5.2286 0.138c-3.5066 0.092-5.4547-0.1443-5.9151-0.719zm35.002 0.345c4.0735-0.1214 10.551-0.1209 14.395 7e-4 3.844 0.122 0.51114 0.2213-7.4063 0.2207-7.9174-5e-4 -11.063-0.1003-6.989-0.2217zm43.492-7e-4c5.7496-0.1146 15.158-0.1146 20.908 0 5.7496 0.1147 1.0454 0.2085-10.454 0.2085-11.499 0-16.203-0.094-10.454-0.2085zm63.065 0c3.8645-0.1222 10.188-0.1222 14.053 0s0.70263 0.2222-7.0263 0.2222c-7.729 0-10.891-0.1-7.0263-0.2222zm-309.8-0.6426c0.49484-0.198 1.0861-0.1737 1.3139 0.054 0.22778 0.2278-0.17709 0.3898-0.89971 0.36-0.79856-0.033-0.961-0.1953-0.41415-0.4141zm35.646 0c0.49484-0.198 1.0861-0.1737 1.3139 0.054 0.22778 0.2278-0.17709 0.3898-0.89971 0.36-0.79856-0.033-0.961-0.1953-0.41415-0.4141zm156.29 0c0.49484-0.198 1.0861-0.1737 1.3139 0.054 0.22778 0.2278-0.17709 0.3898-0.89971 0.36-0.79857-0.033-0.961-0.1953-0.41416-0.4141zm106.25 0c0.49483-0.198 1.0861-0.1737 1.3139 0.054 0.22779 0.2278-0.17709 0.3898-0.89971 0.36-0.79856-0.033-0.96099-0.1953-0.41415-0.4141zm-302.35-1.2999c-2.6578-1.4419-2.3568-1.9395 0.34275-0.5666 2.584 1.3141 3.0413 1.6547 2.1707 1.6167-0.3456-0.015-1.4767-0.4876-2.5135-1.0501zm63.547-23.943c2.1e-4 -13.95 0.0916-19.559 0.20312-12.465 0.1115 7.0938 0.11133 18.507-3.8e-4 25.363-0.11172 6.856-0.20295 1.0519-0.20274-12.898zm128.39 23.943c-2.6578-1.4419-2.3568-1.9395 0.34274-0.5666 2.584 1.3141 3.0413 1.6547 2.1707 1.6167-0.34561-0.015-1.4767-0.4876-2.5135-1.0501zm37.531-0.9789c0.5849-1.1311 1.2177-2.0565 1.4062-2.0565s-0.1358 0.9254-0.7207 2.0565c-0.5849 1.131-1.2177 2.0565-1.4062 2.0565s0.13581-0.9255 0.7207-2.0565zm53.811-0.6855c0.76938-1.5081 1.5531-2.742 1.7416-2.742 0.18852 0-0.28673 1.2339-1.0561 2.742s-1.5531 2.742-1.7416 2.742 0.28673-1.2339 1.0561-2.742zm14.91 1.6644c-2.6578-1.4419-2.3568-1.9395 0.34275-0.5666 2.584 1.3141 3.0413 1.6547 2.1707 1.6167-0.34561-0.015-1.4767-0.4876-2.5135-1.0501zm37.188-0.2934c0.40355-0.7541 0.88797-1.371 1.0765-1.371s0.0125 0.6169-0.39099 1.371c-0.40355 0.754-0.88796 1.371-1.0765 1.371-0.18852 0-0.0126-0.617 0.39098-1.371zm-206.33-1.371c0.40355-0.7541 0.88797-1.371 1.0765-1.371s0.0125 0.6169-0.39099 1.371c-0.40355 0.754-0.88797 1.371-1.0765 1.371s-0.0125-0.617 0.39099-1.371zm51.412 0c-0.40355-0.7541-0.5795-1.371-0.39098-1.371 0.18851 0 0.67292 0.6169 1.0765 1.371 0.40355 0.754 0.5795 1.371 0.39099 1.371s-0.67293-0.617-1.0765-1.371zm-130.9-2.1028c1.7145-1.6711 3.6567-3.8096 4.3161-4.7522 0.65937-0.9425 0.98483-1.251 0.72324-0.6854-1.0218 2.209-3.8018 5.4604-5.9271 6.9321-1.7351 1.2016-1.5382 0.8702 0.88779-1.4945zm70.231 0.7318c0.5849-1.1311 1.2177-2.0565 1.4062-2.0565 0.18852 0-0.1358 0.9254-0.7207 2.0565-0.58489 1.1311-1.2177 2.0565-1.4062 2.0565s0.1358-0.9254 0.7207-2.0565zm117.87-21.936c0-13.384 0.0918-18.86 0.20405-12.168 0.11223 6.6921 0.11223 17.643 0 24.335s-0.20405 1.2168-0.20405-12.168zm-242.67 21.079-2.0134-2.2278 2.2279 2.0133c2.0767 1.8768 2.5429 2.4424 2.0134 2.4424-0.11797 0-1.1205-1.0026-2.2279-2.2279zm190.7-1.1702c-1.7482-1.869-3.1785-3.617-3.1785-3.8845s0.0982-0.3578 0.2182-0.2007 1.7046 1.9051 3.5213 3.8844c1.8167 1.9794 3.1488 3.5989 2.9603 3.5989s-1.7731-1.5292-3.5213-3.3981zm106.81 0.4847-2.7097-2.9133 2.9134 2.7097c1.6023 1.4904 2.9134 2.8014 2.9134 2.9134 0 0.5186-0.59697-4e-4 -3.117-2.7098zm-114.79-1.8851c-0.76937-1.5081-1.2446-2.7419-1.0561-2.7419s0.97223 1.2338 1.7416 2.7419 1.2446 2.742 1.0561 2.742c-0.18851 0-0.97222-1.2339-1.7416-2.742zm54.541 0.4846c0.25742-0.6761 0.64072-1.0565 0.85178-0.8455 0.21106 0.2111 4.4e-4 0.7642-0.46804 1.2292-0.67701 0.672-0.75574 0.5932-0.38374-0.3837zm53.469 0c0.25743-0.6761 0.64073-1.0565 0.85178-0.8455 0.21106 0.2111 4.4e-4 0.7642-0.46804 1.2292-0.677 0.672-0.75574 0.5932-0.38374-0.3837zm-183.95-4.1019c-2.3455-2.3665-4.2645-4.5258-4.2645-4.7984s1.6195-0.4401 3.5988-0.3721l3.5988 0.1235-3.366 0.2613-3.366 0.2612 4.3744 4.4137c2.4059 2.4275 4.2202 4.4136 4.0317 4.4136s-2.2618-1.9362-4.6073-4.3028zm-110.77 1.3895-1.2332-2.2279 1.4129 1.7138c1.2531 1.5198 1.8095 2.7419 1.2485 2.7419-0.10722 0-0.74989-1.0025-1.4282-2.2278zm24.416 1.7163c4.053-0.1212 10.685-0.1212 14.738 0 4.053 0.1212 0.7369 0.2204-7.3691 0.2204-8.106 0-11.422-0.099-7.3691-0.2204zm117.39-1.545c0.58489-1.131 1.2177-2.0564 1.4062-2.0564s-0.1358 0.9254-0.7207 2.0564c-0.5849 1.1311-1.2177 2.0565-1.4062 2.0565-0.18851 0 0.13581-0.9254 0.72071-2.0565zm75.233 1.5446c4.43-0.1194 11.679-0.1194 16.109 0 4.43 0.1194 0.80546 0.2171-8.0546 0.2171s-12.485-0.098-8.0546-0.2171zm48.327-6e-4c5.3726-0.1158 14.164-0.1158 19.537 0s0.97683 0.2106-9.7683 0.2106-15.141-0.095-9.7683-0.2106zm57.924 6e-4c4.43-0.1194 11.679-0.1194 16.109 0 4.43 0.1194 0.80545 0.2171-8.0546 0.2171s-12.485-0.098-8.0546-0.2171zm-308.09-0.6418c0.49484-0.1981 1.0861-0.1737 1.3139 0.054 0.22778 0.2278-0.17709 0.3898-0.89971 0.36-0.79856-0.033-0.96099-0.1953-0.41415-0.4141zm117.01-1.5882c0.5849-1.1311 1.2177-2.0565 1.4062-2.0565 0.18852 0-0.1358 0.9254-0.7207 2.0565-0.58489 1.131-1.2177 2.0564-1.4062 2.0564s0.1358-0.9254 0.7207-2.0564zm20.669 1.5423c-0.1758-0.2828 3.2763-0.4335 7.6714-0.3351 14.258 0.3195 15.78 0.5872 4.0898 0.7196-6.2929 0.071-11.585-0.1017-11.761-0.3845zm101.69-20.704v-21.218l-4.2843-0.2434-4.2843-0.2433 4.6271-0.1321 4.6271-0.1321v21.593c0 11.876-0.15424 21.593-0.34275 21.593s-0.34275-9.5479-0.34275-21.218zm58.824 20.749c0.49484-0.1981 1.0861-0.1737 1.3139 0.054 0.22779 0.2278-0.17709 0.3898-0.89971 0.36-0.79856-0.033-0.96099-0.1953-0.41415-0.4141zm-263.79-0.9028c0.56553-0.3654 1.3367-0.6645 1.7137-0.6645 0.37703 0 0.22279 0.2991-0.34274 0.6645-0.56554 0.3655-1.3367 0.6645-1.7137 0.6645s-0.22278-0.299 0.34275-0.6645zm258.47-1.7876c-1.1685-0.9832-2.4468-2.4485-2.8406-3.2561-0.5832-1.196-0.46076-1.1509 0.65996 0.2429 0.7568 0.9412 2.2427 2.4049 3.3021 3.2526 1.0594 0.8478 1.7184 1.543 1.4646 1.5448-0.25385 0-1.4176-0.801-2.5861-1.7842zm-298.31-0.097c-0.87024-1.1096-0.83798-1.1242 0.43019-0.1939 0.75404 0.5531 1.4995 1.0929 1.6566 1.1996s-0.03649 0.194-0.43018 0.194-1.1392-0.5399-1.6566-1.1997zm140.96-0.8568c-0.5849-1.1311-0.90921-2.0565-0.7207-2.0565s0.82129 0.9254 1.4062 2.0565c0.5849 1.131 0.90921 2.0565 0.7207 2.0565s-0.82129-0.9255-1.4062-2.0565zm49.998-0.1714-2.0134-2.2279 2.2279 2.0134c2.0767 1.8767 2.5429 2.4424 2.0134 2.4424-0.11797 0-1.1205-1.0026-2.2278-2.2279zm-10.267 0.8113c-0.24851-0.4021-0.30482-0.8782-0.12513-1.0578 0.17968-0.1797 0.50936 0.1493 0.73262 0.7311 0.46352 1.2079 0.0685 1.4203-0.60749 0.3267zm106.25 0c-0.24851-0.4021-0.30483-0.8782-0.12514-1.0578 0.17968-0.1797 0.50936 0.1493 0.73262 0.7311 0.46352 1.2079 0.0685 1.4203-0.60748 0.3267zm-298.76-1.6947c-0.66149-1.7238-0.46635-2.1686 0.34174-0.7789 0.40012 0.688 0.58308 1.3954 0.40659 1.5719-0.17649 0.1765-0.51324-0.1803-0.74833-0.793zm185-1.0017c-0.5849-1.1311-0.90921-2.0565-0.7207-2.0565s0.82129 0.9254 1.4062 2.0565 0.90921 2.0565 0.7207 2.0565-0.8213-0.9254-1.4062-2.0565zm-128.53 1.1122c0-0.1424 0.53982-0.6822 1.1996-1.1997 1.0872-0.8526 1.1115-0.8284 0.25881 0.2589-0.8955 1.1418-1.4584 1.5049-1.4584 0.9408zm81.231-3.1687c0.5849-1.1311 1.2177-2.0565 1.4062-2.0565 0.18852 0-0.1358 0.9254-0.7207 2.0565-0.58489 1.1311-1.2177 2.0565-1.4062 2.0565s0.1358-0.9254 0.7207-2.0565zm9.9397 0c0.40355-0.754 0.88797-1.371 1.0765-1.371s0.0126 0.617-0.39098 1.371c-0.40355 0.754-0.88797 1.371-1.0765 1.371s-0.0126-0.617 0.39098-1.371zm43.002 0.055c-0.29817-1.1403-0.20896-1.4079 0.29973-0.8992 0.39834 0.3983 0.58938 1.1289 0.42453 1.6234-0.17113 0.5134-0.48186 0.2027-0.72426-0.7242zm9.0643-0.1137c-0.42084-0.7863-0.63603-1.5588-0.47822-1.7166 0.15782-0.1579 0.6389 0.4855 1.0691 1.4297 0.94466 2.0733 0.48471 2.2966-0.59086 0.2869zm97.426 0.3443c0.0329-0.7985 0.19532-0.961 0.41415-0.4141 0.19802 0.4948 0.17367 1.0861-0.0541 1.3138-0.22778 0.2278-0.3898-0.177-0.36003-0.8997zm-228.96-1.371c0.0329-0.7985 0.19532-0.961 0.41414-0.4141 0.19802 0.4948 0.17367 1.0861-0.0541 1.3139-0.22779 0.2277-0.3898-0.1771-0.36004-0.8998zm237.44 0.3543c-0.24851-0.4021-0.30483-0.8781-0.12514-1.0578 0.17968-0.1797 0.50936 0.1493 0.73262 0.7311 0.46352 1.2079 0.0685 1.4204-0.60748 0.3267zm-144.08-0.4674 11.497-0.2058-0.73852-1.5257c-0.71072-1.4683-0.69839-1.4756 0.32754-0.1951 0.58633 0.7319 1.0661 1.5802 1.0661 1.8851 0 0.305-5.3212 0.4854-11.825 0.4009l-11.825-0.1537zm-163.2-1.8867c0.01397-1.1311 0.1676-1.5108 0.3414-0.8438 0.1738 0.6669 0.16237 1.5923-0.0254 2.0564-0.18777 0.4641-0.32998-0.082-0.316-1.2126zm8.5197 0.659c-0.23509-0.6127-0.40788-1.4743-0.38398-1.9147 0.0239-0.4404 0.339-0.062 0.70022 0.8411 0.36122 0.903 0.53402 1.7646 0.38398 1.9147-0.15003 0.15-0.46513-0.2285-0.70022-0.8411zm289.59-0.031c0.0329-0.7986 0.19532-0.961 0.41414-0.4142 0.19802 0.4948 0.17367 1.0861-0.0541 1.3139-0.22778 0.2277-0.3898-0.1771-0.36004-0.8997zm-114.53-0.9712c-0.40355-0.754-0.57949-1.371-0.39098-1.371s0.67293 0.617 1.0765 1.371c0.40355 0.7541 0.57949 1.371 0.39098 1.371s-0.67293-0.6169-1.0765-1.371zm-112.95-1.371c0-1.3195 0.14108-1.8594 0.3135-1.1996s0.17242 1.7395 0 2.3993c-0.17242 0.6597-0.3135 0.1199-0.3135-1.1997zm52.624 1.7977c0-0.1423 0.53983-0.6822 1.1996-1.1996 1.0872-0.8527 1.1115-0.8284 0.25882 0.2588-0.89551 1.1419-1.4584 1.505-1.4584 0.9408zm-31.875-3.1686-2.6775-2.742 13.678 0.1553 13.678 0.1553-12.972 0.203-12.972 0.203 2.3103 2.3837c1.2707 1.311 2.1582 2.3836 1.9722 2.3836-0.18595 0-1.543-1.2339-3.0156-2.7419zm-29 0.3427c0.014-1.1311 0.1676-1.5108 0.3414-0.8438 0.1738 0.6669 0.16237 1.5924-0.0254 2.0565-0.18778 0.4641-0.32998-0.082-0.31601-1.2127zm80.412-0.3427c0.5849-1.1311 1.2177-2.0565 1.4062-2.0565 0.18852 0-0.1358 0.9254-0.7207 2.0565-0.58489 1.131-1.2177 2.0564-1.4062 2.0564s0.1358-0.9254 0.7207-2.0564zm48.552-2.3993c3e-3 -2.6391 0.12694-3.6348 0.27533-2.2125 0.14839 1.4222 0.1459 3.5815-5e-3 4.7984-0.15148 1.2169-0.2729 0.053-0.26985-2.5859zm152.64 3.8107c0-0.3548 0.30494-0.8335 0.67764-1.0638 0.38858-0.2402 0.5035 0.035 0.26941 0.645-0.45571 1.1876-0.94705 1.4048-0.94705 0.4188zm-190.57-2.7824c0.76937-1.5081 1.5531-2.742 1.7416-2.742s-0.28674 1.2339-1.0561 2.742-1.5531 2.7419-1.7416 2.7419 0.28674-1.2338 1.0561-2.7419zm144.09 1.0282c0.014-1.1311 0.1676-1.5108 0.3414-0.8438s0.16238 1.5924-0.0254 2.0565c-0.18774 0.4641-0.32994-0.082-0.31597-1.2127zm-97.963-2.0565c5e-3 -1.8851 0.13828-2.5749 0.29584-1.5329 0.15757 1.042 0.15336 2.5843-9e-3 3.4275-0.16274 0.8431-0.29166-0.01-0.28652-1.8946zm-200.17-0.3427c0-1.6966 0.13368-2.3907 0.29707-1.5424 0.16339 0.8483 0.16339 2.2364 0 3.0847-0.16339 0.8483-0.29707 0.1543-0.29707-1.5423zm127.37 1.371c0.99932-2.0983 1.316-2.4872 1.316-1.6163 0 0.3678-0.47972 1.2675-1.0661 1.9994-1.0052 1.2546-1.0195 1.2328-0.24989-0.3831zm-119.17-1.371c0-1.3196 0.14107-1.8594 0.31349-1.1996s0.17242 1.7394 0 2.3992-0.31349 0.12-0.31349-1.1996zm162.3-1.371c-0.76937-1.5081-1.2446-2.742-1.0561-2.742s0.97223 1.2339 1.7416 2.742 1.2446 2.742 1.0561 2.742-0.97223-1.2339-1.7416-2.742zm9.9397 0c-0.5849-1.1311-0.90921-2.0565-0.7207-2.0565s0.82129 0.9254 1.4062 2.0565 0.90921 2.0565 0.7207 2.0565-0.8213-0.9254-1.4062-2.0565zm117.7-0.3428c0.014-1.131 0.1676-1.5107 0.3414-0.8438 0.1738 0.667 0.16238 1.5924-0.0254 2.0565-0.18774 0.4641-0.32994-0.082-0.31597-1.2127zm-235.12-0.6854c0.014-1.1311 0.1676-1.5108 0.3414-0.8439 0.1738 0.667 0.16237 1.5924-0.0254 2.0565-0.18778 0.4641-0.32998-0.082-0.31601-1.2126zm285.03 0.3427c0.40355-0.754 0.88796-1.371 1.0765-1.371 0.18851 0 0.0125 0.617-0.39099 1.371-0.40355 0.754-0.88797 1.371-1.0765 1.371s-0.0125-0.617 0.39099-1.371zm-276.78-1.371c0-1.3196 0.14108-1.8594 0.3135-1.1996s0.17242 1.7394 0 2.3992-0.3135 0.12-0.3135-1.1996zm75.588 0c0.5849-1.1311 1.2177-2.0565 1.4062-2.0565 0.18852 0-0.1358 0.9254-0.7207 2.0565-0.58489 1.1311-1.2177 2.0565-1.4062 2.0565s0.1358-0.9254 0.7207-2.0565zm-26.69-0.2009c0.25743-0.6761 0.64073-1.0565 0.85178-0.8455 0.21106 0.2111 4.4e-4 0.7642-0.46804 1.2292-0.677 0.672-0.75574 0.5932-0.38374-0.3837zm-111.38-0.4846c-0.02073-0.5655 0.26134-1.4909 0.62682-2.0565 0.80979-1.253 0.80979-0.1707 0 1.7138-0.38846 0.904-0.60197 1.0207-0.62682 0.3427zm149.38-2.0565c0.76937-1.5081 1.5531-2.7419 1.7416-2.7419s-0.28673 1.2338-1.0561 2.7419c-0.76938 1.5081-1.5531 2.742-1.7416 2.742-0.18851 0 0.28674-1.2339 1.0561-2.742zm-157.56 0.6855c0-0.9425 0.15559-1.3281 0.34575-0.8568 0.19016 0.4712 0.19016 1.2424 0 1.7137-0.19016 0.4713-0.34575 0.086-0.34575-0.8569zm128.82 0.2857c0.0329-0.7986 0.19533-0.961 0.41415-0.4142 0.19802 0.4948 0.17367 1.0861-0.0541 1.3139-0.22779 0.2277-0.38979-0.1771-0.36003-0.8997zm-8.2259-1.371c0.0329-0.7986 0.19533-0.961 0.41415-0.4142 0.19802 0.4949 0.17367 1.0861-0.0541 1.3139-0.22779 0.2278-0.3898-0.1771-0.36004-0.8997zm55.814-0.9712c-0.5849-1.131-0.90922-2.0564-0.7207-2.0564 0.18851 0 0.82129 0.9254 1.4062 2.0564 0.5849 1.1311 0.90921 2.0565 0.7207 2.0565s-0.8213-0.9254-1.4062-2.0565zm15.478 0.9712c0.0329-0.7986 0.19533-0.961 0.41415-0.4142 0.19802 0.4949 0.17367 1.0861-0.0541 1.3139-0.22778 0.2278-0.38979-0.1771-0.36003-0.8997zm106.25 0c0.0329-0.7986 0.19532-0.961 0.41414-0.4142 0.19802 0.4949 0.17367 1.0861-0.0541 1.3139-0.22778 0.2278-0.3898-0.1771-0.36004-0.8997zm-97.367 0.1944c-0.0552-1.1023 1.931-4.2894 3.5012-5.618l1.6125-1.3644-1.459 1.7088c-0.80246 0.9398-1.9469 2.6342-2.5432 3.7653-0.59627 1.1311-1.0965 1.8098-1.1116 1.5083zm106.22-0.2348c0-0.3678 0.47972-1.2675 1.0661-1.9993 1.0052-1.2547 1.0195-1.2328 0.24989 0.3831-0.99932 2.0983-1.316 2.4872-1.316 1.6162zm-246.96-2.4774-1.2095-2.2236 1.3809 1.6183c1.175 1.3771 1.803 2.8481 1.2095 2.8331-0.0943 0-0.71565-1.0049-1.3809-2.2278zm-50.545 0.9016c0-0.3548 0.30494-0.8335 0.67764-1.0638 0.38858-0.2402 0.5035 0.035 0.26941 0.645-0.45571 1.1876-0.94705 1.4048-0.94705 0.4188zm140.18-1.4114c0.5849-1.1311 1.2177-2.0565 1.4062-2.0565 0.18852 0-0.1358 0.9254-0.7207 2.0565-0.58489 1.131-1.2177 2.0564-1.4062 2.0564s0.1358-0.9254 0.7207-2.0564zm15.424-0.6855c-0.76938-1.5081-1.2446-2.742-1.0561-2.742s0.97223 1.2339 1.7416 2.742 1.2446 2.7419 1.0561 2.7419c-0.18852 0-0.97223-1.2338-1.7416-2.7419zm-44.503 0.2856c0.0329-0.7986 0.19533-0.961 0.41415-0.4142 0.19802 0.4949 0.17367 1.0861-0.0541 1.3139-0.22779 0.2278-0.3898-0.1771-0.36004-0.8997zm40.353-2.2704c1.3474-2.6412 2.7785-3.7165 2.7785-2.0877 0 0.3992-0.27267 0.5574-0.60594 0.3514-0.33326-0.2059-0.99038 0.5536-1.4602 1.688-0.46988 1.1344-1.1453 2.2424-1.501 2.4622s-6.8e-4 -0.8664 0.78868-2.4139zm-150.09 1.726c0-0.1424 0.53983-0.6822 1.1996-1.1997 1.0872-0.8526 1.1115-0.8284 0.25881 0.2589-0.89551 1.1418-1.4584 1.5049-1.4584 0.9408zm118.01-1.1122c0-0.9426 0.1556-1.3282 0.34576-0.8569s0.19016 1.2425 0 1.7138c-0.19016 0.4712-0.34576 0.086-0.34576-0.8569zm64.328 1.1084c0-0.7356 2.0396-4.5359 2.4344-4.5359 0.18851 0-0.16712 1.0025-0.79028 2.2279-1.2724 2.502-1.6442 3.0238-1.6442 2.308zm116.88-1.1084c0.6824-0.7541 1.395-1.371 1.5835-1.371s-0.21558 0.6169-0.89798 1.371c-0.68241 0.754-1.395 1.371-1.5835 1.371s0.21558-0.617 0.89798-1.371zm-242.22-1.1996c-0.74801-1.7481-0.73108-1.7884 0.23272-0.5545 0.57166 0.7318 1.0394 1.5801 1.0394 1.8851 0 1.0419-0.46499 0.5555-1.2721-1.3306zm-10.469 0c-0.85267-1.0873-0.82843-1.1115 0.25881-0.2588 1.1419 0.8955 1.505 1.4584 0.9408 1.4584-0.14235 0-0.68217-0.5398-1.1996-1.1996zm60.641-1.3586c-1.193-1.2321-1.9448-2.2403-1.6706-2.2403 0.63662 0 4.5234 4.0347 4.1325 4.2897-0.16103 0.105-1.2689-0.8172-2.4619-2.0494zm182.13 2.2032c-0.0239-0.8007 3.2707-5.8145 3.8208-5.8145 0.20059 0-0.2262 0.8483-0.94842 1.8851-0.72223 1.0369-1.6593 2.5021-2.0823 3.2561-0.42306 0.7541-0.77857 1.057-0.79004 0.6733zm-148.03-1.7015c0.99932-2.0983 1.316-2.4872 1.316-1.6163 0 0.3678-0.47973 1.2676-1.0661 1.9994-1.0052 1.2547-1.0195 1.2328-0.24989-0.3831zm54.099-0.3362c0-0.4691 4.1972-2.55 4.5108-2.2364 0.14874 0.1487-0.80534 0.7834-2.1202 1.4104s-2.3906 0.9987-2.3906 0.826zm-190.06-1.1198c0.46499-0.4685 1.0181-0.6791 1.2292-0.4681 0.21106 0.2111-0.16939 0.5944-0.84544 0.8518-0.97696 0.372-1.0557 0.2933-0.38374-0.3837zm298.68-0.2199c0.73185-0.5863 1.6316-1.0661 1.9994-1.0661 0.87095 0 0.48206 0.3167-1.6162 1.316-1.6159 0.7695-1.6378 0.7553-0.38311-0.2499zm44.52 0.1703c0.68389-0.3827 1.4999-0.431 1.8227-0.1078 0.32263 0.323-0.2321 0.6335-1.2383 0.693-1.5678 0.093-1.6496 0.011-0.58445-0.5852zm2.8199-0.5509c-0.23302-0.377-0.1741-0.6902 0.13091-0.696 0.30502-0.01 0.13606-0.2757-0.37547-0.5998-0.64835-0.4108-0.70025-0.7313-0.17137-1.0582 0.41727-0.2579 0.76848-0.065 0.78047 0.4285 0.0141 0.5817 0.35261 0.461 0.96244-0.3434 0.63909-0.8429 1.0936-0.9931 1.4178-0.4685 0.53744 0.8696-0.0589 1.6936-1.2596 1.7403-0.43986 0.017-0.72263 0.4028-0.62837 0.8569 0.20796 1.002-0.27536 1.0811-0.85687 0.1402zm-277.97-0.8568c5.7e-4 -0.2828 7.0188-0.4521 15.596-0.3762 15.773 0.1395 13.96 0.3911-5.1422 0.7137-5.7502 0.097-10.454-0.055-10.454-0.3375zm42.888-0.3132c-0.37201-0.977-0.29327-1.0557 0.38374-0.3838 0.46848 0.465 0.6791 1.0182 0.46804 1.2292-0.21106 0.2111-0.59436-0.1694-0.85178-0.8454zm69.884-0.4593c0.648-0.989 1.3078-1.7982 1.4662-1.7982 0.49587 0-1.1002 2.6419-1.8915 3.131-0.4141 0.2559-0.22273-0.3438 0.42527-1.3328zm-169.15 0.4321c4.2415-0.1203 11.182-0.1203 15.424 0 4.2415 0.1203 0.77118 0.2187-7.7118 0.2187-8.483 0-11.953-0.098-7.7118-0.2187zm142.41-1.5448c-0.5849-1.131-0.90921-2.0564-0.7207-2.0564s0.8213 0.9254 1.4062 2.0564c0.5849 1.1311 0.90922 2.0565 0.72071 2.0565-0.18852 0-0.8213-0.9254-1.4062-2.0565zm49.221 1.5446c4.0735-0.1214 10.551-0.1209 14.395 0 3.844 0.1219 0.51114 0.2212-7.4063 0.2207-7.9175-6e-4 -11.063-0.1004-6.9891-0.2218zm113.07 0c7.8232-0.11 14.224-0.4432 14.224-0.7406 0-0.2973 0.47764-1.1393 1.0614-1.8712 0.93752-1.1753 0.93546-1.0705-0.0176 0.8973l-1.079 2.2278-14.206-0.1567-14.206-0.1566zm-269.61-2.7428-2.3623-2.5706 2.5706 2.3624c2.3927 2.1988 2.8858 2.7788 2.3623 2.7788-0.11455 0-1.2713-1.1567-2.5706-2.5706zm293.13 1.6842c0.25743-0.676 0.64073-1.0565 0.85178-0.8454 0.21106 0.211 4.4e-4 0.7641-0.46804 1.2291-0.67701 0.672-0.75574 0.5933-0.38374-0.3837zm2.4878-1.3414c0.0393-3.8601-0.11424-4.7194-0.77077-4.3136-0.35097 0.2169-0.81871 0.1022-1.0394-0.255-0.22071-0.3571-0.10911-0.8299 0.24801-1.0506 0.35713-0.2207 0.84307-0.088 1.0799 0.2954 0.23681 0.3832 1.0475 0.6967 1.8016 0.6967 0.7541 0 1.1772 0.3135 0.94042 0.6967-0.23681 0.3831-0.65864 0.5557-0.9374 0.3834s-0.40382 1.0566-0.27791 2.7308c0.1259 1.6742-0.0627 3.044-0.41906 3.044-0.35639 0-0.63778-1.0025-0.62531-2.2278zm-117.01-0.5141c0.5849-1.1311 1.2177-2.0565 1.4062-2.0565 0.18852 0-0.1358 0.9254-0.7207 2.0565-0.58489 1.131-1.2177 2.0564-1.4062 2.0564s0.1358-0.9254 0.7207-2.0564zm-233.41-0.2344c0.94118-1.0714 2.3282-2.2659 3.0822-2.6545 1.4432-0.7436 1.401-0.6988-2.3967 2.5514l-2.3967 2.0512zm352.72-0.1465c0.11157-1.0164 0.55269-2.1948 0.98026-2.6187 0.57852-0.5735 0.68564-0.2598 0.41873 1.2265-0.47378 2.638-1.666 3.8245-1.399 1.3922zm-5.7566-0.3046c0-0.9426 0.1556-1.3282 0.34576-0.8569s0.19016 1.2425 0 1.7137c-0.19016 0.4713-0.34576 0.086-0.34576-0.8568zm-198.69-1.0782c0.58862-1.1585 1.5907-2.5383 2.2268-3.0663 0.6361-0.5279 0.33031 0.2577-0.67955 1.7458-2.3861 3.5161-2.8746 3.933-1.5472 1.3205zm-32.516-0.1215c-0.85266-1.0872-0.82842-1.1114 0.25882-0.2588 1.1419 0.8955 1.505 1.4585 0.9408 1.4585-0.14235 0-0.68217-0.5399-1.1996-1.1997zm76.863 0.9408c0-0.1423 0.53983-0.6821 1.1996-1.1996 1.0872-0.8526 1.1115-0.8284 0.25881 0.2588-0.8955 1.1419-1.4584 1.505-1.4584 0.9408zm162.88-1.5069c-0.57957-1.5103 0.057-2.1468 1.1019-1.1019 0.57484 0.5749 0.59803 1.0243 0.0796 1.5427-0.51844 0.5185-0.86265 0.39-1.1815-0.4408zm-306.15-0.9762c-1.3196-0.7225-2.1526-1.3265-1.8511-1.3423 0.72642-0.038 4.593 1.9724 4.593 2.3881 0 0.4487-0.0401 0.4334-2.742-1.0458zm109.99-0.046c-0.24852-0.4021-0.30483-0.8781-0.12514-1.0578 0.17968-0.1797 0.50936 0.1493 0.73262 0.7311 0.46352 1.2079 0.0685 1.4204-0.60748 0.3267zm76.441-0.4565 0.741-1.5304-16.984-0.1959-16.984-0.1959 17.309-0.1589c9.5198-0.087 17.309 0.091 17.309 0.3957 0 0.3049-0.47973 1.1532-1.0661 1.8851-1.0253 1.2798-1.0377 1.2721-0.32506-0.1997zm105.97 0.3011c0.25742-0.676 0.64072-1.0565 0.85178-0.8454 0.21105 0.2111 4.4e-4 0.7642-0.46804 1.2292-0.67701 0.672-0.75575 0.5932-0.38374-0.3838zm-142.97-1.17c0.56553-0.3655 1.491-0.6475 2.0565-0.6268 0.678 0.025 0.56124 0.2383-0.34274 0.6268-1.8845 0.8098-2.9668 0.8098-1.7137 0zm106.25 0c0.56554-0.3655 1.3367-0.6645 1.7137-0.6645s0.22279 0.299-0.34275 0.6645c-0.56553 0.3655-1.3367 0.6645-1.7137 0.6645s-0.22279-0.299 0.34274-0.6645zm47.642 0.1967c-2.2412-0.5391-2.4625-1.2201-0.41978-1.2922 1.1742-0.041 1.905 0.2874 1.905 0.8569 0 0.5083-0.0257 0.8883-0.0571 0.8446-0.0315-0.044-0.6741-0.2279-1.4281-0.4093zm-307.57-0.665c0.49484-0.198 1.0861-0.1736 1.3139 0.054 0.22779 0.2278-0.17708 0.3898-0.89971 0.3601-0.79856-0.033-0.96099-0.1953-0.41415-0.4142zm111.86-0.2172c-0.61783-0.3993-0.70238-0.6687-0.21184-0.675 0.44903-0.01 1.0071 0.298 1.2401 0.675 0.52598 0.8511 0.28867 0.8511-1.0282 0zm-137.96-0.5121c4.6185-0.1186 12.176-0.1186 16.795 0 4.6185 0.1186 0.83973 0.2157-8.3973 0.2157-9.237 0-13.016-0.097-8.3973-0.2157zm58.952-6e-4c5.7496-0.1147 15.158-0.1147 20.908 0 5.7496 0.1146 1.0454 0.2084-10.454 0.2084-11.499 0-16.203-0.094-10.454-0.2084zm239.58 5e-4c4.807-0.1178 12.673-0.1178 17.48 0s0.874 0.2142-8.74 0.2142-13.547-0.096-8.74-0.2142zm-163.45-0.6416c0.49484-0.198 1.0861-0.1736 1.3139 0.054 0.22779 0.2277-0.17709 0.3898-0.89971 0.36-0.79856-0.033-0.96099-0.1953-0.41415-0.4142z" fill="#fdfdfd"/>
  <path d="m99.069 1631.5c3.4874-0.1244 9.1942-0.1244 12.682 0s0.63408 0.2262-6.3408 0.2262c-6.9749 0-9.8283-0.1018-6.3408-0.2262zm52.088 0.027 3.5888-0.2722 0.19645-20.358 0.19645-20.358-0.0151 20.565-0.0151 20.565-3.7702 0.065-3.7702 0.065 3.5888-0.2722zm24.516-9.7982c-5.6459-5.6553-10.111-10.282-9.9225-10.282s4.9621 4.6271 10.608 10.282c5.6459 5.6554 10.111 10.282 9.9225 10.282s-4.9621-4.627-10.608-10.282zm12.682 9.8593c4.0336-0.5124 9.5987-0.5651 9.5978-0.091-5.2e-4 0.2828-2.5458 0.4679-5.6563 0.4114-3.1104-0.056-4.8842-0.2006-3.9416-0.3204zm12.338-0.091c-2.4e-4 -0.2827 1.6192-0.425 3.5988-0.3161 6.0341 0.3318 6.605 0.6386 1.3714 0.7369-2.7334 0.051-4.97-0.138-4.9702-0.4208zm55.288 0c-0.17531-0.2827 1.2717-0.426 3.2156-0.3182 6.3034 0.3493 7.0704 0.6247 2.0325 0.7296-2.7112 0.056-5.0728-0.1286-5.2481-0.4114zm35.369 0c3.676-0.1233 9.6912-0.1233 13.367 0 3.676 0.1232 0.66836 0.2241-6.6836 0.2241-7.3519 0-10.36-0.1009-6.6836-0.2241zm43.914 0c5.5841-0.1153 14.53-0.1151 19.879 6e-4 5.3495 0.1157 0.78066 0.2101-10.153 0.2097-10.934-3e-4 -15.31-0.095-9.7264-0.2103zm62.338 0c3.676-0.1233 9.6912-0.1233 13.367 0 3.676 0.1232 0.66836 0.2241-6.6836 0.2241-7.3519 0-10.36-0.1009-6.6836-0.2241zm-250.75-25.878c2.1e-4 -13.95 0.0916-19.559 0.20312-12.465 0.1115 7.0938 0.11133 18.507-3.8e-4 25.363-0.11172 6.856-0.20295 1.0519-0.20274-12.898zm174.11-1.0282c0-13.384 0.0918-18.86 0.20405-12.168 0.11223 6.6921 0.11223 17.643 0 24.335s-0.20405 1.2168-0.20405-12.168zm-243.03 20.736-1.6619-1.8851 1.8851 1.6618c1.7619 1.5533 2.1995 2.1084 1.6619 2.1084-0.12279 0-0.97109-0.8483-1.8851-1.8851zm191.27-0.6855-2.3623-2.5706 2.5706 2.3623c1.4138 1.2993 2.5706 2.4561 2.5706 2.5706 0 0.5235-0.58008 0.03-2.7789-2.3623zm106.59 0.3427-2.0134-2.2278 2.2279 2.0133c1.2253 1.1074 2.2278 2.1099 2.2278 2.2279 0 0.5296-0.56562 0.063-2.4424-2.0134zm-114.09-0.5141c-0.40355-0.754-0.5795-1.371-0.39099-1.371s0.67293 0.617 1.0765 1.371c0.40355 0.7541 0.5795 1.371 0.39099 1.371s-0.67293-0.6169-1.0765-1.371zm-76.624-4.9883c-2.3455-2.3665-4.2645-4.5258-4.2645-4.7984s1.311-0.4438 2.9134-0.3805l2.9134 0.1153-2.675 0.2751-2.675 0.2751 4.3689 4.4081c2.4029 2.4245 4.2147 4.4081 4.0262 4.4081s-2.2618-1.9362-4.6073-4.3028zm-86.352 3.1058c4.053-0.1212 10.685-0.1212 14.738 0 4.053 0.1212 0.7369 0.2204-7.3691 0.2204-8.106 0-11.422-0.099-7.3691-0.2204zm192.62-4e-4c4.43-0.1194 11.679-0.1194 16.109 0 4.43 0.1194 0.80546 0.2171-8.0546 0.2171s-12.485-0.098-8.0546-0.2171zm48.327-6e-4c5.3726-0.1158 14.164-0.1158 19.537 0s0.97683 0.2106-9.7683 0.2106-15.141-0.095-9.7683-0.2106zm57.924 6e-4c4.43-0.1194 11.679-0.1194 16.109 0 4.43 0.1194 0.80545 0.2171-8.0546 0.2171s-12.485-0.098-8.0546-0.2171zm-170.41-0.6877c-0.1758-0.2828 3.2763-0.4335 7.6714-0.3351 14.258 0.3195 15.78 0.5872 4.0898 0.7196-6.2929 0.071-11.585-0.1017-11.761-0.3845zm101.85-20.532-0.16094-21.389-4.2843-0.2434-4.2843-0.2433 4.3058-0.1321c2.934-0.09 4.4115 0.1432 4.6374 0.7319 0.18234 0.4751 0.24508 10.269 0.13943 21.764l-0.19211 20.9zm-244.97 17.79c-0.85267-1.0872-0.82842-1.1114 0.25881-0.2588 1.1419 0.8955 1.505 1.4585 0.9408 1.4585-0.14235 0-0.68217-0.5399-1.1996-1.1997zm297.21-1.0282-2.0134-2.2279 2.2279 2.0134c1.2253 1.1073 2.2278 2.1099 2.2278 2.2279 0 0.5295-0.56562 0.063-2.4424-2.0134zm-310.72-7.3691c0-0.9425 0.15559-1.3281 0.34575-0.8568 0.19016 0.4712 0.19016 1.2424 0 1.7137-0.19016 0.4713-0.34575 0.086-0.34575-0.8569zm70.631-1.7137c0.014-1.1311 0.1676-1.5108 0.3414-0.8438 0.1738 0.6669 0.16237 1.5924-0.0254 2.0565-0.18781 0.4641-0.33001-0.082-0.31604-1.2127zm21.08-0.8569-2.3623-2.5706 2.5706 2.3624c2.3927 2.1988 2.8858 2.7788 2.3623 2.7788-0.11456 0-1.2713-1.1567-2.5706-2.5706zm99.63-2.5706c5e-3 -1.8851 0.13827-2.5749 0.29584-1.5329 0.15756 1.042 0.15335 2.5843-9e-3 3.4275-0.16274 0.8431-0.29165-0.01-0.28651-1.8946zm8.2259 0c5e-3 -1.8851 0.13828-2.5749 0.29584-1.5329 0.15757 1.042 0.15336 2.5843-9e-3 3.4275-0.16274 0.8431-0.29166-0.01-0.28652-1.8946zm-191.98-0.3427c0-1.3196 0.14107-1.8594 0.31349-1.1996s0.17242 1.7394 0 2.3992-0.31349 0.12-0.31349-1.1996zm63.04-3.0847c0.014-1.1311 0.1676-1.5108 0.3414-0.8439 0.1738 0.667 0.16237 1.5924-0.0254 2.0565-0.18781 0.4641-0.33001-0.082-0.31604-1.2126zm-70.685-2.1136c0.03289-0.7986 0.19532-0.961 0.41415-0.4142 0.19802 0.4948 0.17367 1.0861-0.05412 1.3139-0.22778 0.2277-0.3898-0.1771-0.36004-0.8997zm128.87 0c0.0329-0.7986 0.19533-0.961 0.41415-0.4142 0.19802 0.4948 0.17367 1.0861-0.0541 1.3139-0.22779 0.2277-0.38979-0.1771-0.36003-0.8997zm-119.33-2.9872c0-0.3548 0.30494-0.8335 0.67764-1.0638 0.38858-0.2402 0.5035 0.035 0.26941 0.645-0.45571 1.1876-0.94705 1.4048-0.94705 0.4188zm119.33-3.1823c0.0329-0.7986 0.19533-0.961 0.41415-0.4141 0.19802 0.4948 0.17367 1.086-0.0541 1.3138-0.22779 0.2278-0.38979-0.1771-0.36003-0.8997zm-71.433-1.4852c-0.85267-1.0873-0.82843-1.1115 0.25881-0.2588 1.1419 0.8955 1.505 1.4584 0.9408 1.4584-0.14235 0-0.68217-0.5398-1.1996-1.1996zm94.686-0.8569c0.40355-0.754 0.88797-1.371 1.0765-1.371s0.0125 0.617-0.39099 1.371c-0.40355 0.754-0.88797 1.371-1.0765 1.371s-0.0125-0.617 0.39099-1.371zm10.01-0.7997c0.19418-0.3142 0.64332-0.5713 0.99809-0.5713s0.64504 0.2571 0.64504 0.5713c0 0.3141-0.44915 0.5712-0.99809 0.5712-0.54895 0-0.83921-0.2571-0.64504-0.5712zm197.7-0.8553c0.44394-0.4439 0.90747-0.4439 1.3514 0 0.44394 0.444 0.21218 0.6757-0.6757 0.6757s-1.1196-0.2317-0.6757-0.6757zm-338.77-1.5552c0.49484-0.1981 1.0861-0.1737 1.3139 0.054 0.22778 0.2278-0.17709 0.3898-0.89971 0.36-0.79856-0.033-0.96099-0.1953-0.41415-0.4141zm28.105 0c0.49485-0.1981 1.0861-0.1737 1.3139 0.054 0.22778 0.2278-0.17709 0.3898-0.89971 0.36-0.79856-0.033-0.961-0.1953-0.41416-0.4141zm163.83 0c0.49483-0.1981 1.0861-0.1737 1.3139 0.054 0.22779 0.2278-0.17709 0.3898-0.89971 0.36-0.79856-0.033-0.96099-0.1953-0.41415-0.4141zm106.25 0c0.49484-0.1981 1.0861-0.1737 1.3139 0.054 0.22778 0.2278-0.17709 0.3898-0.89971 0.36-0.79857-0.033-0.961-0.1953-0.41416-0.4141zm-255.97-2.4451-1.3059-1.5424 1.5424 1.3059c1.4494 1.2272 1.8544 1.7788 1.3059 1.7788-0.13008 0-0.82415-0.694-1.5424-1.5423zm300.65 0.8164c0-0.3993 0.30848-0.5353 0.6855-0.3023s0.68549 0.5597 0.68549 0.7259c0 0.1663-0.30847 0.3023-0.68549 0.3023s-0.6855-0.3266-0.6855-0.7259zm-356.11-1.3305c0.6824-0.7541 1.395-1.371 1.5835-1.371 0.18851 0-0.21558 0.6169-0.89798 1.371-0.6824 0.754-1.395 1.3709-1.5835 1.3709-0.18851 0 0.21558-0.6169 0.89798-1.3709zm353.2 0.3427c0.37222-0.754 0.53851-1.7566 0.36953-2.2279-0.16898-0.4712 9e-3 -0.8568 0.39602-0.8568 0.881 0 0.39876 2.7309-0.65688 3.7199-0.58601 0.549-0.6136 0.3877-0.10867-0.6352zm-2.5654-0.6855c0-0.5655 0.25706-1.0282 0.57124-1.0282 0.31419 0 0.57125 0.4627 0.57125 1.0282s-0.25706 1.0282-0.57125 1.0282c-0.31418 0-0.57124-0.4627-0.57124-1.0282zm0-2.285c0-0.3142 0.44914-0.5712 0.99809-0.5712s0.83921 0.257 0.64503 0.5712c-0.19417 0.3142-0.64331 0.5713-0.99808 0.5713s-0.64504-0.2571-0.64504-0.5713zm-200.85-1.0585c0-0.1424 0.53983-0.6822 1.1996-1.1996 1.0872-0.8527 1.1115-0.8285 0.25881 0.2588-0.89551 1.1418-1.4584 1.505-1.4584 0.9408zm201.3-1.6263c-0.1737-0.2828 0.56982-0.5465 1.6523-0.5861 1.0824-0.04 1.8051 0.1918 1.6059 0.5141-0.44654 0.7226-2.8262 0.7751-3.2582 0.072zm-331.41-0.6825c4.0321-0.121 10.818-0.1214 15.081-1e-3 4.2624 0.1205 0.96341 0.2195-7.3311 0.22s-11.782-0.098-7.7498-0.219zm58.305 0c5.5611-0.1153 14.661-0.1153 20.222 0 5.5611 0.1152 1.0111 0.2094-10.111 0.2094s-15.672-0.094-10.111-0.2094zm134.7 5e-4c4.6185-0.1186 12.176-0.1186 16.795 0 4.6185 0.1186 0.83973 0.2157-8.3973 0.2157s-13.016-0.097-8.3973-0.2157zm106.25 0c4.6185-0.1186 12.176-0.1186 16.795 0 4.6185 0.1186 0.83973 0.2157-8.3973 0.2157-9.237 0-13.016-0.097-8.3973-0.2157z" fill="#fcfcfc"/>
  <path d="m99.377 1631.5c3.2799-0.1254 8.8324-0.126 12.339 0 3.5065 0.1247 0.82299 0.2272-5.9634 0.228-6.7864 6e-4 -9.6554-0.1013-6.3755-0.2267zm50.085 0.018c1.042-0.1576 2.5844-0.1534 3.4275 0.01 0.84311 0.1627-9e-3 0.2916-1.8945 0.2865-1.8851-0.01-2.5749-0.1383-1.5329-0.2958zm38.892 0.069c4.0248-0.5112 9.4444-0.5651 9.1498-0.091-0.17563 0.2828-2.6918 0.4679-5.5915 0.4114-2.8997-0.056-4.5009-0.2006-3.5584-0.3204zm14.909-0.073c1.2253-0.1521 3.2304-0.1521 4.4557 0 1.2253 0.152 0.22279 0.2764-2.2278 0.2764s-3.4532-0.1244-2.2279-0.2764zm55.525 0c1.2253-0.1521 3.2304-0.1521 4.4557 0 1.2253 0.152 0.22279 0.2764-2.2279 0.2764-2.4506 0-3.4532-0.1244-2.2278-0.2764zm32.904-0.015c3.4874-0.1244 9.1942-0.1244 12.682 0s0.63408 0.2262-6.3408 0.2262-9.8283-0.1018-6.3408-0.2262zm43.913 0c5.3954-0.1159 14.033-0.1156 19.194 7e-4 5.1612 0.1163 0.74685 0.2111-9.8098 0.2108-10.557-4e-4 -14.779-0.096-9.3841-0.2115zm62.338 0c3.4874-0.1244 9.1942-0.1244 12.682 0 3.4874 0.1244 0.63408 0.2262-6.3408 0.2262-6.9749 0-9.8283-0.1018-6.3408-0.2262zm-136.19-23.881c0.0329-0.7986 0.19532-0.961 0.41415-0.4142 0.19801 0.4949 0.17367 1.0861-0.0541 1.3139-0.22778 0.2278-0.3898-0.1771-0.36003-0.8997zm0-4.113c0.0329-0.7985 0.19532-0.961 0.41415-0.4141 0.19801 0.4948 0.17367 1.086-0.0541 1.3138-0.22778 0.2278-0.3898-0.1771-0.36003-0.8997z" fill="#fbfbfb"/>
 </g>
 <g fill="#fff">
  <ellipse cx="584.99" cy="1025.3" rx="1.5" ry="1.25" opacity=".998" stroke="#fff" stroke-opacity=".57746" stroke-width="2.3"/>
  <path d="m736.71 1050.4c8.714 3.9287 16.825 8.5801 30.655 6.3699-1.7202-10.182-6.7387-14.868-11.545-19.906-13.361 5.2112-16.079 9.358-19.11 13.536z" stroke="#000" stroke-width="1.5925px"/>
  <rect x="2.6029" y="1474.4" width="874.97" height="31.927" stroke-width="1.7345"/>
  <g>
   <g stroke="#fff" stroke-opacity=".57746" stroke-width="3.9894">
    <ellipse cx="321.55" cy="1269.3" rx="2.5446" ry="2.2168" opacity=".998"/>
    <ellipse cx="578.53" cy="1211.9" rx="2.5446" ry="2.2168" opacity=".998"/>
    <ellipse cx="832.15" cy="1108.2" rx="2.5446" ry="2.2168" opacity=".998"/>
   </g>
   <path d="m-0.78992 1459.3c92.924-86.748 125.26-87.098 168.79-109.95 1.5872-4.8567 6.1684-13.47 11.875-31.922 23.841-25.923 54.734-31.475 80.579-30.149 12.494 13.054 33.08 22.168 33.08 22.168 202.58-40.82 322.72 4.5675 395.26 33.696 17.321-7.3166 14.315-7.5499 19.509-10.641 25.7 6.3805 35.182 11.624 44.955 20.807 1.4506 9.5592 11.784 24.842 5.0465 24.157 56.668 26.036 87.164 51.959 128.12 85.386l0.84821 69.165-902.49-11.528z" stroke="#000" stroke-opacity=".42723" stroke-width="1.7345"/>
  </g>
 </g>
 <g stroke="#000">
  <path d="m87.423 1392.8c-29.928-58.327-65.488-49.235-89.061-45.666l-6.7856 118.38z" fill="#ececec" stroke-opacity=".49765" stroke-width=".17345"/>
  <path d="m87.423 1392.8 80.579-43.45 11.875-31.922 8.0579-7.0937c-33.178-44.172-73.471-12.908-76.338 10.641-27.781-35.398-57.064-15.447-64.888-3.547-4.1323-14.738-9.0776-28.392-47.499-31.479l-0.84821 61.184c42.097-10.724 70.704 6.7553 89.061 45.666z" fill="#b3b3b3" stroke-opacity=".55869" stroke-width=".17345"/>
  <path d="m187.94 1310.3c8.0185-11.06 19.185-12.247 29.263-16.848-9.3393-11.375-15.971-27.09-41.562-12.414-12.049-42.643-44.665-36.994-64.888-10.197-11.203-10.626-16.162-27.483-50.892-14.631-11.243-48.058-43.616-40.534-60.647-34.139v63.844c33.757 1.6468 42.269 13.312 47.499 31.479 26.717-35.177 61.522-10.92 64.888 3.547 12.009-43.423 53.91-48.858 76.338-10.641z" fill="#1a1a1a" stroke-opacity=".53521" stroke-width="1.2142"/>
  <path d="m175.64 1281.1c20.742-19.04 38.694-0.2756 41.562 12.414-5.7813-11.933-22.977-27.676-41.562-8.8672 0.25034-49.737-58.236-47.635-64.888-10.197-0.7414-4.3219-9.092-37.365-47.689-21.821-11.243-48.059-41.495-36.544-61.919-35.469l-1.9306 4.9731c40.327-18.647 59.215 16.033 60.647 34.139 24.375-11.921 43.737 4.0061 51.975 19.412 10.107-34.773 53.049-35.561 63.805 5.4165z" fill="#fff" stroke-opacity=".53521" stroke-width="1.2142"/>
 </g>
 <path d="m877.07 1325.2-11.995 26.334c-58.952-32.646-96.202 15.674-106.76 25.981 49.557 23.347 89.623 53.781 128.12 85.386l0.83329-137.07z" fill="#ececec" stroke-width="0"/>
 <path d="m659.95 1330.2c-10.583-10.564 38.775-74.52 82.768-21.318 2.9397-11.951 40.991-39.393 70.173-8.7784 2.545-54.943 45.414-58.079 68.374-58.312l5.9976 84.02c-11.252-11.895-15.664 12.522-22.191 25.707-60.059-29.932-88.816 10.329-106.76 25.981 9.4865-1.5656-1.5057-15.025-5.0465-24.157-17.242-15.196-30.753-16.735-44.955-20.807l-19.509 10.641c5.998 2.6983 6.0854 2.7375-28.848-12.976z" fill="#b3b3b3" stroke="#000" stroke-width="1.7345px"/>
 <path d="m881.27 1241.8v-45.145l-2.9989 1.254c-22.024-17.688-65.476-28.811-82.168 32.605-22.7-3.3618-32.962 3.3926-50.98 25.708l-13.795-7.5242c5.7761-12.838 9.1618-27.758 5.398-48.907 29.498-10.218 23.023-27.958 13.195-46.399 13.595-19.981 1.187-18.215 0.59985-26.334l5.3978-5.0162-10.766-2.9514-2.4291 22.389-6.5975-3.1351 3.5986-19.437-9.5964-3.1351v8.1512c-13.741 3.5391-9.9894 12.303-13.795 18.81-22.999 17.994-12.824 22.648-17.393 33.232-45.781 8.6893-39.378 36.862-42.584 61.447-31.72 5.7549-39.635 21.465-47.982 36.994-12.163-6.5805-24.625-12.225-46.182 10.659-13.934-13.167-21.719-4.9031-31.188-2.5081-12.149-26.743-31.496-19.007-41.984-3.762-34.196-10.346-25.295 8.4614-35.387 14.421 87.016-4.0149 145.18 18.805 206.32 36.994-6.4255-30.378 49.544-62.609 82.768-21.318 17.38-21.151 36.996-35.521 70.173-8.7784 2.8189-48.271 32.254-58.117 68.374-58.312z" fill="#333" stroke="#000" stroke-opacity=".50704" stroke-width="1.7345px"/>
 <g fill="none">
  <g stroke-width="1.7345px">
   <path d="m453.63 1293.2c5.5432-9.9138 9.4341-27.185 35.387-14.421 14.038-26.338 40.87-11.769 41.984 3.762 11.728-8.4491 22.397-9.8109 31.188 2.5081 13.783-24.601 40.436-18.477 46.182-10.659 10.701-32.634 43.277-37.608 47.982-36.994 1.8102-5.8796-13.537-54.806 42.584-61.447 2.7726-10.919-5.8901-21.24 17.393-33.232-0.54233-14.331 5.3277-18.607 13.795-18.81v-8.1512" stroke="#fff"/>
   <path d="m755.91 1122-5.3978 5.0162c5.3708 7.3221 11.603 14.419-0.59985 26.334 25.789 38.671-7.785 44.072-13.195 46.399 7.8637 25.627 1.0524 37.093-5.398 48.907 6.4847 1.8508 10.693 4.4944 13.795 7.5242 8.3955-19.923 21.269-33.933 50.98-25.708 15.762-69.777 74.855-46.898 82.168-32.605" stroke="#fff"/>
   <path d="m748.17 1095.7s2.5446 0.4434 0 0z" stroke="#000"/>
   <path d="m744.36 1107.3 2.5446-0.8868z" stroke="#000"/>
  </g>
  <path d="m720.18 1109.9 47.075 11.084" stroke="#f9ffff" stroke-width="3.9894"/>
 </g>
 <path d="m742.72 1141.4-6.5975-3.1351 7.8106-40.781 5.0892 3.1036z" stroke="#000" stroke-width="1.7345px"/>
 <path d="m720.61 1105.5c2.4951-21.982 1.4623-44.588 23.326-71.825 9.5581 6.0643 19.737 10.398 32.656 7.0938-0.41731 26.625 2.0903 40.914-8.9061 75.815z" fill="#1a1a1a" stroke="#000" stroke-opacity=".16901" stroke-width="1.7345px"/>
 <g>
  <ellipse cx="753.69" cy="1068.5" rx="13.094" ry="13.467" stroke="#f9ffff" stroke-width="6.6998"/>
  <path d="m743.93 1033.7c9.2827 4.3751 17.924 9.5552 32.656 7.0938-1.8325-11.34-7.1785-16.558-12.299-22.168-14.233 5.8034-17.129 10.422-20.357 15.074z" fill="#fff" stroke="#000" stroke-width="1.7345px"/>
  <path d="m453.8 1292.4c6.2602-9.4091 7.556-28.922 35.386-14.421 18.703-27.681 42.991-10.379 41.984 3.7621 12.392-6.9658 19.553-13.384 31.188 2.5079 16.346-26.953 34.953-18.456 46.182-10.659 10.277-34.851 35.643-34.505 47.982-36.994 1.3863-7.2096-13.537-58.353 42.584-61.447 1.5003-18.9-5.8899-21.24 17.393-33.232-0.96628-17.878 5.3277-18.607 13.795-18.81v-8.1512" fill="none" stroke="#fff" stroke-width="1.7345px"/>
 </g>
 <text x="25.6758" y="978.40344" fill="#000000" font-family="Calibri" font-size="24px" font-weight="bold" letter-spacing="0px" word-spacing="0px" style="line-height:1.25" xml:space="preserve"><tspan x="25.6758" y="978.40344">Normalmente o processo de migração de </tspan><tspan x="25.6758" y="1009.2994">tecnologia demanda um longo tempo e </tspan><tspan x="25.6758" y="1040.1953">toda uma equipe focada na reescrita.</tspan><tspan x="25.6758" y="1071.0912">Neste caso de migração é, em sua</tspan><tspan x="25.6758" y="1101.9872">maioria, automatizada, epnas com uma </tspan><tspan x="25.6758" y="1132.8831">pequena interferência humana para</tspan><tspan x="25.6758" y="1163.7791">certificar que todos os sistemas se </tspan><tspan x="25.6758" y="1194.6749">encontram totalmente aptos para uso em</tspan><tspan x="25.6758" y="1225.5709">produção. Assim, o processo de migração</tspan><tspan x="25.6758" y="1256.4668">se torna mais ágil.</tspan></text>
 <g fill="#fff">
  <g stroke="#fff" stroke-opacity=".57746">
   <g stroke-width="2.3">
    <ellipse cx="6.9788" cy="1074.8" rx="1.5" ry="1.25" opacity=".998"/>
    <ellipse cx="407.48" cy="1090.8" rx="1.5" ry="1.25" opacity=".998"/>
    <ellipse cx="327.79" cy="1201.6" rx="1.5" ry="1.25" opacity=".998"/>
    <ellipse cx="265.47" cy="1201.6" rx="1.5" ry="1.25" opacity=".998"/>
   </g>
   <ellipse cx="234.58" cy="1261.8" rx="1.4861" ry="1.2397" opacity=".998" stroke-width="2.2799"/>
   <ellipse cx="39.338" cy="883.38" rx="1.4861" ry="1.2397" opacity=".998" stroke-width="2.2799"/>
  </g>
  <rect x="-1.6211" y="877.82" width="436.25" height="57.486" stroke-width="1.3525"/>
  <rect x="-1.3212" y="948.41" width="434.95" height="316.79" stroke-width="3.1702"/>
 </g>
 <text x="24.776066" y="921.41132" fill="#000000" font-family="sans-serif" font-size="34.667px" letter-spacing="0px" word-spacing="0px" style="line-height:1.25" xml:space="preserve"><tspan x="24.776066" y="921.41132" font-family="Impact">Mais Rápido para Migrar</tspan></text>
 <text x="20.55275" y="977.62244" fill="#000000" font-family="Calibri" font-size="24px" letter-spacing="0px" word-spacing="0px" style="line-height:1.25" xml:space="preserve"><tspan x="20.55275" y="977.62244">Normalmente o processo de migração de </tspan><tspan x="20.55275" y="1008.5184">tecnologia demanda um longo tempo e </tspan><tspan x="20.55275" y="1039.4143">toda uma equipe focada na reescrita. </tspan><tspan x="20.55275" y="1070.3102">Neste caso de migração é, em sua </tspan><tspan x="20.55275" y="1101.2062">maioria, automatizada, apenas com uma </tspan><tspan x="20.55275" y="1132.1021">pequena interferência humana para </tspan><tspan x="20.55275" y="1162.998">certificar que todos os sistemas se </tspan><tspan x="20.55275" y="1193.8939">encontram totalmente aptos para uso em </tspan><tspan x="20.55275" y="1224.7899">produção. Assim, o processo de migração </tspan><tspan x="20.55275" y="1255.6858">se torna mais ágil.</tspan></text>
 <g fill="#fff" stroke="#fff" stroke-opacity=".57746">
  <ellipse cx="18.562" cy="1170.1" rx="1.5" ry="1.25" opacity=".998" stroke-width="2.3"/>
  <g stroke-width="3.6627">
   <ellipse cx="36.131" cy="1107.6" rx="2.3887" ry="1.9906" opacity=".998"/>
   <ellipse cx="186.62" cy="1122.3" rx="2.3887" ry="1.9906" opacity=".998"/>
   <ellipse cx="398.42" cy="1150.2" rx="2.3887" ry="1.9906" opacity=".998"/>
  </g>
  <g stroke-width="2.3">
   <ellipse cx="773.35" cy="948.06" rx="1.5" ry="1.25" opacity=".998"/>
   <ellipse cx="475.46" cy="163.26" rx="1.5" ry="1.25" opacity=".998"/>
   <ellipse cx="675.96" cy="57.285" rx="1.5" ry="1.25" opacity=".998"/>
   <ellipse cx="644.46" cy="249.19" rx="1.5" ry="1.25" opacity=".998"/>
   <ellipse cx="830.63" cy="168.99" rx="1.5" ry="1.25" opacity=".998"/>
   <ellipse cx="784.8" cy="45.828" rx="1.5" ry="1.25" opacity=".998"/>
   <ellipse cx="375.22" cy="45.828" rx="1.5" ry="1.25" opacity=".998"/>
   <ellipse cx="830.63" cy="295.02" rx="1.5" ry="1.25" opacity=".998"/>
   <ellipse cx="506.97" cy="939.47" rx="1.5" ry="1.25" opacity=".998"/>
  </g>
 </g>
</svg>
