<?xml version="1.0" encoding="UTF-8" standalone="no"?>
<!-- Created with Inkscape (http://www.inkscape.org/) -->

<svg
   xmlns:dc="http://purl.org/dc/elements/1.1/"
   xmlns:cc="http://creativecommons.org/ns#"
   xmlns:rdf="http://www.w3.org/1999/02/22-rdf-syntax-ns#"
   xmlns:svg="http://www.w3.org/2000/svg"
   xmlns="http://www.w3.org/2000/svg"
   xmlns:sodipodi="http://sodipodi.sourceforge.net/DTD/sodipodi-0.dtd"
   xmlns:inkscape="http://www.inkscape.org/namespaces/inkscape"
   width="455px"
   height="370px"
   viewBox="0 0 455 370"
   version="1.1"
   id="SVGRoot"
   sodipodi:docname="home-title.svg"
   inkscape:version="0.92.1 r15371">
  <sodipodi:namedview
     id="base"
     pagecolor="#ffffff"
     bordercolor="#666666"
     borderopacity="1.0"
     inkscape:pageopacity="0.0"
     inkscape:pageshadow="2"
     inkscape:zoom="1.4135135"
     inkscape:cx="227.5"
     inkscape:cy="185"
     inkscape:document-units="px"
     inkscape:current-layer="layer1"
     showgrid="false"
     inkscape:window-width="1366"
     inkscape:window-height="706"
     inkscape:window-x="-8"
     inkscape:window-y="-8"
     inkscape:window-maximized="1" />
  <defs
     id="defs3740" />
  <metadata
     id="metadata3743">
    <rdf:RDF>
      <cc:Work
         rdf:about="">
        <dc:format>image/svg+xml</dc:format>
        <dc:type
           rdf:resource="http://purl.org/dc/dcmitype/StillImage" />
        <dc:title></dc:title>
      </cc:Work>
    </rdf:RDF>
  </metadata>
  <g
     id="layer1"
     inkscape:groupmode="layer"
     inkscape:label="Camada 1">
    <path
       style="fill:#000000;stroke-width:0.92839611"
       d="M 5.5581211,276.63951 V 228.07523 H 29.378086 53.198052 l 0.59726,2.81708 c 0.328493,1.54939 0.460636,5.93754 0.293652,9.75143 l -0.303608,6.93436 -9.695166,0.24808 -9.695166,0.24809 v 9.06995 9.06995 h 8.452196 8.452196 v 9.10134 9.10134 h -8.433869 -8.433869 l -0.266921,20.15297 -0.266921,20.15296 -14.169857,0.24051 -14.1698579,0.24049 z m 69.0681629,47.43318 c -0.261656,-0.59592 -0.35948,-22.34162 -0.217385,-48.32378 l 0.258353,-47.24029 21.876271,0.22266 c 24.939797,0.25383 29.981777,1.05919 35.015847,5.59309 4.74977,4.27786 6.47323,8.71971 7.01409,18.07732 0.80054,13.85028 -2.24128,19.83433 -10.84466,21.33424 l -3.11217,0.54257 2.86784,1.27158 c 4.27127,1.89386 8.40749,5.47779 9.95094,8.62223 1.02429,2.08678 1.36909,7.59882 1.36909,21.88656 v 19.09731 h -13.42407 -13.42408 v -19.7434 c 0,-21.98212 -0.412,-23.59631 -6.02264,-23.59631 h -2.92674 v 21.66986 21.66985 H 89.054495 c -10.245333,0 -14.078874,-0.28788 -14.428211,-1.08349 z m 35.782126,-59.78498 c 1.09257,-1.35973 1.54794,-3.99762 1.54794,-8.96699 0,-7.66452 -1.06623,-9.4598 -5.96626,-10.04574 l -2.48594,-0.29727 -0.2792,10.61823 -0.2792,10.61823 h 2.95736 c 1.92879,0 3.49572,-0.67001 4.5053,-1.92646 z m 53.25549,12.31231 v -48.55617 l 23.61643,0.23239 23.61643,0.23238 0.28116,9.75144 0.28116,9.75143 h -9.47914 -9.47914 v 9.10134 9.10134 h 8.94939 8.94938 v 9.10134 9.10134 h -8.94938 -8.94939 v 10.30879 c 0,8.60067 0.26063,10.39598 1.5729,10.83493 0.86509,0.28938 5.56351,0.52614 10.44095,0.52614 h 8.86805 v 9.53473 9.53474 h -24.8594 -24.8594 z m 72.05129,47.47267 c -0.26166,-0.59592 -0.35948,-22.34162 -0.21738,-48.32378 l 0.25835,-47.24029 h 11.87735 11.87735 l 7.55341,20.36967 c 5.13611,13.85081 7.77914,19.86153 8.25877,18.78188 0.38793,-0.87328 0.70535,-10.14952 0.70535,-20.61387 v -19.02609 l 11.68391,0.2442 11.68392,0.24421 0.25696,48.34973 0.25696,48.34974 -12.65471,-0.24266 -12.65471,-0.24265 -6.99258,-20.14522 c -3.84592,-11.07987 -7.32818,-20.1487 -7.73836,-20.15297 -0.41018,-0.004 -0.74578,9.15861 -0.74578,20.36193 v 20.36966 h -11.46653 c -8.25658,0 -11.59972,-0.30332 -11.94228,-1.08349 z m 101.63305,0.50563 c -0.36461,-0.31782 -0.66292,-17.67538 -0.66292,-38.57235 v -37.99448 l -6.21485,-0.0118 c -11.18201,-0.0213 -10.79786,0.35582 -10.47332,-10.28148 l 0.28097,-9.20961 31.07425,-0.22905 31.07425,-0.22904 v 9.98048 9.98048 h -8.4522 -8.45219 v 38.57235 38.57234 h -13.75554 c -7.56555,0 -14.05385,-0.26004 -14.41845,-0.57786 z m 65.96027,-47.9783 v -48.55617 l 23.61643,0.23239 23.61643,0.23238 0.28116,9.75144 0.28116,9.75143 h -9.47914 -9.47913 v 9.10134 9.10134 h 8.94938 8.94938 v 9.10134 9.10134 h -8.94938 -8.94938 v 10.30879 c 0,8.60067 0.26062,10.39598 1.57289,10.83493 0.86509,0.28938 5.56351,0.52614 10.44095,0.52614 h 8.86805 v 9.53473 9.53474 h -24.8594 -24.8594 z M 9.8452411,221.18272 c -3.1631207,-1.68123 -5.263441,-5.77044 -5.2759504,-10.27198 -0.00518,-1.86328 0.3405614,-1.97821 5.2149284,-1.73359 l 5.2204739,0.262 0.497188,3.46718 c 0.659249,4.59733 3.352451,4.80504 3.783797,0.29183 0.267108,-2.79477 -0.144871,-3.47006 -3.437287,-5.63416 -2.057423,-1.35236 -5.438142,-3.87565 -7.5127079,-5.60732 -3.2850541,-2.7421 -3.771938,-3.65787 -3.771938,-7.09463 0,-5.69419 1.4442378,-8.28308 5.430805,-9.73507 7.4371759,-2.70874 16.4370399,-0.67896 18.3649879,4.14198 0.584984,1.46278 1.063607,3.59692 1.063607,4.74254 0,1.96791 -0.287983,2.06847 -5.214979,1.82094 -4.930813,-0.24772 -5.242903,-0.40369 -5.727428,-2.86238 -0.674938,-3.42492 -2.400468,-3.33064 -2.787758,0.15233 -0.271285,2.43971 0.294059,3.14113 4.97188,6.16865 7.371853,4.7711 8.660448,6.25015 9.36851,10.75324 0.885486,5.63144 -0.925648,9.75142 -5.033702,11.45071 -4.561492,1.88685 -11.277302,1.74847 -15.1544269,-0.31227 z m 237.8434289,0.91913 c -3.67589,-1.39802 -5.74742,-4.30496 -6.23777,-8.75335 l -0.4787,-4.34275 h 5.09839 c 4.97021,0 5.0984,0.0636 5.0984,2.52949 0,4.9984 3.07716,7.37634 4.49747,3.47552 1.24892,-3.43014 -0.43282,-5.88882 -6.47404,-9.46497 -3.26195,-1.93094 -6.38901,-4.25708 -6.94901,-5.1692 -1.31838,-2.14735 -1.31471,-10.07131 0.006,-12.22191 2.72563,-4.43946 13.1579,-5.70843 18.96521,-2.30691 2.93257,1.7177 3.4188,2.51899 3.68185,6.06756 l 0.30307,4.08851 h -4.96335 c -4.84659,0 -4.9707,-0.0647 -5.27496,-2.75033 -0.36442,-3.21653 -2.34181,-4.20081 -3.27735,-1.63136 -1.08112,2.96927 0.32656,4.98204 5.51343,7.88341 7.59166,4.2465 8.88765,6.13242 8.88765,12.93317 0,7.6308 -2.25087,9.7667 -10.70317,10.15646 -3.13722,0.14467 -6.59898,-0.0773 -7.69279,-0.49334 z m 44.64748,-2.17449 -3.38088,-2.9471 v -13.50831 -13.50832 l 2.79359,-2.72542 c 2.2469,-2.19207 3.77144,-2.80732 7.79034,-3.14394 8.6553,-0.72496 13.96465,2.8647 14.94862,10.10679 l 0.61175,4.50254 -5.35313,-0.26638 -5.35313,-0.2664 -0.61007,-3.29455 c -0.70951,-3.83155 -2.51651,-5.94259 -3.38941,-3.9597 -0.30754,0.69859 -0.43407,6.7122 -0.28119,13.36356 0.23131,10.06411 0.52824,12.09337 1.76952,12.09337 2.23963,0 2.60548,-7.07061 0.47217,-9.12543 -0.90247,-0.86928 -1.48515,-2.29213 -1.29482,-3.16189 0.28716,-1.31237 1.48608,-1.62498 7.04778,-1.83769 l 6.70176,-0.2563 v 10.00774 10.00774 h -3.42163 c -1.88189,0 -3.70114,-0.39425 -4.04278,-0.87609 -0.39318,-0.55455 -1.40831,-0.39548 -2.76588,0.4334 -3.75402,2.29204 -8.45608,1.66308 -12.24261,-1.63762 z m 29.81204,1.34292 c -4.60079,-2.52121 -5.35039,-5.59345 -5.35039,-21.92861 v -14.60616 h 5.40631 5.40629 l 0.31137,15.53226 c 0.17124,8.54274 0.61719,15.79786 0.99098,16.12249 2.20569,1.91558 2.80069,-1.5056 2.80069,-16.10361 v -15.55114 h 5.46907 5.46907 v 16.02202 16.02202 l -2.83532,2.76613 c -2.4677,2.40748 -3.59579,2.8088 -8.70079,3.09525 -4.57034,0.25645 -6.55037,-0.0462 -8.96728,-1.37065 z M 31.411897,203.37159 v -18.63608 h 9.446571 9.446572 v 3.46718 c 0,3.38462 -0.08286,3.46718 -3.480316,3.46718 -3.454539,0 -3.480316,0.0285 -3.480316,3.84565 0,3.70511 0.118109,3.85559 3.231722,4.11727 2.950415,0.24798 3.258586,0.55456 3.540342,3.5221 0.303622,3.19784 0.251287,3.25048 -3.231722,3.25048 h -3.540342 v 4.33397 4.33397 h 3.977504 3.977504 v 3.46718 3.46718 h -9.94376 -9.943759 z M 60.2488,203.29039 V 184.5731 l 10.03308,0.29791 c 12.963292,0.38493 13.831943,1.10889 13.831943,11.52793 0,8.40941 -1.214622,9.94794 -8.411844,10.65509 l -4.515043,0.44361 v 7.25502 7.25503 H 65.717868 60.2488 v -18.71731 z m 14.731552,-7.20809 c 0.197401,-2.40035 -0.1525,-4.05802 -0.946899,-4.486 -2.128645,-1.14679 -2.846517,-0.006 -2.846517,4.52227 0,3.67115 0.270338,4.30168 1.740158,4.05864 1.281419,-0.21188 1.822697,-1.29138 2.053258,-4.09492 z m 11.122223,7.25678 v -18.6686 l 9.197978,0.24922 9.197977,0.24923 0.30485,3.19523 c 0.29857,3.12951 0.22697,3.20083 -3.48032,3.46718 -3.701107,0.2659 -3.785161,0.34893 -3.785161,3.73912 0,3.27811 0.176229,3.48199 3.231721,3.7388 3.04599,0.25601 3.23172,0.46772 3.23172,3.68387 0,3.33188 -0.0832,3.41226 -3.5348,3.41226 h -3.534795 l 0.303077,4.11727 c 0.300156,4.07759 0.339025,4.11987 4.031988,4.3863 3.62573,0.26158 3.72891,0.36351 3.72891,3.68388 v 3.41485 h -9.446573 -9.446572 z m 20.881895,-0.0487 v -18.7173 l 9.91814,0.29792 c 8.61791,0.25887 10.20342,0.54684 12.09439,2.19671 4.01428,3.50243 3.53653,15.0037 -0.62323,15.0037 -0.93934,0 -0.59508,0.71158 1.02935,2.12759 2.23164,1.9453 2.44075,2.79932 2.44075,9.96814 v 7.84054 h -4.97188 -4.97188 v -6.86346 c 0,-7.61201 -0.53803,-9.60561 -2.59233,-9.60561 -1.08678,0 -1.38517,1.7739 -1.38517,8.23454 v 8.23455 h -5.46907 -5.46907 v -18.71731 z m 14.91564,-7.44965 c 0,-2.11677 -1.74991,-5.03763 -3.01811,-5.03763 -1.06679,0 -1.3379,7.18228 -0.3051,8.08257 1.03666,0.90365 3.32321,-1.19141 3.32321,-3.04492 z m 12.54728,25.46599 c -0.41062,-0.57916 -0.29377,-15.14436 0.26383,-32.88732 l 0.11578,-3.68386 h 6.85424 c 7.81528,0 7.5533,-0.2469 8.57672,8.0835 0.39091,3.18186 1.05452,5.78521 1.47469,5.78521 0.42019,0 1.07243,-2.24283 1.44943,-4.98406 1.28284,-9.32759 0.85404,-8.88465 8.60087,-8.88465 h 6.85283 v 18.63608 18.63608 h -4.34676 -4.34676 l -0.75628,-9.75144 c -0.41596,-5.36329 -0.88753,-9.36138 -1.04794,-8.88464 -0.1604,0.47674 -0.82584,4.88566 -1.47875,9.79761 l -1.1871,8.93081 -3.60708,-0.26287 -3.60707,-0.26287 -1.55372,-8.86355 c -0.85453,-4.87495 -1.86291,-9.13308 -2.24082,-9.4625 -0.37792,-0.32943 -0.68712,3.75669 -0.68712,9.08024 v 9.67921 h -4.416 c -2.4288,0 -4.63965,-0.31544 -4.91299,-0.70096 z m 37.17152,-17.9351 v -18.63608 h 5.38621 c 3.37855,0 5.57315,0.40386 5.88775,1.0835 0.40124,0.86679 0.51724,0.86679 0.58005,0 0.0584,-0.80536 3.26922,-1.0835 12.5082,-1.0835 h 12.4297 v 3.41226 c 0,3.21615 -0.18573,3.42787 -3.23172,3.68388 l -3.23172,0.27162 -0.27207,14.9522 -0.27209,14.9522 h -5.4221 -5.4221 l -0.27208,-14.9522 -0.27207,-14.9522 h -3.48032 -3.48032 l -0.27207,14.9522 -0.27208,14.9522 h -5.44558 -5.44559 z m 35.25413,15.819 c 0.29759,-1.5494 1.45343,-8.86298 2.56851,-16.2524 3.08007,-20.41097 1.75021,-18.20268 10.96184,-18.20268 7.34381,0 7.88822,0.12741 8.33408,1.95029 0.26235,1.07266 1.62317,8.77629 3.02401,17.11919 1.40085,8.34289 2.71898,15.8515 2.92916,16.68579 0.33029,1.31104 -0.41487,1.51689 -5.49102,1.51689 h -5.87316 v -3.03378 c 0,-2.65818 -0.30778,-3.03378 -2.48594,-3.03378 -2.17816,0 -2.48594,0.3756 -2.48594,3.03378 v 3.03378 h -6.01131 -6.01132 z m 15.109,-14.73551 c -0.34488,-2.50287 -0.63094,-5.49331 -0.63569,-6.64542 -0.0156,-3.79231 -1.19002,-1.1558 -1.96958,4.42178 -0.84164,6.02181 -0.65714,6.77431 1.66095,6.77431 1.31234,0 1.46801,-0.75016 0.94432,-4.55067 z m 46.09134,-1.08349 v -18.63608 h 9.44657 9.44657 v 3.41485 c 0,3.32037 -0.10317,3.42231 -3.72891,3.68388 -3.63604,0.26232 -3.72891,0.35538 -3.72891,3.7362 0,3.27811 0.17624,3.48199 3.23172,3.7388 3.046,0.25601 3.23173,0.46772 3.23173,3.68387 0,3.33188 -0.0832,3.41226 -3.5348,3.41226 h -3.5348 l 0.30308,4.11727 c 0.29528,4.01134 0.3924,4.12467 3.7747,4.40449 3.93193,0.3253 4.94353,1.28219 4.96534,4.69685 l 0.0152,2.38369 h -9.94376 -9.94376 z m 77.56133,0 v -18.63608 h 5.46906 5.46907 v 18.63608 18.63608 h -5.46907 -5.46906 z m 13.92126,0 v -18.63608 h 8.38746 c 4.61311,0 9.55691,0.38758 10.98623,0.86129 5.49153,1.81999 7.20446,12.46325 2.53616,15.7584 -1.67169,1.17998 -1.81021,1.60747 -0.70499,2.17585 2.64059,1.35794 3.65454,4.5445 3.65454,11.48528 v 6.99134 h -5.43175 -5.43176 l -0.2859,-7.94774 c -0.19433,-5.40192 -0.68406,-8.06273 -1.52888,-8.30677 -0.93657,-0.27054 -1.24297,1.68868 -1.24297,7.94773 v 8.30678 h -5.46907 -5.46907 z m 13.42407,-8.23454 c 0,-2.23441 -0.50356,-3.90243 -1.24296,-4.11728 -0.88746,-0.25786 -1.24297,0.91977 -1.24297,4.11728 0,3.1975 0.35551,4.37513 1.24297,4.11727 0.7394,-0.21485 1.24296,-1.88287 1.24296,-4.11727 z m 20.38471,8.23454 v -18.63608 h 9.44657 9.44658 v 3.46718 c 0,3.38462 -0.0828,3.46718 -3.48032,3.46718 -3.45454,0 -3.48032,0.0285 -3.48032,3.84565 0,3.70511 0.11812,3.85559 3.23173,4.11727 2.95041,0.24798 3.25859,0.55456 3.54034,3.5221 0.30442,3.2063 0.25976,3.25048 -3.28621,3.25048 h -3.59482 l 0.30308,4.11727 c 0.30015,4.07759 0.33902,4.11987 4.03198,4.3863 3.62574,0.26158 3.72891,0.36351 3.72891,3.68388 v 3.41485 h -9.94376 -9.94376 z m 20.8819,0 v -18.63608 h 7.3788 c 8.37829,0 7.73553,-0.69381 9.11554,9.83983 0.83573,6.37916 2.0373,4.94647 2.94675,-3.51355 l 0.68009,-6.32628 h 7.34099 7.34099 v 18.63608 18.63608 h -4.38543 -4.38543 l -0.63469,-7.58445 c -0.34907,-4.17145 -0.73317,-8.5596 -0.85353,-9.75144 -0.12037,-1.19184 -0.84882,2.22116 -1.61878,7.58445 l -1.39994,9.75144 h -3.61186 -3.61186 l -1.26225,-7.77406 c -2.11451,-13.02304 -2.91572,-13.66471 -3.01017,-2.41078 l -0.0855,10.18484 h -4.97188 -4.97188 z M 26.655762,177.74608 C 15.848682,176.08861 8.7685131,170.84434 6.3671338,162.71833 5.4325592,159.55583 5.0609331,151.02327 5.0609331,132.72786 c 0,-28.12038 0.096544,-28.65163 6.3318139,-34.842058 5.052447,-5.016108 11.855847,-7.133344 23.002277,-7.158371 8.098083,-0.01819 10.228524,0.297271 14.92438,2.209856 6.44282,2.62411 10.853469,6.413149 12.75099,10.953953 0.750686,1.79641 1.603275,8.04439 1.894644,13.88442 l 0.529763,10.61823 H 51.930853 39.366904 v -9.47831 c 0,-11.94965 -0.826678,-14.13287 -5.211527,-13.7634 -3.091938,0.26053 -3.257208,0.46702 -4.033057,5.03903 -0.44495,2.62205 -0.672423,15.14207 -0.505494,27.82226 0.329044,24.99476 0.607658,26.26479 5.648136,25.74611 3.241,-0.33351 3.875753,-2.33352 4.002823,-12.61234 l 0.09912,-8.01785 h 12.57867 12.578668 l -0.579431,9.57432 c -0.676649,11.1807 -2.666985,15.75368 -8.656335,19.88871 -6.92518,4.78112 -18.029664,6.77984 -28.632714,5.15366 z m 388.506158,0.0755 c -8.68948,-1.33808 -15.39948,-5.53239 -19.4463,-12.15553 -1.66376,-2.72296 -1.88725,-5.65354 -2.18137,-28.60421 -0.21658,-16.90104 0.0549,-27.09158 0.80067,-30.05709 1.60601,-6.38601 5.70037,-10.871966 12.6301,-13.838091 5.18017,-2.217262 6.78512,-2.47247 15.23664,-2.422833 11.56833,0.06794 16.66395,1.804903 22.63136,7.71443 5.99721,5.939034 6.41999,8.642904 6.03604,38.603584 -0.31083,24.25535 -0.43807,25.74875 -2.47397,29.03761 -2.83939,4.58686 -6.80547,7.76582 -12.27217,9.83661 -5.32982,2.01895 -14.65018,2.85736 -20.961,1.88554 z m 9.98788,-15.56574 c 1.54588,-2.51787 1.39328,-54.86785 -0.16389,-56.22523 -1.7048,-1.48607 -5.44683,-1.28498 -6.15818,0.33093 -0.33197,0.75409 -0.60358,13.54798 -0.60358,28.43085 0,19.89076 0.31613,27.33534 1.19325,28.09992 1.79173,1.56184 4.57228,1.25312 5.7324,-0.63645 z M 69.81699,176.32896 c -1.598336,-0.36907 -1.785508,-1.01165 -1.300139,-4.46354 0.311847,-2.21781 2.632013,-17.6844 5.155923,-34.37019 2.523911,-16.68579 5.082771,-33.7508 5.686357,-37.922254 l 1.097427,-7.58445 h 18.156831 18.156821 l 0.57866,2.383684 c 0.31827,1.311027 1.90037,10.37987 3.5158,20.15297 1.61542,9.77311 4.52286,26.84773 6.46097,37.94362 1.93812,11.09588 3.52385,21.13986 3.52385,22.31995 v 2.14562 l -11.18673,-0.0133 c -6.1527,-0.007 -11.80042,-0.35215 -12.55049,-0.76633 -0.83162,-0.45921 -1.68373,-3.41354 -2.18374,-7.57118 -0.45097,-3.74996 -0.84409,-6.91563 -0.87357,-7.03481 -0.0295,-0.11919 -1.99931,-0.2167 -4.377381,-0.2167 h -4.323765 l -0.896709,7.58445 -0.89671,7.58445 -10.938136,0.12957 c -6.015974,0.0713 -11.778345,-0.0645 -12.805269,-0.30158 z m 33.51636,-31.46598 c -0.094,-0.71511 -0.96454,-8.1262 -1.93465,-16.46909 -1.975551,-16.98958 -2.047471,-16.92608 -4.848058,4.28006 -0.885903,6.7081 -1.320216,12.60629 -0.96514,13.1071 1.027386,1.44906 7.951038,0.62865 7.747848,-0.91807 z m 34.22818,31.48897 c -1.62684,-0.38469 -1.74016,-3.14497 -1.74016,-42.38745 V 91.988526 h 15.85133 c 8.71823,0 16.06689,0.304029 16.33035,0.675619 0.26346,0.371591 1.66499,8.075225 3.11452,17.119195 2.63072,16.41361 3.39366,19.81335 4.07916,18.17715 0.34928,-0.83367 5.37156,-33.799879 5.37156,-35.258853 0,-0.392211 7.38324,-0.713111 16.40721,-0.713111 h 16.4072 v 42.472924 42.47292 l -8.70079,-0.0119 c -4.78543,-0.007 -9.70759,-0.24704 -10.93814,-0.5345 l -2.23734,-0.52265 v -24.74701 c 0,-13.61085 -0.28691,-24.49691 -0.63757,-24.19124 -0.49611,0.43246 -8.25659,46.57369 -8.30135,49.35714 -0.0121,0.75058 -10.4413,0.86156 -13.50778,0.14374 -1.8381,-0.43028 -2.3029,-1.9113 -4.28083,-13.64018 -1.22037,-7.23657 -3.20102,-18.42322 -4.40146,-24.85916 l -2.18261,-11.70173 -0.49718,25.13704 -0.49719,25.13703 -8.94939,0.13124 c -4.92216,0.0722 -9.73245,-0.0539 -10.68954,-0.28026 z m 88.00228,0.0222 c -0.97016,-0.35203 -1.24297,-9.66826 -1.24297,-42.445 V 91.935168 l 12.1811,0.243378 12.18111,0.243377 v 42.039527 42.03952 l -10.93814,0.16214 c -6.01597,0.0892 -11.49747,-0.0408 -12.1811,-0.28894 z m 35.30034,-0.0374 c -1.62707,-0.37056 -1.74015,-3.12406 -1.74015,-42.37228 V 91.988526 h 10.33297 10.33298 l 1.4459,3.250479 c 0.79526,1.787763 3.86426,9.875755 6.82001,17.973315 l 5.37411,14.72282 0.49718,-17.7566 0.49719,-17.756617 10.19236,-0.247021 10.19235,-0.247022 v 42.58214 42.58215 l -10.36045,-0.29561 c -5.69825,-0.16257 -10.63265,-0.53379 -10.96531,-0.82491 -0.33267,-0.29113 -3.07614,-7.86929 -6.09658,-16.84037 -3.02045,-8.97108 -5.90317,-16.92409 -6.40603,-17.67335 -0.57714,-0.85993 -0.92547,5.4304 -0.94455,17.05706 l -0.0302,18.41938 -8.70079,-0.10055 c -4.78543,-0.0553 -9.48386,-0.27894 -10.44095,-0.49696 z m 66.62319,0 c -1.62707,-0.37056 -1.74015,-3.12406 -1.74015,-42.37228 V 91.988526 h 12.4297 12.4297 v 15.168904 15.1689 h 3.9775 3.9775 v -15.1689 -15.168904 h 12.43916 12.43917 l -0.25806,42.256224 -0.25806,42.25622 -8.94938,0.2629 c -4.92216,0.14459 -10.40366,0.0294 -12.1811,-0.25598 l -3.23173,-0.51888 v -15.92552 c 0,-8.75903 -0.2716,-16.54251 -0.60357,-17.2966 -0.38629,-0.87748 -1.81823,-1.37109 -3.97751,-1.37109 h -3.37392 v 17.76928 17.76929 l -10.68955,-0.10055 c -5.87924,-0.0553 -11.47261,-0.27894 -12.4297,-0.49696 z M 68.756408,84.002419 c -7.440362,-3.761813 -8.01042,-5.599201 -8.01042,-25.818868 0,-16.258585 0.171013,-18.027206 2.011501,-20.803062 6.282165,-9.474866 26.908892,-9.179927 32.714643,0.467784 1.892381,3.144665 2.064993,4.887846 2.056547,20.768675 -0.01025,19.280339 -0.469147,20.985596 -6.687814,24.851998 -4.849837,3.015344 -16.613607,3.299509 -22.084457,0.533473 z M 81.155307,75.02961 c 0.533371,-1.222877 0.969764,-9.144502 0.969764,-17.603611 0,-11.98928 -0.31409,-15.751157 -1.424621,-17.062758 -1.16967,-1.381447 -1.659047,-1.481275 -2.734534,-0.557815 -1.729028,1.484617 -2.469313,33.015792 -0.83754,35.673591 1.466517,2.388633 2.856763,2.233481 4.026931,-0.449407 z m 29.823153,9.286535 c -5.55958,-2.599085 -7.36051,-5.443747 -7.80699,-12.331589 l -0.39411,-6.079845 7.32403,0.256693 7.32403,0.256692 0.29973,5.028377 c 0.31689,5.316173 1.87912,6.960359 4.68481,4.930596 1.70379,-1.2326 1.96159,-6.252967 0.44771,-8.718748 -0.56716,-0.923772 -4.60656,-3.863474 -8.97647,-6.53267 -9.64251,-5.889781 -11.24719,-8.228877 -11.28668,-16.452279 -0.0461,-9.602576 3.74537,-13.240083 14.58255,-13.990342 7.86649,-0.544598 13.50229,0.775693 17.03621,3.991051 2.21926,2.019204 2.88249,3.585314 3.32668,7.855451 l 0.55481,5.333444 -7.35155,-0.257177 -7.35155,-0.257176 -0.32983,-3.0303 c -0.55332,-5.08346 -3.46924,-6.866128 -5.1032,-3.119882 -1.76935,4.056653 0.13876,6.735663 8.39331,11.784344 10.83302,6.625733 11.87839,8.057415 12.30037,16.845931 0.42853,8.92487 -1.10457,12.02587 -7.12299,14.407741 -5.60622,2.21874 -15.89002,2.258617 -20.55087,0.07968 z m 214.62805,-0.218633 c -1.99154,-1.03232 -4.56449,-3.340294 -5.71766,-5.12883 -1.94059,-3.009809 -2.09667,-4.557094 -2.09667,-20.785131 0,-16.419824 0.13792,-17.747153 2.1718,-20.901665 6.24565,-9.686843 26.54467,-9.082571 32.43012,0.965397 2.19442,3.746452 2.27301,4.591712 1.98875,21.392067 -0.32423,19.16293 -0.49363,19.733986 -7.13655,24.057304 -4.18532,2.723869 -16.71064,2.955889 -21.63979,0.400858 z M 338.0705,75.88194 c 0.33197,-0.754097 0.60357,-8.897541 0.60357,-18.096545 0,-13.586016 -0.27179,-16.92209 -1.44801,-17.773011 -0.79639,-0.576153 -1.91507,-0.795923 -2.48594,-0.488376 -1.15124,0.620217 -1.51001,36.161784 -0.37501,37.151153 1.17543,1.024616 3.08512,0.615805 3.70539,-0.793221 z m 29.34071,8.312977 c -5.09027,-2.345206 -6.89815,-5.259706 -7.56525,-12.195949 l -0.57843,-6.014269 h 7.60203 7.60205 v 4.263079 c 0,5.320681 0.71736,7.005246 2.98313,7.005246 2.16206,0 2.98312,-1.67606 2.98312,-6.089509 0,-3.556975 -0.76721,-4.295722 -11.92116,-11.478868 -7.13541,-4.595214 -8.96138,-7.622075 -8.95701,-14.847893 0.005,-7.86612 1.99787,-10.989065 8.36656,-13.109228 5.48615,-1.826362 15.34151,-1.424664 20.34129,0.8291 3.90937,1.762235 6.09159,5.822802 6.09159,11.334953 v 3.966388 l -7.20923,-0.254672 -7.20922,-0.254672 -0.30157,-3.608857 c -0.30272,-3.622698 -1.81114,-5.031385 -4.07921,-3.80949 -0.74792,0.402928 -1.09657,2.126742 -0.9042,4.470474 0.2981,3.631924 0.61619,3.988307 6.64015,7.439333 12.16469,6.968957 14.06604,9.61378 14.043,19.534239 -0.0176,7.591014 -1.25196,9.988756 -6.46766,12.563749 -5.22416,2.579166 -16.13593,2.709765 -21.45998,0.256846 z m 56.28201,0.510358 c -3.884,-1.494471 -6.33251,-3.954932 -8.00591,-8.044968 -1.69919,-4.153085 -1.93927,-30.718482 -0.32803,-36.296315 2.12231,-7.347078 10.18887,-10.929905 21.58695,-9.588031 5.30293,0.624304 8.64405,2.483189 11.85498,6.595713 2.1396,2.740367 2.23735,3.637833 2.23735,20.541195 0,20.311617 -0.68153,22.606929 -7.73917,26.064616 -4.61216,2.259593 -14.65617,2.632431 -19.60617,0.72779 z m 11.20744,-26.038233 c 0.27323,-18.393025 -0.1607,-20.922868 -3.21029,-18.716659 -1.28506,0.929669 -1.53371,3.821124 -1.53371,17.835012 0,9.199004 0.28004,17.361597 0.62231,18.139098 0.34227,0.7775 1.34907,1.291886 2.23735,1.143081 1.41869,-0.237662 1.64778,-2.474756 1.88434,-18.400532 z M 4.5637451,58.183551 V 31.312929 H 14.925685 25.287623 l 0.568804,2.383684 c 0.312843,1.311027 1.217585,6.229307 2.010538,10.929513 0.792953,4.700206 1.636794,8.715862 1.875201,8.923681 0.400169,0.348825 1.676065,-6.563145 3.264736,-17.686208 l 0.649958,-4.55067 H 43.969703 54.282544 V 58.183551 85.054172 H 47.321912 40.36128 L 40.245932,69.235177 c -0.06344,-8.700447 -0.34185,-15.03888 -0.618683,-14.085406 -0.276833,0.953474 -1.455467,7.974507 -2.619185,15.602296 L 34.892212,84.620775 H 29.938306 24.984398 L 22.451332,70.148791 C 21.058146,62.1892 19.595783,55.3957 19.201638,55.052125 18.807492,54.708549 18.485009,61.318457 18.485009,69.740807 V 85.054172 H 11.524377 4.5637451 Z m 145.9420449,5.417464 -0.26596,-21.453158 -4.2261,-0.266537 -4.2261,-0.266538 v -5.171395 -5.171395 l 17.15299,0.237167 17.15298,0.237167 0.29653,4.934868 0.29654,4.934868 -4.77123,0.265897 -4.77122,0.265898 -0.26597,21.453158 -0.26596,21.453157 h -7.92027 -7.92026 z m 29.51871,20.359661 c -0.26475,-0.601424 -0.36258,-12.595689 -0.21738,-26.653923 l 0.26399,-25.560427 13.42407,0.04867 c 14.77971,0.05359 16.8452,0.570623 19.93701,4.990722 2.81553,4.025109 2.78396,15.460749 -0.0495,17.93066 -1.09381,0.953473 -2.76191,1.733588 -3.70687,1.733588 -1.19645,0 -0.5926,0.808727 1.98875,2.663489 l 3.7069,2.663489 v 11.638612 11.638616 h -6.86077 -6.86077 L 201.30147,73.75377 c -0.27325,-8.861945 -0.67031,-11.47748 -1.84001,-12.121028 -3.0132,-1.657799 -3.48169,-0.214528 -3.75697,11.574056 l -0.27666,11.847374 h -7.46096 c -5.08789,0 -7.61409,-0.347805 -7.94235,-1.093496 z m 21.02239,-35.009864 c 0.89995,-4.181685 -0.53747,-7.595946 -3.34562,-7.946734 -2.07899,-0.259704 -2.21734,0.04225 -2.21734,4.839601 0,5.518046 0.37324,6.272312 3.1038,6.272312 1.25874,0 1.9769,-0.924342 2.45916,-3.165179 z m 17.30769,35.767992 c 0,-0.184453 1.78988,-11.735259 3.9775,-25.668459 2.18763,-13.9332 3.97751,-25.886443 3.97751,-26.562761 0,-1.005642 2.12321,-1.185179 11.65407,-0.985464 l 11.65409,0.244206 0.71823,3.467177 c 0.39503,1.906948 2.31436,13.023584 4.26517,24.703636 1.9508,11.680053 3.77503,22.114088 4.05383,23.186746 0.495,1.904477 0.30793,1.950287 -7.96424,1.950287 h -8.47114 v -3.396284 c 0,-4.683084 -0.82515,-6.138452 -3.48031,-6.138452 -2.65516,0 -3.48032,1.455368 -3.48032,6.138452 v 3.396284 h -8.45219 c -4.64871,0 -8.4522,-0.150916 -8.4522,-0.335368 z M 240.9117,62.73422 c -0.31223,-1.787763 -0.884,-6.16059 -1.27059,-9.717392 -0.86816,-7.987464 -1.92696,-6.168122 -2.93276,5.039395 l -0.71152,7.928476 h 2.74128 c 2.60573,0 2.71322,-0.160751 2.17359,-3.250479 z m 21.19542,-4.580992 V 31.252283 l 10.19236,0.247022 10.19235,0.247021 1.12491,6.06756 c 0.61869,3.337158 1.4615,8.407904 1.87291,11.268325 0.91468,6.359647 1.26999,5.588088 3.3329,-7.23735 l 1.62429,-10.098535 10.19235,-0.247021 10.19236,-0.247022 V 58.192831 85.13338 l -6.71204,-0.256302 -6.71204,-0.256303 -0.49719,-14.735502 -0.49719,-14.735502 -2.36413,14.952201 -2.36414,14.9522 h -4.82615 c -5.64644,0 -4.94089,1.426969 -7.9287,-16.035693 -1.14196,-6.674316 -2.26198,-12.297644 -2.48894,-12.496284 -0.22695,-0.19864 -0.41264,6.139793 -0.41264,14.085406 v 14.446571 h -6.96063 -6.96064 z"
       id="path3769"
       inkscape:connector-curvature="0" />
  </g>
</svg>
