<?xml version="1.0" encoding="UTF-8" standalone="no"?>
<!-- Created with Inkscape (http://www.inkscape.org/) -->

<svg
   xmlns:dc="http://purl.org/dc/elements/1.1/"
   xmlns:cc="http://creativecommons.org/ns#"
   xmlns:rdf="http://www.w3.org/1999/02/22-rdf-syntax-ns#"
   xmlns:svg="http://www.w3.org/2000/svg"
   xmlns="http://www.w3.org/2000/svg"
   xmlns:sodipodi="http://sodipodi.sourceforge.net/DTD/sodipodi-0.dtd"
   xmlns:inkscape="http://www.inkscape.org/namespaces/inkscape"
   width="455px"
   height="370px"
   viewBox="0 0 455 370"
   version="1.1"
   id="SVGRoot"
   sodipodi:docname="method-title.svg"
   inkscape:version="0.92.1 r15371">
  <sodipodi:namedview
     id="base"
     pagecolor="#ffffff"
     bordercolor="#666666"
     borderopacity="1.0"
     inkscape:pageopacity="0.0"
     inkscape:pageshadow="2"
     inkscape:zoom="1.4135135"
     inkscape:cx="227.5"
     inkscape:cy="186.76456"
     inkscape:document-units="px"
     inkscape:current-layer="layer1"
     showgrid="false"
     inkscape:window-width="1366"
     inkscape:window-height="706"
     inkscape:window-x="-8"
     inkscape:window-y="-8"
     inkscape:window-maximized="1" />
  <defs
     id="defs3740" />
  <metadata
     id="metadata3743">
    <rdf:RDF>
      <cc:Work
         rdf:about="">
        <dc:format>image/svg+xml</dc:format>
        <dc:type
           rdf:resource="http://purl.org/dc/dcmitype/StillImage" />
      </cc:Work>
    </rdf:RDF>
  </metadata>
  <g
     id="layer1"
     inkscape:groupmode="layer"
     inkscape:label="Camada 1">
    <path
       style="fill:#000000;stroke-width:0.99029779"
       d="m 10.373943,304.64796 -4.2170532,-0.37948 0.255863,-55.15177 0.2558621,-55.15176 20.3011041,0.1141 c 12.390127,0.0696 22.03766,0.58077 24.757445,1.31169 6.462116,1.73663 11.524634,5.40499 14.09218,10.21132 2.10415,3.93889 2.247732,5.37794 2.247732,22.52816 0,16.68488 -0.185425,18.67405 -2.076927,22.28026 -3.10397,5.91784 -9.795917,9.06609 -21.160696,9.95514 l -8.947054,0.6999 v 20.96561 c 0,14.9862 -0.338921,21.30452 -1.188357,22.15398 -1.147073,1.14708 -13.998575,1.39166 -24.320099,0.46285 z M 41.824186,239.0235 c 1.716516,-1.7165 1.980595,-3.30098 1.980595,-11.88357 0,-8.58258 -0.264079,-10.16706 -1.980595,-11.88356 -1.089328,-1.08934 -2.847749,-1.9806 -3.907601,-1.9806 -1.799124,0 -1.946991,0.88732 -2.228169,13.37086 -0.186229,8.26802 0.07676,13.52931 0.689133,13.78599 2.08976,0.876 3.535582,0.50195 5.446637,-1.40912 z m 95.964884,20.84782 c -5.79966,-1.10803 -10.12254,-4.19497 -12.53229,-8.94916 -2.09073,-4.12478 -2.22818,-5.62229 -2.22818,-24.27737 0,-18.65631 0.13731,-20.15207 2.22818,-24.27326 1.66203,-3.27594 3.43575,-5.00515 6.98095,-6.80569 2.61403,-1.32764 4.29503,-2.69678 3.73557,-3.04256 -0.61596,-0.38068 0.24743,-2.56416 2.18879,-5.53528 l 3.20599,-4.90662 6.71219,-0.29367 c 6.25153,-0.27351 6.63476,-0.17156 5.58361,1.48545 -0.62075,0.97851 -3.07726,3.32777 -5.45889,5.22059 -2.38163,1.8928 -4.00726,3.73292 -3.61247,4.08914 0.39477,0.35621 2.36106,1.1725 4.36952,1.81397 5.15937,1.64781 8.68304,4.7096 10.81023,9.39324 1.58243,3.48415 1.83743,6.69708 1.85619,23.38758 0.0204,18.1193 -0.11981,19.62925 -2.20641,23.76714 -3.49671,6.93418 -12.53669,10.66438 -21.63298,8.9265 z m 6.42498,-12.51127 c 0.33061,-0.86155 0.60109,-10.02634 0.60109,-20.36622 0,-19.41002 -0.73636,-23.90588 -3.5351,-21.58313 -1.14488,0.95017 -1.41638,5.10696 -1.41638,21.68543 0,11.28048 0.2971,20.80707 0.6602,21.17016 1.1706,1.17061 3.07246,0.70353 3.69019,-0.90624 z m 38.23391,12.35816 c -4.89141,-0.95469 -8.23742,-3.07145 -11.2649,-7.12642 -1.53336,-2.05377 -1.99231,-4.26594 -2.04179,-9.8418 l -0.0638,-7.19252 6.27582,-0.29708 c 3.66271,-0.17336 6.83877,0.17014 7.62784,0.82501 0.77122,0.64005 1.47855,3.52871 1.64657,6.72438 0.23092,4.39249 0.66643,5.67307 2.01666,5.93003 2.59869,0.49451 4.27254,-3.97912 3.15096,-8.42147 -0.75538,-2.99184 -2.34775,-4.64533 -9.27699,-9.63297 -10.48837,-7.5495 -12.26666,-10.41521 -12.2645,-19.76429 0.002,-8.922 1.66124,-12.18576 7.90436,-15.54854 l 4.80286,-2.58698 0.27987,-10.43339 c 0.24982,-9.31278 0.0191,-11.00443 -2.14703,-15.75021 l -2.42691,-5.31684 -0.0811,10.04461 c -0.0891,11.01958 -0.21987,11.2468 -6.47532,11.2468 -1.79368,0 -4.65386,-0.27852 -6.35595,-0.61894 l -3.09467,-0.61894 V 154.7244 128.11015 h 7.30598 c 4.94173,0 7.66667,0.43459 8.42058,1.34302 0.61303,0.73865 2.83162,5.44386 4.93022,10.45598 l 3.8156,9.11297 0.63768,-4.65242 c 0.35072,-2.55884 0.63768,-7.26401 0.63768,-10.45598 v -5.80357 h 7.38236 7.38235 l 0.58078,3.21846 c 0.31941,1.77016 0.45101,13.91368 0.29244,26.98562 l -0.28832,23.76715 -3.21847,0.31032 c -3.10083,0.29897 -3.21846,0.47089 -3.21846,4.70391 0,3.24522 -0.38827,4.39361 -1.48546,4.39361 -2.69533,0 -1.55176,1.45365 3.07413,3.90768 5.8394,3.09781 7.17101,5.23128 7.95669,12.74813 l 0.63977,6.12103 h -8.06345 -8.06347 v -3.03599 c 0,-4.07894 -1.62679,-6.94059 -3.53032,-6.21014 -1.12777,0.43278 -1.443,1.76356 -1.22276,5.16218 0.28735,4.43401 0.49823,4.7115 6.65568,8.75797 13.02295,8.55821 15.42021,12.73109 14.76521,25.70175 -0.31796,6.29641 -0.70797,7.5222 -3.2314,10.1561 -4.33006,4.51961 -12.41393,6.47253 -20.367,4.92028 z m 11.88208,-60.7329 c 0,-1.74205 -0.61546,-2.49427 -2.22817,-2.7233 -3.28449,-0.46648 -3.75224,-5.48076 -0.55355,-5.93414 3.21772,-0.45608 3.26658,-5.1364 0.0585,-5.59205 -1.39911,-0.19869 -2.22819,-1.00216 -2.22819,-2.15929 0,-1.15713 0.82908,-1.96059 2.22816,-2.1593 1.59538,-0.22658 2.31717,-1.08986 2.54151,-3.03976 0.31138,-2.70605 0.27528,-2.72333 -5.69419,-2.72333 h -6.00757 v 13.36902 13.36902 h 5.94178 c 5.63237,0 5.94179,-0.12533 5.94179,-2.40687 z M 77.939784,257.62224 c -0.271803,-0.70832 -0.376186,-15.09815 -0.231959,-31.97742 l 0.26223,-30.68956 13.369018,0.0538 c 14.648367,0.0589 17.606317,0.85577 21.202347,5.7124 1.62275,2.19166 2.14506,4.59784 2.41896,11.14366 0.34238,8.18271 0.29064,8.40326 -2.60612,11.10923 l -2.95543,2.76076 2.8537,3.19384 c 2.84666,3.18599 2.85369,3.22684 2.85369,16.5889 v 13.39504 l -7.67481,-0.28923 -7.674811,-0.28923 -0.278531,-12.8097 c -0.258759,-11.90005 -1.006825,-15.41378 -3.281576,-15.41378 -0.463021,0 -0.965494,6.35028 -1.116613,14.11174 l -0.27476,14.11174 -8.185573,0.28788 c -6.017948,0.21164 -8.316438,-0.0532 -8.679762,-0.99995 z m 20.82652,-44.84162 c 0,-4.84566 -0.313215,-5.97499 -1.733018,-6.24842 -1.510145,-0.29083 -1.733027,0.51275 -1.733027,6.24842 0,5.73566 0.222882,6.53924 1.733027,6.2484 1.419803,-0.27342 1.733018,-1.40274 1.733018,-6.2484 z m 114.379386,13.74947 v -32.2994 l 13.12145,0.41563 c 20.34582,0.64448 22.86755,2.72972 22.96455,18.98965 0.092,15.41918 -1.87308,18.32199 -13.0081,19.21581 l -6.24282,0.50111 v 12.73829 12.73829 h -8.41753 -8.41755 z m 21.60067,-10.71295 c 0.42245,-6.67405 -0.4061,-9.47346 -2.80387,-9.47346 -1.78266,0 -1.96172,0.68423 -1.96172,7.49611 0,7.20731 0.0858,7.48393 2.22816,7.17966 1.91557,-0.27205 2.27156,-1.00189 2.53743,-5.20231 z m 20.98215,10.7997 v -32.21263 l 13.61658,0.27552 13.61659,0.27553 v 6.43692 6.43695 l -5.19906,0.29931 -5.19905,0.29934 v 5.39489 5.39487 h 4.95149 4.95149 v 6.43694 6.43695 h -4.99675 -4.99673 l 0.29282,6.68451 0.29282,6.68451 5.69422,0.29699 5.69421,0.29699 v 6.38752 6.38752 h -14.35932 -14.35931 z m 35.65071,-0.11056 v -32.32319 l 13.63632,0.49039 c 15.13451,0.54428 18.93462,1.72058 21.48381,6.65017 3.82014,7.38733 2.64992,20.93192 -1.99117,23.04655 l -2.42173,1.10342 2.08122,1.45774 c 3.72191,2.60691 4.84286,7.23224 4.84286,19.98271 v 11.9154 h -7.92237 -7.9224 v -11.81912 c 0,-12.38537 -0.91928,-16.89952 -3.44152,-16.89952 -1.28364,0 -1.50995,2.15208 -1.50995,14.35932 v 14.35932 h -8.41754 -8.41753 z m 21.3849,-10.90489 c 0.8217,-4.38005 -0.50545,-8.62406 -2.83728,-9.07313 -1.48298,-0.2856 -1.71255,0.54286 -1.71255,6.17975 0,5.79904 0.21128,6.50953 1.93572,6.50953 1.44351,0 2.10823,-0.9195 2.61411,-3.61615 z m 20.58666,38.52416 c 0.35654,-2.58715 2.22345,-16.51322 4.14868,-30.9468 1.92523,-14.43361 3.68546,-26.79995 3.9116,-27.48076 0.29712,-0.89448 3.5629,-1.23788 11.77225,-1.23788 8.01087,0 11.59204,0.36502 12.14438,1.23788 1.18727,1.87615 10.00612,61.5296 9.2298,62.43318 -0.37196,0.43293 -4.19908,0.65574 -8.50473,0.49515 l -7.82843,-0.292 -0.27156,-2.97089 c -0.56456,-6.17675 -1.17111,-7.42724 -3.60255,-7.42724 -2.72988,0 -3.55314,1.62494 -3.55314,7.01308 v 3.8802 h -9.04727 -9.04729 z m 22.74076,-18.817 c 0.7138,-1.15496 -1.54185,-18.05957 -2.34364,-17.56402 -0.39086,0.24155 -1.02799,4.07685 -1.41582,8.5229 -0.54554,6.25401 -0.40682,8.27281 0.61295,8.91926 1.64545,1.0431 2.55538,1.07835 3.14651,0.12186 z M 90.651564,182.49225 c -6.25217,-0.82194 -11.648803,-3.9884 -13.943391,-8.18127 -1.428998,-2.61119 -1.709012,-5.88122 -1.709012,-19.95793 0,-18.85891 0.405863,-20.22888 7.245308,-24.45588 2.839352,-1.75483 5.414579,-2.28287 12.523826,-2.56806 8.259615,-0.33133 9.364185,-0.1433 14.329245,2.4392 8.47475,4.40799 9.11575,6.32639 8.77061,26.24878 -0.25686,14.82625 -0.49437,16.80458 -2.31825,19.31081 -4.17858,5.74186 -14.06953,8.58792 -24.898336,7.16435 z m 7.421533,-10.01676 c 1.843185,-1.84318 1.641584,-32.47944 -0.230424,-35.01581 -1.165643,-1.57934 -1.651529,-1.69273 -2.723316,-0.63559 -0.972552,0.95928 -1.304546,5.36951 -1.304546,17.33022 0,18.72231 0.727431,21.85203 4.258286,18.32118 z m 158.647203,9.91143 c -4.89343,-0.85834 -8.20775,-2.94289 -11.32873,-7.12524 -1.88377,-2.52436 -2.04178,-4.10441 -2.04178,-20.41578 0,-16.28187 0.16117,-17.90064 2.03856,-20.47469 3.57537,-4.90208 9.66287,-7.25136 18.78994,-7.25136 14.15713,0 22.24404,6.02941 22.24791,16.58749 l 0.002,4.20875 h -9.40782 -9.40783 v -4.26704 c 0,-5.20786 -2.16523,-8.77516 -4.1421,-6.82428 -0.97693,0.9641 -1.30454,5.49016 -1.30454,18.02342 0,17.09742 0.50204,19.51088 3.79559,18.24702 1.28275,-0.49222 1.65105,-1.93539 1.65105,-6.4694 0,-5.17562 -0.22407,-5.83583 -1.9806,-5.83583 -1.6505,0 -1.9806,-0.6602 -1.9806,-3.9612 v -3.96119 h 10.87441 c 12.98124,0 12.11173,-1.25181 11.69352,16.83508 l -0.28623,12.37871 -5.85768,-0.20606 c -3.22172,-0.11334 -6.17307,-0.71638 -6.55858,-1.34011 -0.51992,-0.84128 -1.30863,-0.80722 -3.05498,0.13187 -3.59256,1.93192 -8.80952,2.58486 -13.74105,1.71984 z M 8.8967847,181.86723 6.1734659,181.45468 v -26.67226 -26.67227 h 9.4078281 9.407829 v 21.29141 21.2914 h 5.322851 c 5.169354,0 5.340698,0.0893 5.941787,3.09468 1.007868,5.03934 0.717459,7.54889 -0.947505,8.18779 -1.693811,0.64998 -21.952483,0.56698 -26.4094713,-0.1082 z M 327.27751,181.897 c -2.96492,-0.59678 -2.92766,-1.12207 2.0937,-29.52452 l 4.20188,-23.76714 13.48983,-0.27506 13.48983,-0.27502 1.57488,7.20712 c 4.08535,18.69579 9.2378,45.8915 8.82196,46.56431 -0.55662,0.90065 -10.25691,0.97239 -15.4486,0.11425 -3.25626,-0.53822 -3.71359,-0.95375 -3.71359,-3.37413 0,-4.40685 -0.98393,-5.89319 -3.90118,-5.89319 -2.43209,0 -2.78882,0.46513 -3.60766,4.70392 l -0.9087,4.70391 -6.93209,0.13204 c -3.81265,0.0726 -7.93476,-0.0698 -9.16026,-0.31644 z m 22.84988,-21.20972 c -0.096,-0.76049 -0.7321,-4.72497 -1.41356,-8.80994 -1.21282,-7.27025 -1.25365,-7.34351 -1.9318,-3.46605 -2.07683,11.87487 -2.10006,13.18556 -0.2421,13.66121 2.57781,0.65992 3.78671,0.19314 3.58746,-1.38522 z M 24.560178,112.3725 C 24.259969,111.88675 23.134524,105.53647 22.059187,98.260762 20.983852,90.98506 18.962194,77.679227 17.566617,68.692274 12.808822,38.05403 8.1540613,6.1935067 8.1540613,4.2659831 c 0,-1.818567 0.8056821,-1.9236636 14.7471097,-1.9236636 h 14.747111 l 0.612753,2.4414012 c 0.765731,3.0509152 4.024301,32.9534833 5.663892,51.9752243 0.678383,7.870259 1.357482,13.886319 1.509112,13.36902 0.15163,-0.517297 1.64825,-15.423647 3.325825,-33.125221 C 50.437438,19.301171 52.000191,4.2610219 52.23265,3.5801921 52.545625,2.6635413 56.518023,2.3423195 67.540848,2.3423195 h 14.885546 v 2.3680516 c 0,1.302428 -0.899366,8.9896149 -1.998592,17.0826379 -2.673685,19.684932 -8.314523,62.088582 -10.421512,78.341231 l -1.701061,13.12145 H 46.70562 c -11.879784,0 -21.845233,-0.39743 -22.145442,-0.88319 z m 96.183752,0.24901 C 120.36652,112.24409 120.0577,87.276866 120.0577,57.1388 V 2.3423195 h 14.29865 14.29862 l 0.59768,4.2087661 c 0.32874,2.3148212 0.46746,27.1589184 0.30827,55.2091044 l -0.28943,51.00034 -13.92067,0.2736 c -7.65636,0.15049 -14.22946,-0.0352 -14.60689,-0.41262 z m 73.32781,0.0459 c -0.40261,-0.40257 -0.732,-25.450267 -0.732,-55.661514 V 2.0762086 l 23.02443,0.5040139 c 18.26529,0.3998346 24.04788,0.857768 27.9759,2.2154611 6.87497,2.376287 10.79023,5.6023824 13.51523,11.1363064 2.3267,4.725059 2.32955,4.778631 2.32955,43.847605 v 39.116768 l -2.70933,4.608797 c -1.94994,3.31702 -4.03168,5.25998 -7.42725,6.93209 -4.51363,2.22269 -5.81163,2.33711 -29.98121,2.64265 -13.89482,0.17566 -25.59272,-0.0101 -25.99532,-0.41262 z m 35.35772,-21.418471 c 1.3178,-1.881429 1.54159,-6.831123 1.54159,-34.09455 0,-34.660635 -0.0545,-35.005961 -5.51736,-35.005961 h -2.40501 v 35.650695 35.65073 h 2.4196 c 1.3777,0 3.08339,-0.94772 3.96118,-2.200941 z m 68.39589,21.031461 c -0.33156,-0.53648 -0.14818,-4.43577 0.40749,-8.6651 0.55569,-4.229316 2.85934,-21.504337 5.11923,-38.388915 2.25988,-16.88458 5.05926,-37.829378 6.22083,-46.543999 L 311.68483,2.8375303 331.9131,2.5688874 c 11.12555,-0.1477535 20.58507,0.088157 21.02117,0.5242465 0.74576,0.7457751 2.65466,12.3388201 7.78484,47.2786931 1.19958,8.169958 3.69023,24.658416 5.5348,36.641015 1.84455,11.982615 3.35487,22.801148 3.35628,24.041198 l 0.003,2.25465 -14.6069,-0.27405 -14.60689,-0.27405 -0.74796,-8.41752 c -0.41141,-4.629641 -0.95444,-8.974584 -1.20681,-9.655402 -0.27303,-0.736647 -2.24694,-1.237878 -4.87497,-1.237878 h -4.41617 l -0.60163,5.694203 c -0.33091,3.131817 -0.83591,7.588157 -1.12224,9.902977 l -0.5206,4.20878 h -14.24019 c -8.28045,0 -14.49249,-0.40824 -14.84304,-0.97544 z M 337.2902,69.682675 c -0.0759,-1.906324 -0.94535,-10.819003 -1.93225,-19.805958 -2.05412,-18.705431 -2.28322,-18.418227 -4.99646,6.263599 -1.90815,17.357984 -1.80826,17.779089 4.09569,17.266393 2.71651,-0.235904 2.95909,-0.554752 2.83302,-3.724034 z"
       id="path4228"
       inkscape:connector-curvature="0" />
  </g>
</svg>
