<?xml version="1.0" encoding="UTF-8" standalone="no"?>
<!-- Created with Inkscape (http://www.inkscape.org/) -->

<svg
   xmlns:dc="http://purl.org/dc/elements/1.1/"
   xmlns:cc="http://creativecommons.org/ns#"
   xmlns:rdf="http://www.w3.org/1999/02/22-rdf-syntax-ns#"
   xmlns:svg="http://www.w3.org/2000/svg"
   xmlns="http://www.w3.org/2000/svg"
   xmlns:sodipodi="http://sodipodi.sourceforge.net/DTD/sodipodi-0.dtd"
   xmlns:inkscape="http://www.inkscape.org/namespaces/inkscape"
   version="1.1"
   id="svg5890"
   width="594.66669"
   height="230.66667"
   viewBox="0 0 594.66669 230.66667"
   sodipodi:docname="spirit-nuages.svg"
   inkscape:version="0.92.1 r15371">
  <metadata
     id="metadata5896">
    <rdf:RDF>
      <cc:Work
         rdf:about="">
        <dc:format>image/svg+xml</dc:format>
        <dc:type
           rdf:resource="http://purl.org/dc/dcmitype/StillImage" />
        <dc:title></dc:title>
      </cc:Work>
    </rdf:RDF>
  </metadata>
  <defs
     id="defs5894" />
  <sodipodi:namedview
     pagecolor="#ffffff"
     bordercolor="#666666"
     borderopacity="1"
     objecttolerance="10"
     gridtolerance="10"
     guidetolerance="10"
     inkscape:pageopacity="0"
     inkscape:pageshadow="2"
     inkscape:window-width="1366"
     inkscape:window-height="706"
     id="namedview5892"
     showgrid="false"
     inkscape:zoom="0.62051567"
     inkscape:cx="297.33334"
     inkscape:cy="115.33334"
     inkscape:window-x="-8"
     inkscape:window-y="-8"
     inkscape:window-maximized="1"
     inkscape:current-layer="svg5890" />
  <path
     style="fill:#000000;stroke-width:1.33333337"
     d="m 449.05512,226.68759 c -4.76666,-1.26927 -12.12038,-3.96521 -16.34158,-5.991 -6.9485,-3.33464 -8.04896,-4.46699 -11.62678,-11.96363 -3.85794,-8.08361 -4.1735,-8.36732 -13.28032,-11.94026 -6.53641,-2.56447 -11.43701,-5.69712 -16.37322,-10.46638 -3.87463,-3.74356 -9.14476,-7.82672 -11.71143,-9.07369 -12.73767,-6.18839 -18.64279,-14.94631 -18.65923,-27.67361 -0.009,-6.71147 1.21669,-9.37311 8.16676,-17.73921 7.46057,-8.98062 15.66482,-12.19866 32.92098,-12.91297 19.68361,-0.8148 34.85733,2.74135 44.68624,10.47277 l 3.574,2.8113 6.51157,-4.77994 c 19.76743,-14.51062 44.64895,-17.46025 67.31686,-7.98022 6.90901,2.88944 10.48346,3.45444 23.48282,3.71186 16.66086,0.32992 23.79475,1.84402 30.79862,6.53671 6.24607,4.18495 12.86736,14.49614 13.95163,21.72654 1.60381,10.69502 -5.63378,24.58813 -17.44815,33.49308 -4.27975,3.22581 -5.87071,5.47878 -6.5908,9.33333 -1.19713,6.40809 -8.0594,14.87172 -16.32601,20.13584 -7.70986,4.90956 -17.87947,6.94523 -34.69638,6.94523 -7.88627,0 -13.81473,0.66913 -16.08845,1.81586 -5.71012,2.87986 -24.82222,6.19982 -34.62754,6.01514 -4.93511,-0.093 -12.87292,-1.2075 -17.63959,-2.47675 z M 117.05511,156.43102 C 97.776438,153.31268 81.792728,147.03256 74.945888,139.886 c -3.30489,-3.44956 -4.63093,-3.88821 -11.806902,-3.9057 -15.650358,-0.0382 -31.806851,-5.53578 -40.47122,-13.77126 -4.425542,-4.20648 -9.215731,-16.5123 -7.831639,-20.11918 0.373078,-0.97223 -1.427606,-3.790179 -4.001521,-6.262108 C 3.1075226,88.406838 0.52912958,82.114656 0.52416258,70.666669 0.51900258,58.761919 2.3809966,54.580476 11.108109,46.898566 20.980376,38.20865 44.212326,30.741149 61.534732,30.68982 c 7.762106,-0.023 7.861906,-0.07367 15.333336,-7.784884 5.853,-6.040845 9.79551,-8.703349 17.78194,-12.008711 25.766252,-10.6639334 60.311442,-10.9423134 80.221422,-0.646461 5.92238,3.062574 18.10719,13.803747 20.19363,17.801101 1.62449,3.112346 2.88071,3.508718 15.63821,4.934334 36.4877,4.077399 55.18818,19.229291 54.75085,44.361379 l -0.12787,7.346576 7.53109,4.086304 c 9.65112,5.236606 13.53111,10.823547 13.53111,19.483932 0,10.84442 -3.82363,15.88837 -17.96377,23.69695 -11.5216,6.36254 -23.20728,9.29182 -40.7029,10.20309 -11.6711,0.60789 -17.48716,0.28928 -24.35119,-1.33401 l -9.01786,-2.13266 -6.60731,4.74688 c -13.63551,9.79614 -49.58592,16.40103 -70.69031,12.98738 z"
     id="path5900"
     inkscape:connector-curvature="0" />
</svg>
