<?xml version="1.0" encoding="UTF-8" standalone="no"?>
<!-- Created with Inkscape (http://www.inkscape.org/) -->

<svg
   xmlns:dc="http://purl.org/dc/elements/1.1/"
   xmlns:cc="http://creativecommons.org/ns#"
   xmlns:rdf="http://www.w3.org/1999/02/22-rdf-syntax-ns#"
   xmlns:svg="http://www.w3.org/2000/svg"
   xmlns="http://www.w3.org/2000/svg"
   xmlns:sodipodi="http://sodipodi.sourceforge.net/DTD/sodipodi-0.dtd"
   xmlns:inkscape="http://www.inkscape.org/namespaces/inkscape"
   width="384px"
   height="315px"
   viewBox="0 0 384 315"
   version="1.1"
   id="SVGRoot"
   inkscape:version="0.92.1 r15371"
   sodipodi:docname="spirit-title.svg">
  <sodipodi:namedview
     id="base"
     pagecolor="#ffffff"
     bordercolor="#666666"
     borderopacity="1.0"
     inkscape:pageopacity="0.0"
     inkscape:pageshadow="2"
     inkscape:zoom="1.6603175"
     inkscape:cx="192"
     inkscape:cy="154.49547"
     inkscape:document-units="px"
     inkscape:current-layer="layer1"
     showgrid="false"
     inkscape:window-width="1366"
     inkscape:window-height="706"
     inkscape:window-x="-8"
     inkscape:window-y="-8"
     inkscape:window-maximized="1" />
  <defs
     id="defs4241" />
  <metadata
     id="metadata4244">
    <rdf:RDF>
      <cc:Work
         rdf:about="">
        <dc:format>image/svg+xml</dc:format>
        <dc:type
           rdf:resource="http://purl.org/dc/dcmitype/StillImage" />
        <dc:title></dc:title>
      </cc:Work>
    </rdf:RDF>
  </metadata>
  <g
     id="layer1"
     inkscape:groupmode="layer"
     inkscape:label="Camada 1">
    <path
       style="fill:#000000;stroke-width:1.03571427"
       d="m 48.997825,309.71267 c -0.273681,-1.32233 -1.714336,-12.89085 -3.201454,-25.70781 -1.487118,-12.81697 -3.78584,-32.15893 -5.108271,-42.98215 -1.779036,-14.56022 -2.101195,-19.97125 -1.238608,-20.80383 2.358896,-2.27685 30.964302,-8.71621 38.692865,-8.71015 7.959085,0.006 13.173461,4.29695 15.099351,12.4247 1.191903,5.0301 5.025503,45.17991 5.198373,54.44321 0.15644,8.38301 -0.0924,9.78097 -2.32066,13.03983 -3.74907,5.48293 -7.669445,7.67547 -24.554519,13.73261 -20.492574,7.35125 -21.929959,7.64192 -22.567077,4.56359 z m 26.541916,-24.24105 c 0.96866,-2.12598 0.725168,-7.60844 -1.18448,-26.66965 -2.548319,-25.43613 -3.056682,-27.98542 -5.789796,-29.03422 -2.566012,-0.98467 -3.610791,0.11669 -3.611596,3.80716 -8.73e-4,3.9985 5.082368,51.4481 5.707653,53.27816 0.759526,2.22298 3.602797,1.41779 4.878219,-1.38145 z m 32.507209,4.59845 c -0.76045,-2.50163 -8.078129,-84.92468 -7.58368,-85.41913 0.26335,-0.26336 4.5023,-1.55323 9.41989,-2.86641 9.95888,-2.65937 10.71817,-2.41902 11.60207,3.67255 0.50535,3.48272 6.64793,75.63282 6.64793,78.08589 0,0.72408 -3.14598,2.50084 -6.99107,3.94835 -9.94249,3.74293 -12.58318,4.26294 -13.09514,2.57875 z m 26.89562,-14.60986 c -1.87886,-17.326 -6.22922,-76.68258 -5.68479,-77.56349 0.81073,-1.31179 28.75533,-8.42326 30.48744,-7.75859 1.69359,0.6499 3.10167,13.77752 1.66363,15.51025 -0.59284,0.71433 -3.47938,1.91427 -6.41451,2.66652 l -5.33662,1.36773 0.42055,6.60466 c 0.51771,8.13053 1.2416,8.97611 6.45256,7.5373 2.99132,-0.82595 4.1878,-0.79304 4.75882,0.1309 1.01395,1.6406 2.24089,12.30806 1.54513,13.43384 -0.30107,0.48714 -2.89063,1.664 -5.75455,2.61526 l -5.20715,1.72953 0.81754,10.5193 c 0.44965,5.78561 0.81754,13.47879 0.81754,17.09595 v 6.57666 l -6.5993,2.48584 c -3.62962,1.36721 -7.67421,2.48584 -8.98797,2.48584 -2.11622,0 -2.45593,-0.62019 -2.97832,-5.4375 z m 35.63705,-10.35714 c -0.009,-1.85134 -1.16282,-19.67857 -2.56227,-39.61607 -2.14372,-30.54096 -2.3213,-36.41848 -1.1275,-37.31975 2.14392,-1.61857 26.33493,-7.20154 27.24919,-6.28874 0.43873,0.43803 0.79769,4.08423 0.79769,8.10266 v 7.30623 l -4.91964,1.44364 -4.91964,1.44364 v 6.63968 c 0,3.65182 0.4598,6.92385 1.02179,7.27119 0.562,0.34732 2.66254,0.17847 4.6679,-0.37523 3.15226,-0.87039 3.79258,-0.73302 4.72768,1.01422 0.59487,1.11153 0.94119,4.45387 0.76961,7.42742 -0.30812,5.33956 -0.36612,5.42518 -4.68646,6.91869 -2.40595,0.83172 -4.57287,2.02928 -4.81537,2.66124 -0.24252,0.63195 -0.18698,4.31259 0.12339,8.17919 l 0.56432,7.03018 3.73321,-0.72045 c 7.97323,-1.5387 7.80531,-1.63931 8.53464,5.11349 0.36643,3.39279 0.4686,6.68377 0.22703,7.31329 -0.47928,1.24897 -24.6147,9.86666 -27.55524,9.83876 -1.34716,-0.0129 -1.81708,-0.88142 -1.83033,-3.38328 z m 34.80575,-8.91445 c -0.30172,-0.48822 -1.03977,-9.69313 -1.64009,-20.45536 -0.60032,-10.76222 -1.54973,-27.68149 -2.10982,-37.59838 -0.56007,-9.91687 -0.78228,-18.26671 -0.49379,-18.5552 1.19352,-1.19352 20.04441,-5.31018 24.42703,-5.33437 7.9915,-0.0441 11.31446,5.73056 11.31446,19.66243 0,6.73934 -0.39119,8.56308 -2.50486,11.67774 -1.94105,2.8603 -2.18636,3.81335 -1.08986,4.2341 3.1318,1.2018 4.41695,6.42167 5.16609,20.98318 l 0.75303,14.63718 -5.86177,2.19318 c -3.22397,1.20624 -6.26048,2.19317 -6.74781,2.19317 -1.6166,0 -2.14278,-3.17417 -2.20308,-13.29007 -0.0751,-12.59651 -1.03025,-18.29922 -3.06502,-18.29922 -1.29541,0 -1.536,2.67428 -1.536,17.07308 v 17.07306 l -6.21429,2.28501 c -7.20934,2.65089 -7.46613,2.69853 -8.19422,1.52047 z m 16.99779,-58.70802 c 0,-6.4408 -0.71517,-8.76146 -2.70009,-8.76146 -1.10205,0 -1.44276,1.79366 -1.44276,7.59524 0,4.17739 0.30667,7.90191 0.68149,8.27673 1.68626,1.68627 3.46136,-1.96022 3.46136,-7.11051 z m 21.40231,29.8189 c -0.36641,-8.40223 -0.9754,-24.89398 -1.35333,-36.64833 l -0.68714,-21.37153 5.59587,-1.6186 c 9.10582,-2.63385 15.69195,-3.92212 17.16381,-3.35731 0.94994,0.36452 1.37848,2.60143 1.37848,7.19534 v 6.66636 l -4.40178,1.39293 c -3.69279,1.16857 -4.45712,1.87803 -4.74529,4.40471 -0.18894,1.65649 -0.0509,4.57151 0.30671,6.47781 0.63492,3.38437 0.74672,3.4506 4.7453,2.8112 l 4.09506,-0.65483 v 6.78223 c 0,6.65814 -0.0555,6.79442 -3.03557,7.44894 -4.46047,0.97968 -5.3962,2.74314 -5.0455,9.5087 l 0.31322,6.04274 4.96689,-0.25587 4.9669,-0.25587 -0.30619,6.86219 -0.30618,6.86218 -9.83928,3.45626 c -5.41161,1.90094 -10.58325,3.47229 -11.49254,3.4919 -1.41138,0.0305 -1.75071,-2.19935 -2.31944,-15.24115 z m 29.02377,5.2207 c -0.27403,-0.45041 -0.78915,-12.4707 -1.1447,-26.71177 -0.35555,-14.24107 -0.90842,-29.70082 -1.22859,-34.35499 -0.65885,-9.57735 0.002,-10.53729 7.56721,-10.98697 l 3.86038,-0.22947 1.92182,7.25 c 1.05701,3.9875 2.3858,9.04481 2.95288,11.23847 1.66336,6.43442 2.4485,3.38509 2.4485,-9.50955 v -12.06456 l 4.49631,-0.95464 c 3.52636,-0.7487 4.69593,-0.63929 5.42164,0.50711 0.50893,0.80396 0.93247,16.27105 0.94119,34.3713 l 0.0159,32.90957 -2.63497,1.00181 c -7.07393,2.6895 -7.50438,2.57881 -8.75666,-2.25194 -3.28599,-12.67586 -4.49793,-16.40828 -5.32788,-16.40828 -0.50095,0 -0.78909,5.22783 -0.6403,11.61739 0.26762,11.49278 0.24274,11.63045 -2.31877,12.83431 -4.17367,1.96156 -7.03939,2.62075 -7.57392,1.74221 z m 41.45481,-0.94399 c -0.40592,-0.4059 -0.73803,-1.59248 -0.73803,-2.63683 0,-1.32268 0.76709,-1.89881 2.52816,-1.89881 1.39049,0 2.81362,-0.46189 3.16252,-1.0264 0.78411,-1.26872 -2.64102,-6.14648 -4.34731,-6.19106 -3.06019,-0.0799 -6.56753,-2.69064 -8.2372,-6.1314 -1.56374,-3.22245 -1.82164,-7.03923 -1.86242,-27.56185 -0.0467,-23.5421 -0.017,-23.87501 2.54197,-28.3904 3.33645,-5.8874 6.92652,-8.47871 12.63859,-9.12254 8.53981,-0.96256 12.14177,4.8566 12.19384,19.69972 l 0.0248,7.04391 -3.59173,1.50073 c -7.11377,2.97231 -7.79913,2.44553 -7.81698,-6.00821 -0.0164,-7.75919 -0.98007,-10.88516 -2.9755,-9.65192 -1.2583,0.77767 -1.70749,44.22392 -0.47001,45.46139 0.37482,0.37482 1.30696,0.16239 2.07142,-0.47206 0.93195,-0.77348 1.3899,-3.66075 1.3899,-8.76324 v -7.6097 l 4.91964,-1.45716 c 2.70581,-0.80143 5.3308,-1.21603 5.83333,-0.92132 0.50253,0.29471 0.67606,4.34476 0.38562,9.00012 -0.5747,9.21171 -2.38529,13.86603 -7.11158,18.28103 -2.69414,2.5167 -2.82117,2.97295 -1.67399,6.01218 1.06461,2.82047 0.94858,3.83564 -0.81474,7.12885 -1.98347,3.70434 -6.14188,5.62334 -8.05025,3.71497 z m 20.01629,-24.991 c 0.0809,-9.94017 4.79703,-60.40215 5.72945,-61.30419 1.44443,-1.39736 13.25177,-4.2464 14.06113,-3.39288 0.59955,0.63228 2.34291,18.68943 4.57139,47.34886 0.31006,3.9875 0.81104,8.53931 1.11331,10.11513 0.48171,2.51135 0.0955,3.05487 -3.12818,4.40178 -5.63172,2.35308 -6.51373,2.02085 -7.14582,-2.69174 -1.02449,-7.63811 -3.52523,-6.57476 -4.53215,1.92713 -0.61647,5.20511 -0.71985,5.33903 -5.33556,6.91175 -2.58878,0.8821 -4.85691,1.60381 -5.04025,1.60381 -0.18334,0 -0.31534,-2.21384 -0.29332,-4.91965 z m 13.99285,-23.12674 c 0.37996,-0.6148 0.33543,-4.22685 -0.099,-8.02679 -0.61853,-5.41057 -0.95734,-6.34741 -1.5622,-4.31968 -1.13397,3.80153 -1.13702,13.46429 -0.004,13.46429 0.53603,0 1.28548,-0.50302 1.66544,-1.11782 z M 45.936039,205.90789 C 37.4573,202.75176 32.96157,195.02216 32.539737,182.87535 l -0.210147,-6.05126 9.271757,-1.81822 c 5.901866,-1.15737 9.631922,-1.45805 10.262695,-0.82728 0.545015,0.54502 1.502035,4.10692 2.12671,7.91534 1.257828,7.66851 3.307837,10.1468 6.323238,7.64423 1.388468,-1.15232 1.663517,-2.7662 1.339272,-7.85837 -0.224425,-3.52452 -1.063405,-7.19789 -1.864402,-8.16303 -0.800996,-0.96514 -5.949231,-4.00944 -11.440521,-6.76509 -16.522297,-8.29128 -19.845658,-12.37028 -21.973546,-26.96971 -2.043167,-14.01815 1.184039,-21.52195 11.417287,-26.54709 5.167206,-2.5374 7.129912,-2.91216 15.251795,-2.91216 7.36448,0 10.191184,0.44626 13.464286,2.12565 5.201083,2.66861 8.775278,9.37822 9.550613,17.92875 0.641842,7.07835 0.860312,6.90466 -10.387614,8.25877 -8.217215,0.98926 -10.037999,0.18598 -10.037999,-4.42847 0,-1.90233 -0.878724,-4.54396 -1.952719,-5.87029 -1.674079,-2.0674 -2.191345,-2.21347 -3.625,-1.02364 -2.115524,1.75573 -2.200244,8.50185 -0.156401,12.45421 1.05915,2.04816 4.413758,4.42303 11.133929,7.88214 12.944829,6.66317 15.704863,8.9346 18.559099,15.27356 2.080133,4.61976 2.43264,7.06736 2.441478,16.95228 0.01015,11.36665 -0.04125,11.6172 -3.188381,15.53572 -6.871677,8.55601 -23.55887,13.77705 -32.909127,10.2965 z m 319.157541,-6.89175 c -2.21813,-1.2931 -3.91138,-7.21934 -3.91892,-13.71592 -0.005,-4.71765 0.18234,-5.05109 3.66481,-6.50616 2.01883,-0.84352 4.11615,-1.2583 4.66072,-0.92175 0.54456,0.33657 0.99012,2.95363 0.99012,5.8157 0,7.13755 2.47625,6.28377 2.90216,-1.00064 0.3064,-5.24008 0.20521,-5.45028 -4.87738,-10.13215 -6.39548,-5.89124 -7.79725,-9.7898 -7.05394,-19.61807 0.6638,-8.77702 2.69249,-13.25645 7.26694,-16.04565 8.21664,-5.00997 14.19079,-0.64296 14.19079,10.37327 0,4.74286 -0.26994,5.35827 -2.76663,6.30751 -4.46235,1.69659 -6.00125,0.8635 -6.3584,-3.44211 -0.3857,-4.64992 -1.84207,-5.06445 -2.78057,-0.79144 -0.9826,4.47376 0.25768,7.32943 4.93094,11.35326 5.48372,4.72166 6.97466,8.67836 6.97466,18.50956 0,6.48844 -0.48175,9.06709 -2.35617,12.61167 -3.46884,6.55966 -10.75385,9.9518 -15.46913,7.20292 z m -267.153759,-7.2084 c -7.893002,-4.17001 -8.609664,-6.9666 -12.787897,-49.90133 -2.369899,-24.35262 -3.02096,-33.85946 -2.331263,-34.04121 0.142411,-0.0375 4.366783,-0.65045 9.387497,-1.36204 8.444722,-1.19688 9.202102,-1.15641 10.110202,0.54038 0.53989,1.00881 2.34588,17.00038 4.01332,35.53682 1.66742,18.53644 3.32079,34.1704 3.67413,34.74212 0.94922,1.53588 3.32042,1.26185 3.98118,-0.46007 0.3165,-0.82478 -0.79491,-17.2344 -2.46978,-36.46584 -1.67488,-19.23144 -2.69959,-35.26928 -2.27714,-35.63968 1.34709,-1.18106 17.29999,-2.95209 18.23837,-2.02476 0.94333,0.93224 5.77114,56.26929 5.81049,66.60064 0.0388,10.20578 -4.77648,17.85715 -13.91701,22.11354 -6.66282,3.10261 -15.94722,3.25919 -21.432099,0.36143 z m 44.256579,-8.13595 c -1.17127,-1.89515 -6.87597,-81.26849 -5.91031,-82.23414 1.3701,-1.37011 24.81277,-4.117518 28.79474,-3.374673 7.58127,1.41432 12.40949,12.324623 11.53459,26.064653 -0.31751,4.9864 -0.97034,7.11524 -2.76914,9.02998 l -2.35368,2.50538 2.58758,2.58759 c 3.46199,3.46199 4.51655,8.12146 5.36365,23.6989 0.82228,15.12113 0.85806,15.05936 -9.33468,16.11134 l -5.48911,0.56653 -0.61038,-7.12375 c -0.3357,-3.91805 -0.90129,-10.94296 -1.25686,-15.61089 -0.67271,-8.83155 -2.45473,-13.1663 -4.56046,-11.09337 -0.84511,0.83193 -0.82935,5.43785 0.0592,17.30102 0.66599,8.89199 0.95158,16.84303 0.63464,17.66897 -0.329,0.85736 -3.69394,2.2108 -7.8423,3.15433 -8.51322,1.93629 -8.13301,1.90414 -8.84747,0.74813 z m 18.04391,-61.14203 c 0,-6.92513 -1.05208,-9.41776 -3.975,-9.41776 -1.22872,0 -1.36299,1.39371 -0.76747,7.96564 0.81634,9.00859 1.0949,9.78387 3.22207,8.96761 1.12717,-0.43254 1.5204,-2.37632 1.5204,-7.51549 z m 33.94695,48.94684 c -2.98166,-1.23705 -4.43978,-2.81105 -6.42697,-6.9377 -2.16742,-4.5009 -2.73995,-7.82647 -3.65231,-21.21465 -0.59508,-8.73237 -1.08196,-21.04232 -1.08196,-27.35543 0,-10.36407 0.25048,-11.90581 2.58012,-15.88104 7.06834,-12.061197 24.06879,-12.808779 30.51358,-1.341821 1.88472,3.353411 2.42895,5.980521 2.52102,12.169551 l 0.11742,7.89292 -5.84908,0.92837 c -8.29461,1.31654 -9.16877,0.75627 -9.16877,-5.87649 0,-3.28939 -0.62165,-6.34576 -1.5339,-7.54143 -2.7095,-3.55132 -3.79701,0.004 -3.18656,10.41812 0.30052,5.12679 0.84785,15.61339 1.21628,23.30357 0.75591,15.778 1.6314,19.5912 4.03919,17.5929 1.10279,-0.91524 1.53641,-3.42134 1.53641,-8.8797 0,-6.5446 -0.28873,-7.75913 -2.07142,-8.7132 -1.59025,-0.85107 -2.07143,-2.1686 -2.07143,-5.67175 0,-2.50973 0.426,-4.82642 0.94666,-5.14821 0.52066,-0.32179 4.26928,-1.21333 8.33026,-1.98122 6.74793,-1.27594 7.46466,-1.2447 8.32502,0.36288 0.51776,0.96748 1.08031,10.07934 1.25009,20.24858 l 0.30868,18.48955 -3.59218,0.74766 c -2.00442,0.4172 -4.4515,0.28777 -5.53633,-0.29282 -1.53833,-0.82328 -2.2761,-0.56659 -3.53426,1.22969 -1.43194,2.04439 -7.26192,5.24026 -9.31289,5.10513 -0.44553,-0.0293 -2.54554,-0.77341 -4.66667,-1.65346 z m 32.91421,-8.90924 c -0.73012,-2.39156 -2.90502,-72.328167 -2.26904,-72.964148 0.9264,-0.926394 20.62715,-3.521313 22.19659,-2.923663 0.95984,0.365507 1.25494,2.496067 1.03571,7.477491 l -0.30657,6.96634 -3.46203,0.70455 c -1.90412,0.38751 -3.79669,1.10415 -4.20572,1.59253 -0.40904,0.48838 -0.55491,3.58257 -0.32416,6.87596 l 0.41955,5.98799 3.73546,-0.29156 c 3.67315,-0.2867 3.74957,-0.21381 4.58125,4.36915 1.24506,6.86092 0.43174,8.96741 -3.76646,9.755 -1.9576,0.36724 -3.70971,1.11841 -3.89358,1.66923 -0.18387,0.55082 -0.10129,3.91509 0.18355,7.47614 l 0.51786,6.47463 4.36552,-0.32476 c 3.86804,-0.28775 4.43645,-0.0423 4.9878,2.1545 0.34224,1.36361 0.47507,4.51228 0.29517,6.99707 l -0.32706,4.5178 -9.32143,2.36465 c -10.66246,2.70484 -13.88258,2.95481 -14.44241,1.1211 z m 28.82421,-6.1466 c -0.88446,-1.43109 -3.11734,-69.936314 -2.30597,-70.747688 0.26236,-0.26236 3.91086,-0.964026 8.10779,-1.559257 8.85839,-1.256345 8.83147,-1.275972 9.80546,7.148385 1.62019,14.01342 1.92991,15.71919 2.70969,14.9238 0.45396,-0.46301 1.20566,-5.93647 1.67044,-12.163239 0.95548,-12.800436 0.6383,-12.436091 11.48567,-13.19382 l 4.89512,-0.341942 0.64814,7.25 c 0.35647,3.9875 0.70602,19.262881 0.77678,33.945281 l 0.12865,26.69527 -2.65671,1.01008 c -1.46119,0.55555 -3.79154,1.01008 -5.17857,1.01008 -2.46202,0 -2.52369,-0.20277 -2.59863,-8.54464 -0.0423,-4.69955 -0.42635,-10.64196 -0.85361,-13.20536 l -0.77682,-4.66071 -0.65198,4.66071 c -0.35859,2.5634 -0.91665,8.83406 -1.24014,13.9348 -0.35592,5.6122 -1.09054,9.59325 -1.86049,10.08236 -1.62937,1.03507 -5.66728,1.07568 -6.28381,0.0632 -0.26015,-0.42723 -1.27886,-6.36964 -2.26382,-13.20536 -2.66583,-18.50136 -3.69634,-18.80419 -2.97252,-0.87348 0.58973,14.60865 0.50012,15.76803 -1.29139,16.70783 -3.70338,1.94274 -8.41659,2.48221 -9.29328,1.06369 z m 52.07653,-11.8921 c -0.37976,-0.37975 -0.69047,-15.49354 -0.69047,-33.58618 V 78.046766 l 5.4375,-0.669471 c 2.99062,-0.368209 7.72096,-0.518263 10.51185,-0.333454 4.15545,0.275167 5.46834,0.865544 7.25,3.260179 2.06975,2.781847 2.17565,4.142847 2.17565,27.96429 0,32.32651 0.33657,31.59974 -16.37677,35.36245 -8.22813,1.85242 -7.43858,1.76709 -8.30776,0.8979 z M 321.29388,109.487 c 0,-15.512699 -0.31695,-20.647318 -1.29464,-20.973215 -1.00788,-0.335958 -1.29465,4.309722 -1.29465,20.973215 0,16.66349 0.28677,21.30917 1.29465,20.97321 0.97769,-0.32589 1.29464,-5.46051 1.29464,-20.97321 z m 13.46996,28.49132 c -0.32588,-0.52727 -0.14185,-4.82317 0.40893,-9.54643 0.55079,-4.72326 1.78668,-18.60828 2.74641,-30.855605 0.95973,-12.247321 2.03934,-22.59316 2.39912,-22.990751 1.20527,-1.331929 13.03815,-2.748543 13.72988,-1.643717 0.88697,1.416693 1.52575,7.753508 3.60566,35.768923 0.98329,13.24448 1.57634,24.29234 1.3179,24.55079 -0.25846,0.25844 -2.43322,0.78385 -4.83281,1.16756 -4.32454,0.69152 -4.36291,0.66991 -4.36291,-2.45715 0,-4.19377 -0.93941,-6.43137 -2.7001,-6.43137 -1.03947,0 -1.44276,1.43736 -1.44276,5.14214 0,3.85392 -0.45406,5.37417 -1.8125,6.06839 -2.97097,1.51832 -8.42054,2.25674 -9.05682,1.22722 z m 13.91678,-28.75025 c -0.0765,-4.98248 -1.71959,-13.25991 -1.90163,-9.580356 -0.0704,1.424106 -0.42202,5.036166 -0.78123,8.026786 -0.55419,4.61382 -0.39594,5.4375 1.04471,5.4375 1.28208,0 1.68322,-0.95108 1.63815,-3.88393 z m 16.35785,21.23214 c -2.55176,-1.93772 -3.86959,-6.42019 -3.86959,-13.16197 0,-6.41955 0.69265,-7.29338 5.78114,-7.29338 2.31102,0 2.50457,0.39546 2.50457,5.11744 0,5.94391 1.5866,7.68252 3.18444,3.48952 1.72514,-4.52699 0.36199,-8.35373 -5.10747,-14.3382 -5.384,-5.890959 -6.36612,-8.665822 -6.3569,-17.960728 0.0119,-12.001471 3.73907,-17.736607 11.52675,-17.736607 5.13907,0 7.79011,2.615686 8.68252,8.566767 1.07101,7.141989 0.41646,9.303104 -3.10094,10.238333 -3.65113,0.970783 -5.09284,-0.136345 -5.15713,-3.960292 -0.0255,-1.513207 -0.62886,-2.947775 -1.34091,-3.187928 -0.90022,-0.303614 -1.29464,0.895413 -1.29464,3.935629 0,3.67506 0.67322,5.102629 4.22184,8.952424 2.32201,2.519085 4.8854,6.168294 5.69643,8.109352 1.78179,4.26444 1.85244,17.17704 0.12149,22.20271 -2.18657,6.34848 -11.07544,10.38044 -15.4916,7.02693 z M 30.232159,104.85036 c -1.939473,-0.7589 -2.504537,-4.23784 -7.503219,-46.195152 -4.222717,-35.444112 -5.123704,-45.55358 -4.116856,-46.192967 0.708913,-0.450187 4.595717,-0.825659 8.637339,-0.834382 5.866476,-0.01266 7.700585,0.373292 9.094739,1.913816 0.960483,1.061322 4.334476,8.401947 7.497763,16.3125 3.163287,7.910553 6.178244,14.825592 6.699904,15.366753 1.33343,1.383273 1.129837,-5.958322 -0.558312,-20.132848 -0.779422,-6.544407 -1.197815,-12.253782 -0.929762,-12.6875 0.268053,-0.433719 4.134076,-0.788581 8.591163,-0.788581 7.521053,0 8.150489,0.167575 8.753157,2.330357 1.433161,5.143148 8.907867,85.089719 8.036994,85.960589 -0.505665,0.505665 -4.370654,1.180415 -8.588866,1.499435 -5.835236,0.44132 -7.924729,0.23893 -8.736766,-0.84624 -0.587009,-0.784451 -3.274019,-7.070355 -5.971132,-13.968663 -4.888711,-12.503682 -7.842068,-18.080744 -7.892502,-14.904049 -0.01357,0.854464 0.670719,7.128715 1.520632,13.942778 2.104364,16.871444 2.0558,18.021774 -0.78506,18.595624 -5.452071,1.10131 -11.799409,1.39147 -13.749216,0.62853 z M 93.436731,97.216633 C 89.304533,95.322129 84.670994,90.5841 82.936071,86.479167 80.685689,81.154626 76.359241,43.919117 76.351024,29.805071 76.343404,16.712037 84.008335,9.0211889 97.061731,9.0243364 c 11.765969,0.0028 20.394789,6.9820866 22.700259,18.3606566 1.39606,6.890172 4.22831,39.370221 4.22831,48.489882 0,8.571692 -2.9421,14.682473 -9.18665,19.08079 -3.61107,2.543439 -5.5692,3.128576 -11.31334,3.380658 -4.319319,0.189557 -8.121549,-0.233906 -10.053579,-1.11969 z M 105.35835,77.638785 c 0.0213,-10.64534 -3.4084,-46.922479 -4.74808,-50.221607 -1.705529,-4.200008 -4.584249,-3.601655 -4.584249,0.952852 0,4.297428 4.045499,48.388959 4.758089,51.858041 0.39345,1.915371 1.23654,2.848214 2.57421,2.848214 1.70772,0 1.99067,-0.769246 2.00003,-5.4375 z m 33.35447,13.464286 c -0.58677,-0.712054 -1.55233,-3.858036 -2.1457,-6.991072 -0.59337,-3.133035 -4.14819,-20.804231 -7.89959,-39.269322 -3.92502,-19.319704 -6.43393,-33.959682 -5.90966,-34.483959 0.50109,-0.5010863 4.58122,-0.7736407 9.06696,-0.6056779 l 8.1559,0.3053879 1.23454,4.660714 c 0.679,2.563393 2.26964,11.566782 3.53476,20.007531 1.26511,8.440749 2.69366,14.953363 3.17456,14.472474 0.48089,-0.48089 1.00177,-9.484278 1.15753,-20.007531 l 0.28319,-19.133188 7.66749,-0.3075039 c 4.21713,-0.1691269 8.12934,0.1543453 8.69383,0.7188269 1.17318,1.173187 -1.1867,75.855638 -2.46217,77.919394 -0.42395,0.685959 -5.35594,1.851732 -10.95998,2.590607 -12.73262,1.678756 -12.31305,1.674949 -13.59166,0.123319 z m 32.71774,-4.142857 c -0.83706,-2.554545 2.55292,-75.88904 3.56685,-77.1607149 1.45299,-1.8223496 19.79468,-1.7872969 21.3118,0.040724 0.60955,0.7344549 2.3324,9.0072229 3.82857,18.3839289 1.49616,9.376707 4.08505,25.630964 5.75309,36.120572 1.66803,10.489609 2.79676,19.308042 2.50829,19.596518 -0.28848,0.288478 -3.66858,0.561428 -7.51133,0.606557 -6.71281,0.07884 -6.99777,-0.01949 -7.26613,-2.507232 -0.8999,-8.341915 -1.34729,-9.456434 -3.6636,-9.126805 -2.00761,0.285703 -2.3315,1.104991 -2.78922,7.05538 l -0.51786,6.732143 -4.66071,0.700015 c -7.23268,1.08631 -10.09849,0.966604 -10.55975,-0.441086 z m 19.1096,-31.960913 c -0.13955,-1.931766 -0.80735,-6.774802 -1.484,-10.762302 l -1.23029,-7.25 -0.78666,4.142857 c -1.29341,6.811519 -1.06964,16.851231 0.3886,17.434524 2.4537,0.981481 3.36534,-0.06278 3.11235,-3.565079 z M 217.048,81.501788 c -3.87589,-2.105383 -6.92214,-9.113935 -7.27669,-16.741544 -0.16376,-3.522928 -0.0254,-6.677737 0.30763,-7.010686 0.33295,-0.332948 3.1092,-0.713052 6.16946,-0.844674 l 5.56409,-0.239313 1.06513,6.732143 c 0.76158,4.813531 1.50703,6.732142 2.6157,6.732142 1.09371,0 1.64692,-1.3487 1.87763,-4.577636 0.5112,-7.154675 -0.3885,-8.907051 -7.59023,-14.78365 -9.48576,-7.740386 -11.89876,-12.836501 -11.89368,-25.118856 0.003,-7.577517 0.40499,-10.034923 2.0941,-12.805397 2.67592,-4.3890259 8.29687,-6.7927747 14.3016,-6.1159541 8.48491,0.9563724 13.21542,6.8684441 13.82336,17.2760871 l 0.33063,5.660309 -4.13709,0.691016 c -6.11079,1.020682 -8.80587,-0.346552 -8.82519,-4.477069 -0.008,-1.865439 -0.42269,-4.034007 -0.91992,-4.81904 -1.6004,-2.526726 -3.20708,-0.138341 -3.20708,4.767437 0,4.626691 0.24985,5.004742 8.23693,12.463001 9.77549,9.128265 10.84284,11.593447 10.88966,25.150818 0.0382,11.063668 -1.14335,14.030418 -7.01322,17.609509 -3.96487,2.417532 -12.36779,2.648614 -16.41282,0.451357 z m 40.04389,-4.619902 c -0.73318,-1.186292 -2.45493,-42.195294 -2.55555,-60.868101 l -0.046,-8.544643 h 5.6353 c 3.09941,0 5.92096,0.4621948 6.27009,1.0270992 0.97561,1.5785688 2.66959,66.6336338 1.75881,67.5444208 -1.5195,1.51949 -10.23389,2.18215 -11.06262,0.841224 z m 16.58158,-2.267717 c -0.27155,-0.757444 -0.62073,-16.291455 -0.77594,-34.520027 l -0.28222,-33.1428571 8.93142,0.05393 c 10.05155,0.060693 13.19911,1.4055316 16.00955,6.8403291 1.39977,2.70686 1.70616,7.425168 1.83405,28.243991 0.19716,32.094541 0.60683,31.348279 -18.23122,33.210593 -5.36576,0.530454 -7.10674,0.370918 -7.48564,-0.685955 z m 14.59239,-14.930277 c 0.70879,-2.824046 -0.37707,-35.905948 -1.28042,-39.009393 -0.29017,-0.996875 -0.96224,-1.8125 -1.4935,-1.8125 -1.09769,0 -1.36612,41.718844 -0.27544,42.809524 1.34068,1.340686 2.38483,0.660097 3.04936,-1.987631 z m 15.80283,1.383464 c -0.0748,-5.838839 -0.19126,-20.403571 -0.25893,-32.366071 L 303.68674,6.9512849 312.10018,6.652589 c 9.30043,-0.3301847 9.66318,-0.045872 9.69742,7.600482 0.0169,3.762983 -1.60116,5.644643 -4.85372,5.644643 -2.19344,0 -2.38214,0.445796 -2.38214,5.627634 0,5.369313 0.13073,5.642677 2.84821,5.955357 2.69143,0.309683 2.86519,0.65149 3.15663,6.20951 0.30189,5.757181 0.24704,5.88883 -2.58929,6.214286 -2.84182,0.326086 -2.8977,0.462317 -2.8977,7.064641 v 6.732143 l 3.36607,0.324549 3.36608,0.324551 v 6.00112 6.00112 l -6.36622,0.665402 c -12.24594,1.279954 -11.22159,2.1759 -11.37683,-9.950671 z m 21.3195,7.238047 c -0.27576,-0.718628 -0.37765,-15.050325 -0.22642,-31.848214 l 0.27497,-30.5416184 h 4.66071 4.66071 l 0.27438,30.8322634 0.27437,30.832264 -2.67216,1.01595 c -3.6646,1.393281 -6.64627,1.273692 -7.24656,-0.290645 z m 11.88527,-1.184066 c -0.45494,-0.45493 0.11409,-7.987337 3.88043,-51.366481 l 0.85427,-9.8392854 6.10632,-0.3151192 c 3.35847,-0.1733154 6.47974,0.059719 6.93614,0.5178571 0.74787,0.7506961 2.76544,22.3961575 4.58485,49.1884565 l 0.68139,10.034053 -3.79422,0.711798 c -4.59879,0.862738 -5.47584,0.09515 -5.90062,-5.164127 -0.49673,-6.150213 -2.59513,-5.778403 -3.6107,0.63977 l -0.86941,5.494455 -4.17588,0.307664 c -2.29673,0.169215 -4.40839,0.07515 -4.69257,-0.209041 z m 12.91685,-24.26529 c -0.057,-0.664583 -0.17348,-3.072619 -0.25893,-5.351191 -0.23899,-6.373032 -2.22679,-4.909151 -2.22679,1.639881 0,4.165874 0.36199,5.662077 1.29465,5.351191 0.71205,-0.237352 1.24803,-0.975298 1.19107,-1.639881 z m 15.2193,20.134787 c -2.63799,-2.815208 -3.95053,-8.753059 -3.40142,-15.387763 0.30309,-3.662132 0.52221,-3.883929 3.83699,-3.883929 3.15423,0 3.58118,0.349828 4.1541,3.403733 0.3512,1.872054 0.55016,3.852857 0.44213,4.401786 -0.10802,0.548928 -0.12639,1.69716 -0.0408,2.551624 0.26815,2.677525 3.19685,-2.107699 3.19685,-5.223362 0,-1.515812 -1.15192,-4.339679 -2.55983,-6.275259 -7.31463,-10.056117 -8.22971,-11.76286 -8.83453,-16.477409 -1.03669,-8.0809 0.25815,-16.1147644 3.08168,-19.1202591 2.44459,-2.6021576 7.0413,-3.4383001 10.85557,-1.9746307 2.75547,1.0573762 4.70711,6.1370828 4.70711,12.2516288 v 5.747862 h -3.49262 c -3.28062,0 -3.53332,-0.254444 -4.16289,-4.1916 -0.81698,-5.109096 -2.70163,-4.447385 -2.70163,0.948557 0,3.104708 0.93581,4.981039 4.66071,9.344874 2.56339,3.003093 4.66072,5.591533 4.66072,5.75209 0,0.160557 0.47605,2.802173 1.05791,5.870258 2.45884,12.965469 -1.43005,23.099485 -9.34363,24.348451 -2.97748,0.469922 -4.07002,0.09719 -6.11641,-2.086652 z"
       id="path4268"
       inkscape:connector-curvature="0" />
  </g>
</svg>
